{"glyphs":{"0":{"ha":1069,"x_min":68,"x_max":1002,"o":"m 324 1175 q 452 1186 404 1175 l 460 1193 l 469 1200 q 503 1219 489 1217 q 558 1200 530 1219 l 572 1190 l 585 1181 q 653 1168 600 1171 q 700 1172 689 1172 q 724 1154 714 1168 q 741 1124 732 1145 l 743 1116 l 747 1107 q 754 1092 751 1099 q 805 1057 767 1073 q 833 1043 827 1046 q 863 973 863 1020 l 862 959 l 860 945 q 882 876 860 899 l 889 867 l 897 857 q 906 798 906 846 q 868 743 906 763 q 856 713 856 734 q 862 641 856 677 q 839 606 862 619 q 821 597 831 602 l 810 593 l 801 589 q 766 566 776 579 q 749 538 758 557 l 743 522 q 734 507 738 513 q 684 471 715 471 q 642 475 661 471 q 600 472 610 475 q 579 460 591 468 l 568 452 l 558 444 q 513 424 532 425 q 471 441 488 424 l 460 449 l 450 457 q 430 469 439 466 q 401 474 418 474 l 385 474 l 370 473 q 313 479 323 473 q 282 519 296 490 l 271 544 q 257 567 264 558 q 235 581 250 574 l 222 587 l 209 593 q 161 678 161 627 q 150 755 161 727 q 115 831 115 793 q 120 845 116 838 q 143 882 124 859 q 165 920 161 905 q 161 974 165 951 q 239 1067 162 1061 q 261 1084 253 1074 q 274 1105 269 1091 l 279 1116 q 324 1175 295 1165 m 373 686 q 387 702 374 689 l 391 701 l 373 686 m 422 699 q 469 677 433 696 q 528 656 505 658 q 591 685 566 656 q 537 650 569 650 q 422 699 503 652 m 347 677 q 358 696 347 688 q 382 703 368 703 q 366 688 378 697 q 347 677 353 677 m 411 728 q 570 916 565 912 q 495 821 570 914 q 416 728 420 728 l 411 728 m 551 961 q 534 967 551 961 q 509 975 516 974 q 565 960 517 975 q 639 945 614 945 q 667 956 648 945 q 675 959 672 958 q 656 946 670 952 q 631 939 643 939 q 598 945 616 939 q 551 961 586 948 m 628 928 q 637 936 632 934 q 701 985 701 960 q 695 996 701 992 q 633 972 680 996 q 626 969 627 969 l 624 969 q 575 985 618 969 q 496 1000 532 1000 q 444 975 471 1000 q 416 928 416 951 q 423 913 416 920 q 439 906 430 906 l 444 906 q 467 917 458 906 q 475 941 475 927 q 469 955 475 949 q 455 962 463 962 q 467 971 456 967 q 484 975 476 975 q 540 962 508 975 l 553 957 l 566 951 q 591 943 581 945 q 568 919 587 937 l 561 911 l 553 905 q 542 892 546 897 l 536 886 l 530 880 l 518 866 q 408 729 505 850 l 401 729 q 349 713 374 729 q 321 671 321 696 q 351 656 321 656 q 425 688 378 656 q 536 644 509 644 q 576 661 557 644 q 596 698 596 678 q 570 725 596 725 q 547 717 558 725 q 536 695 536 707 q 541 679 536 684 q 554 668 543 676 l 552 668 l 550 667 q 546 667 548 667 l 545 667 q 495 688 530 667 q 455 713 461 709 l 628 928 m 511 1101 q 708 1019 627 1101 q 790 822 790 937 q 708 625 790 706 q 511 543 627 543 q 314 625 395 543 q 232 822 232 706 q 314 1019 232 937 q 511 1101 395 1101 m 511 1133 q 292 1042 382 1133 q 200 822 200 950 q 292 602 200 693 q 511 511 382 511 q 730 602 640 511 q 822 822 822 693 q 730 1042 822 950 q 511 1133 640 1133 m 119 294 q 136 312 136 294 q 119 329 136 329 l 102 329 l 102 294 l 119 294 m 68 226 l 68 363 l 119 363 q 171 312 171 363 q 119 260 171 260 l 102 260 l 102 226 l 68 226 m 263 363 l 263 329 l 212 329 l 212 312 l 263 312 l 263 277 l 212 277 l 212 260 l 263 260 l 263 226 l 177 226 l 177 363 l 263 363 m 313 294 l 330 294 q 347 312 347 294 q 330 329 347 329 l 313 329 l 313 294 m 382 312 q 357 267 382 280 l 382 226 l 339 226 l 319 260 l 313 260 l 313 226 l 279 226 l 279 363 l 330 363 q 382 312 382 363 m 439 283 q 388 321 388 283 q 441 368 388 368 q 500 347 477 368 l 482 321 q 443 335 467 335 q 422 321 422 335 q 461 309 422 309 q 500 270 500 309 q 446 226 500 226 q 388 244 406 226 l 406 270 q 444 256 420 256 q 465 270 465 256 q 439 283 465 283 m 541 294 q 576 260 541 260 q 610 294 610 260 q 576 329 610 329 q 541 294 541 329 m 644 294 q 576 226 644 226 q 507 294 507 226 q 576 363 507 363 q 644 294 644 363 m 772 363 l 772 226 l 738 226 l 686 303 l 686 226 l 652 226 l 652 363 l 686 363 l 738 286 l 738 363 l 772 363 m 835 260 l 863 260 l 849 303 l 835 260 m 867 363 l 918 226 l 875 226 l 872 235 l 827 235 l 823 226 l 781 226 l 832 363 l 867 363 m 959 363 l 959 260 l 1002 260 l 1002 226 l 924 226 l 924 363 l 959 363 m 180 189 l 180 -51 q 227 -94 180 -94 q 274 -51 274 -94 l 274 189 l 369 189 l 369 -51 q 227 -188 369 -188 q 85 -51 85 -188 l 85 189 l 180 189 m 574 -39 q 395 73 395 -39 q 541 201 395 201 q 701 144 638 201 l 654 73 q 541 115 624 115 q 489 73 489 115 q 573 39 489 39 q 701 -68 701 39 q 555 -188 701 -188 q 395 -139 444 -188 l 442 -68 q 540 -111 486 -111 q 607 -68 607 -111 q 574 -39 607 -39 m 971 189 l 971 95 l 830 95 l 830 48 l 971 48 l 971 -47 l 830 -47 l 830 -94 l 971 -94 l 971 -188 l 736 -188 l 736 189 l 971 189 z "},"1":{"ha":1069,"x_min":68,"x_max":1002,"o":"m 324 1175 q 452 1186 404 1175 l 460 1193 l 469 1200 q 503 1219 489 1217 q 558 1200 530 1219 l 572 1190 l 585 1181 q 653 1168 600 1171 q 700 1172 689 1172 q 724 1154 714 1168 q 741 1124 732 1145 l 743 1116 l 747 1107 q 754 1092 751 1099 q 805 1057 767 1073 q 833 1043 827 1046 q 863 973 863 1020 l 862 959 l 860 945 q 882 876 860 899 l 889 867 l 897 857 q 906 798 906 846 q 868 743 906 763 q 856 713 856 734 q 862 641 856 677 q 839 606 862 619 q 821 597 831 602 l 810 593 l 801 589 q 766 566 776 579 q 749 538 758 557 l 743 522 q 734 507 738 513 q 684 471 715 471 q 642 475 661 471 q 600 472 610 475 q 579 460 591 468 l 568 452 l 558 444 q 513 424 532 425 q 471 441 488 424 l 460 449 l 450 457 q 430 469 439 466 q 401 474 418 474 l 385 474 l 370 473 q 313 479 323 473 q 282 519 296 490 l 271 544 q 257 567 264 558 q 235 581 250 574 l 222 587 l 209 593 q 161 678 161 627 q 150 755 161 727 q 115 831 115 793 q 120 845 116 838 q 143 882 124 859 q 165 920 161 905 q 161 974 165 951 q 239 1067 162 1061 q 261 1084 253 1074 q 274 1105 269 1091 l 279 1116 q 324 1175 295 1165 m 373 686 q 387 702 374 689 l 391 701 l 373 686 m 422 699 q 469 677 433 696 q 528 656 505 658 q 591 685 566 656 q 537 650 569 650 q 422 699 503 652 m 347 677 q 358 696 347 688 q 382 703 368 703 q 366 688 378 697 q 347 677 353 677 m 411 728 q 570 916 565 912 q 495 821 570 914 q 416 728 420 728 l 411 728 m 551 961 q 534 967 551 961 q 509 975 516 974 q 565 960 517 975 q 639 945 614 945 q 667 956 648 945 q 675 959 672 958 q 656 946 670 952 q 631 939 643 939 q 598 945 616 939 q 551 961 586 948 m 628 928 q 637 936 632 934 q 701 985 701 960 q 695 996 701 992 q 633 972 680 996 q 626 969 627 969 l 624 969 q 575 985 618 969 q 496 1000 532 1000 q 444 975 471 1000 q 416 928 416 951 q 423 913 416 920 q 439 906 430 906 l 444 906 q 467 917 458 906 q 475 941 475 927 q 469 955 475 949 q 455 962 463 962 q 467 971 456 967 q 484 975 476 975 q 540 962 508 975 l 553 957 l 566 951 q 591 943 581 945 q 568 919 587 937 l 561 911 l 553 905 q 542 892 546 897 l 536 886 l 530 880 l 518 866 q 408 729 505 850 l 401 729 q 349 713 374 729 q 321 671 321 696 q 351 656 321 656 q 425 688 378 656 q 536 644 509 644 q 576 661 557 644 q 596 698 596 678 q 570 725 596 725 q 547 717 558 725 q 536 695 536 707 q 541 679 536 684 q 554 668 543 676 l 552 668 l 550 667 q 546 667 548 667 l 545 667 q 495 688 530 667 q 455 713 461 709 l 628 928 m 511 1101 q 708 1019 627 1101 q 790 822 790 937 q 708 625 790 706 q 511 543 627 543 q 314 625 395 543 q 232 822 232 706 q 314 1019 232 937 q 511 1101 395 1101 m 511 1133 q 292 1042 382 1133 q 200 822 200 950 q 292 602 200 693 q 511 511 382 511 q 730 602 640 511 q 822 822 822 693 q 730 1042 822 950 q 511 1133 640 1133 m 119 294 q 136 312 136 294 q 119 329 136 329 l 102 329 l 102 294 l 119 294 m 68 226 l 68 363 l 119 363 q 171 312 171 363 q 119 260 171 260 l 102 260 l 102 226 l 68 226 m 263 363 l 263 329 l 212 329 l 212 312 l 263 312 l 263 277 l 212 277 l 212 260 l 263 260 l 263 226 l 177 226 l 177 363 l 263 363 m 313 294 l 330 294 q 347 312 347 294 q 330 329 347 329 l 313 329 l 313 294 m 382 312 q 357 267 382 280 l 382 226 l 339 226 l 319 260 l 313 260 l 313 226 l 279 226 l 279 363 l 330 363 q 382 312 382 363 m 439 283 q 388 321 388 283 q 441 368 388 368 q 500 347 477 368 l 482 321 q 443 335 467 335 q 422 321 422 335 q 461 309 422 309 q 500 270 500 309 q 446 226 500 226 q 388 244 406 226 l 406 270 q 444 256 420 256 q 465 270 465 256 q 439 283 465 283 m 541 294 q 576 260 541 260 q 610 294 610 260 q 576 329 610 329 q 541 294 541 329 m 644 294 q 576 226 644 226 q 507 294 507 226 q 576 363 507 363 q 644 294 644 363 m 772 363 l 772 226 l 738 226 l 686 303 l 686 226 l 652 226 l 652 363 l 686 363 l 738 286 l 738 363 l 772 363 m 835 260 l 863 260 l 849 303 l 835 260 m 867 363 l 918 226 l 875 226 l 872 235 l 827 235 l 823 226 l 781 226 l 832 363 l 867 363 m 959 363 l 959 260 l 1002 260 l 1002 226 l 924 226 l 924 363 l 959 363 m 180 189 l 180 -51 q 227 -94 180 -94 q 274 -51 274 -94 l 274 189 l 369 189 l 369 -51 q 227 -188 369 -188 q 85 -51 85 -188 l 85 189 l 180 189 m 574 -39 q 395 73 395 -39 q 541 201 395 201 q 701 144 638 201 l 654 73 q 541 115 624 115 q 489 73 489 115 q 573 39 489 39 q 701 -68 701 39 q 555 -188 701 -188 q 395 -139 444 -188 l 442 -68 q 540 -111 486 -111 q 607 -68 607 -111 q 574 -39 607 -39 m 971 189 l 971 95 l 830 95 l 830 48 l 971 48 l 971 -47 l 830 -47 l 830 -94 l 971 -94 l 971 -188 l 736 -188 l 736 189 l 971 189 z "},"2":{"ha":1069,"x_min":68,"x_max":1002,"o":"m 324 1175 q 452 1186 404 1175 l 460 1193 l 469 1200 q 503 1219 489 1217 q 558 1200 530 1219 l 572 1190 l 585 1181 q 653 1168 600 1171 q 700 1172 689 1172 q 724 1154 714 1168 q 741 1124 732 1145 l 743 1116 l 747 1107 q 754 1092 751 1099 q 805 1057 767 1073 q 833 1043 827 1046 q 863 973 863 1020 l 862 959 l 860 945 q 882 876 860 899 l 889 867 l 897 857 q 906 798 906 846 q 868 743 906 763 q 856 713 856 734 q 862 641 856 677 q 839 606 862 619 q 821 597 831 602 l 810 593 l 801 589 q 766 566 776 579 q 749 538 758 557 l 743 522 q 734 507 738 513 q 684 471 715 471 q 642 475 661 471 q 600 472 610 475 q 579 460 591 468 l 568 452 l 558 444 q 513 424 532 425 q 471 441 488 424 l 460 449 l 450 457 q 430 469 439 466 q 401 474 418 474 l 385 474 l 370 473 q 313 479 323 473 q 282 519 296 490 l 271 544 q 257 567 264 558 q 235 581 250 574 l 222 587 l 209 593 q 161 678 161 627 q 150 755 161 727 q 115 831 115 793 q 120 845 116 838 q 143 882 124 859 q 165 920 161 905 q 161 974 165 951 q 239 1067 162 1061 q 261 1084 253 1074 q 274 1105 269 1091 l 279 1116 q 324 1175 295 1165 m 373 686 q 387 702 374 689 l 391 701 l 373 686 m 422 699 q 469 677 433 696 q 528 656 505 658 q 591 685 566 656 q 537 650 569 650 q 422 699 503 652 m 347 677 q 358 696 347 688 q 382 703 368 703 q 366 688 378 697 q 347 677 353 677 m 411 728 q 570 916 565 912 q 495 821 570 914 q 416 728 420 728 l 411 728 m 551 961 q 534 967 551 961 q 509 975 516 974 q 565 960 517 975 q 639 945 614 945 q 667 956 648 945 q 675 959 672 958 q 656 946 670 952 q 631 939 643 939 q 598 945 616 939 q 551 961 586 948 m 628 928 q 637 936 632 934 q 701 985 701 960 q 695 996 701 992 q 633 972 680 996 q 626 969 627 969 l 624 969 q 575 985 618 969 q 496 1000 532 1000 q 444 975 471 1000 q 416 928 416 951 q 423 913 416 920 q 439 906 430 906 l 444 906 q 467 917 458 906 q 475 941 475 927 q 469 955 475 949 q 455 962 463 962 q 467 971 456 967 q 484 975 476 975 q 540 962 508 975 l 553 957 l 566 951 q 591 943 581 945 q 568 919 587 937 l 561 911 l 553 905 q 542 892 546 897 l 536 886 l 530 880 l 518 866 q 408 729 505 850 l 401 729 q 349 713 374 729 q 321 671 321 696 q 351 656 321 656 q 425 688 378 656 q 536 644 509 644 q 576 661 557 644 q 596 698 596 678 q 570 725 596 725 q 547 717 558 725 q 536 695 536 707 q 541 679 536 684 q 554 668 543 676 l 552 668 l 550 667 q 546 667 548 667 l 545 667 q 495 688 530 667 q 455 713 461 709 l 628 928 m 511 1101 q 708 1019 627 1101 q 790 822 790 937 q 708 625 790 706 q 511 543 627 543 q 314 625 395 543 q 232 822 232 706 q 314 1019 232 937 q 511 1101 395 1101 m 511 1133 q 292 1042 382 1133 q 200 822 200 950 q 292 602 200 693 q 511 511 382 511 q 730 602 640 511 q 822 822 822 693 q 730 1042 822 950 q 511 1133 640 1133 m 119 294 q 136 312 136 294 q 119 329 136 329 l 102 329 l 102 294 l 119 294 m 68 226 l 68 363 l 119 363 q 171 312 171 363 q 119 260 171 260 l 102 260 l 102 226 l 68 226 m 263 363 l 263 329 l 212 329 l 212 312 l 263 312 l 263 277 l 212 277 l 212 260 l 263 260 l 263 226 l 177 226 l 177 363 l 263 363 m 313 294 l 330 294 q 347 312 347 294 q 330 329 347 329 l 313 329 l 313 294 m 382 312 q 357 267 382 280 l 382 226 l 339 226 l 319 260 l 313 260 l 313 226 l 279 226 l 279 363 l 330 363 q 382 312 382 363 m 439 283 q 388 321 388 283 q 441 368 388 368 q 500 347 477 368 l 482 321 q 443 335 467 335 q 422 321 422 335 q 461 309 422 309 q 500 270 500 309 q 446 226 500 226 q 388 244 406 226 l 406 270 q 444 256 420 256 q 465 270 465 256 q 439 283 465 283 m 541 294 q 576 260 541 260 q 610 294 610 260 q 576 329 610 329 q 541 294 541 329 m 644 294 q 576 226 644 226 q 507 294 507 226 q 576 363 507 363 q 644 294 644 363 m 772 363 l 772 226 l 738 226 l 686 303 l 686 226 l 652 226 l 652 363 l 686 363 l 738 286 l 738 363 l 772 363 m 835 260 l 863 260 l 849 303 l 835 260 m 867 363 l 918 226 l 875 226 l 872 235 l 827 235 l 823 226 l 781 226 l 832 363 l 867 363 m 959 363 l 959 260 l 1002 260 l 1002 226 l 924 226 l 924 363 l 959 363 m 180 189 l 180 -51 q 227 -94 180 -94 q 274 -51 274 -94 l 274 189 l 369 189 l 369 -51 q 227 -188 369 -188 q 85 -51 85 -188 l 85 189 l 180 189 m 574 -39 q 395 73 395 -39 q 541 201 395 201 q 701 144 638 201 l 654 73 q 541 115 624 115 q 489 73 489 115 q 573 39 489 39 q 701 -68 701 39 q 555 -188 701 -188 q 395 -139 444 -188 l 442 -68 q 540 -111 486 -111 q 607 -68 607 -111 q 574 -39 607 -39 m 971 189 l 971 95 l 830 95 l 830 48 l 971 48 l 971 -47 l 830 -47 l 830 -94 l 971 -94 l 971 -188 l 736 -188 l 736 189 l 971 189 z "},"3":{"ha":1069,"x_min":68,"x_max":1002,"o":"m 324 1175 q 452 1186 404 1175 l 460 1193 l 469 1200 q 503 1219 489 1217 q 558 1200 530 1219 l 572 1190 l 585 1181 q 653 1168 600 1171 q 700 1172 689 1172 q 724 1154 714 1168 q 741 1124 732 1145 l 743 1116 l 747 1107 q 754 1092 751 1099 q 805 1057 767 1073 q 833 1043 827 1046 q 863 973 863 1020 l 862 959 l 860 945 q 882 876 860 899 l 889 867 l 897 857 q 906 798 906 846 q 868 743 906 763 q 856 713 856 734 q 862 641 856 677 q 839 606 862 619 q 821 597 831 602 l 810 593 l 801 589 q 766 566 776 579 q 749 538 758 557 l 743 522 q 734 507 738 513 q 684 471 715 471 q 642 475 661 471 q 600 472 610 475 q 579 460 591 468 l 568 452 l 558 444 q 513 424 532 425 q 471 441 488 424 l 460 449 l 450 457 q 430 469 439 466 q 401 474 418 474 l 385 474 l 370 473 q 313 479 323 473 q 282 519 296 490 l 271 544 q 257 567 264 558 q 235 581 250 574 l 222 587 l 209 593 q 161 678 161 627 q 150 755 161 727 q 115 831 115 793 q 120 845 116 838 q 143 882 124 859 q 165 920 161 905 q 161 974 165 951 q 239 1067 162 1061 q 261 1084 253 1074 q 274 1105 269 1091 l 279 1116 q 324 1175 295 1165 m 373 686 q 387 702 374 689 l 391 701 l 373 686 m 422 699 q 469 677 433 696 q 528 656 505 658 q 591 685 566 656 q 537 650 569 650 q 422 699 503 652 m 347 677 q 358 696 347 688 q 382 703 368 703 q 366 688 378 697 q 347 677 353 677 m 411 728 q 570 916 565 912 q 495 821 570 914 q 416 728 420 728 l 411 728 m 551 961 q 534 967 551 961 q 509 975 516 974 q 565 960 517 975 q 639 945 614 945 q 667 956 648 945 q 675 959 672 958 q 656 946 670 952 q 631 939 643 939 q 598 945 616 939 q 551 961 586 948 m 628 928 q 637 936 632 934 q 701 985 701 960 q 695 996 701 992 q 633 972 680 996 q 626 969 627 969 l 624 969 q 575 985 618 969 q 496 1000 532 1000 q 444 975 471 1000 q 416 928 416 951 q 423 913 416 920 q 439 906 430 906 l 444 906 q 467 917 458 906 q 475 941 475 927 q 469 955 475 949 q 455 962 463 962 q 467 971 456 967 q 484 975 476 975 q 540 962 508 975 l 553 957 l 566 951 q 591 943 581 945 q 568 919 587 937 l 561 911 l 553 905 q 542 892 546 897 l 536 886 l 530 880 l 518 866 q 408 729 505 850 l 401 729 q 349 713 374 729 q 321 671 321 696 q 351 656 321 656 q 425 688 378 656 q 536 644 509 644 q 576 661 557 644 q 596 698 596 678 q 570 725 596 725 q 547 717 558 725 q 536 695 536 707 q 541 679 536 684 q 554 668 543 676 l 552 668 l 550 667 q 546 667 548 667 l 545 667 q 495 688 530 667 q 455 713 461 709 l 628 928 m 511 1101 q 708 1019 627 1101 q 790 822 790 937 q 708 625 790 706 q 511 543 627 543 q 314 625 395 543 q 232 822 232 706 q 314 1019 232 937 q 511 1101 395 1101 m 511 1133 q 292 1042 382 1133 q 200 822 200 950 q 292 602 200 693 q 511 511 382 511 q 730 602 640 511 q 822 822 822 693 q 730 1042 822 950 q 511 1133 640 1133 m 119 294 q 136 312 136 294 q 119 329 136 329 l 102 329 l 102 294 l 119 294 m 68 226 l 68 363 l 119 363 q 171 312 171 363 q 119 260 171 260 l 102 260 l 102 226 l 68 226 m 263 363 l 263 329 l 212 329 l 212 312 l 263 312 l 263 277 l 212 277 l 212 260 l 263 260 l 263 226 l 177 226 l 177 363 l 263 363 m 313 294 l 330 294 q 347 312 347 294 q 330 329 347 329 l 313 329 l 313 294 m 382 312 q 357 267 382 280 l 382 226 l 339 226 l 319 260 l 313 260 l 313 226 l 279 226 l 279 363 l 330 363 q 382 312 382 363 m 439 283 q 388 321 388 283 q 441 368 388 368 q 500 347 477 368 l 482 321 q 443 335 467 335 q 422 321 422 335 q 461 309 422 309 q 500 270 500 309 q 446 226 500 226 q 388 244 406 226 l 406 270 q 444 256 420 256 q 465 270 465 256 q 439 283 465 283 m 541 294 q 576 260 541 260 q 610 294 610 260 q 576 329 610 329 q 541 294 541 329 m 644 294 q 576 226 644 226 q 507 294 507 226 q 576 363 507 363 q 644 294 644 363 m 772 363 l 772 226 l 738 226 l 686 303 l 686 226 l 652 226 l 652 363 l 686 363 l 738 286 l 738 363 l 772 363 m 835 260 l 863 260 l 849 303 l 835 260 m 867 363 l 918 226 l 875 226 l 872 235 l 827 235 l 823 226 l 781 226 l 832 363 l 867 363 m 959 363 l 959 260 l 1002 260 l 1002 226 l 924 226 l 924 363 l 959 363 m 180 189 l 180 -51 q 227 -94 180 -94 q 274 -51 274 -94 l 274 189 l 369 189 l 369 -51 q 227 -188 369 -188 q 85 -51 85 -188 l 85 189 l 180 189 m 574 -39 q 395 73 395 -39 q 541 201 395 201 q 701 144 638 201 l 654 73 q 541 115 624 115 q 489 73 489 115 q 573 39 489 39 q 701 -68 701 39 q 555 -188 701 -188 q 395 -139 444 -188 l 442 -68 q 540 -111 486 -111 q 607 -68 607 -111 q 574 -39 607 -39 m 971 189 l 971 95 l 830 95 l 830 48 l 971 48 l 971 -47 l 830 -47 l 830 -94 l 971 -94 l 971 -188 l 736 -188 l 736 189 l 971 189 z "},"4":{"ha":1069,"x_min":68,"x_max":1002,"o":"m 324 1175 q 452 1186 404 1175 l 460 1193 l 469 1200 q 503 1219 489 1217 q 558 1200 530 1219 l 572 1190 l 585 1181 q 653 1168 600 1171 q 700 1172 689 1172 q 724 1154 714 1168 q 741 1124 732 1145 l 743 1116 l 747 1107 q 754 1092 751 1099 q 805 1057 767 1073 q 833 1043 827 1046 q 863 973 863 1020 l 862 959 l 860 945 q 882 876 860 899 l 889 867 l 897 857 q 906 798 906 846 q 868 743 906 763 q 856 713 856 734 q 862 641 856 677 q 839 606 862 619 q 821 597 831 602 l 810 593 l 801 589 q 766 566 776 579 q 749 538 758 557 l 743 522 q 734 507 738 513 q 684 471 715 471 q 642 475 661 471 q 600 472 610 475 q 579 460 591 468 l 568 452 l 558 444 q 513 424 532 425 q 471 441 488 424 l 460 449 l 450 457 q 430 469 439 466 q 401 474 418 474 l 385 474 l 370 473 q 313 479 323 473 q 282 519 296 490 l 271 544 q 257 567 264 558 q 235 581 250 574 l 222 587 l 209 593 q 161 678 161 627 q 150 755 161 727 q 115 831 115 793 q 120 845 116 838 q 143 882 124 859 q 165 920 161 905 q 161 974 165 951 q 239 1067 162 1061 q 261 1084 253 1074 q 274 1105 269 1091 l 279 1116 q 324 1175 295 1165 m 373 686 q 387 702 374 689 l 391 701 l 373 686 m 422 699 q 469 677 433 696 q 528 656 505 658 q 591 685 566 656 q 537 650 569 650 q 422 699 503 652 m 347 677 q 358 696 347 688 q 382 703 368 703 q 366 688 378 697 q 347 677 353 677 m 411 728 q 570 916 565 912 q 495 821 570 914 q 416 728 420 728 l 411 728 m 551 961 q 534 967 551 961 q 509 975 516 974 q 565 960 517 975 q 639 945 614 945 q 667 956 648 945 q 675 959 672 958 q 656 946 670 952 q 631 939 643 939 q 598 945 616 939 q 551 961 586 948 m 628 928 q 637 936 632 934 q 701 985 701 960 q 695 996 701 992 q 633 972 680 996 q 626 969 627 969 l 624 969 q 575 985 618 969 q 496 1000 532 1000 q 444 975 471 1000 q 416 928 416 951 q 423 913 416 920 q 439 906 430 906 l 444 906 q 467 917 458 906 q 475 941 475 927 q 469 955 475 949 q 455 962 463 962 q 467 971 456 967 q 484 975 476 975 q 540 962 508 975 l 553 957 l 566 951 q 591 943 581 945 q 568 919 587 937 l 561 911 l 553 905 q 542 892 546 897 l 536 886 l 530 880 l 518 866 q 408 729 505 850 l 401 729 q 349 713 374 729 q 321 671 321 696 q 351 656 321 656 q 425 688 378 656 q 536 644 509 644 q 576 661 557 644 q 596 698 596 678 q 570 725 596 725 q 547 717 558 725 q 536 695 536 707 q 541 679 536 684 q 554 668 543 676 l 552 668 l 550 667 q 546 667 548 667 l 545 667 q 495 688 530 667 q 455 713 461 709 l 628 928 m 511 1101 q 708 1019 627 1101 q 790 822 790 937 q 708 625 790 706 q 511 543 627 543 q 314 625 395 543 q 232 822 232 706 q 314 1019 232 937 q 511 1101 395 1101 m 511 1133 q 292 1042 382 1133 q 200 822 200 950 q 292 602 200 693 q 511 511 382 511 q 730 602 640 511 q 822 822 822 693 q 730 1042 822 950 q 511 1133 640 1133 m 119 294 q 136 312 136 294 q 119 329 136 329 l 102 329 l 102 294 l 119 294 m 68 226 l 68 363 l 119 363 q 171 312 171 363 q 119 260 171 260 l 102 260 l 102 226 l 68 226 m 263 363 l 263 329 l 212 329 l 212 312 l 263 312 l 263 277 l 212 277 l 212 260 l 263 260 l 263 226 l 177 226 l 177 363 l 263 363 m 313 294 l 330 294 q 347 312 347 294 q 330 329 347 329 l 313 329 l 313 294 m 382 312 q 357 267 382 280 l 382 226 l 339 226 l 319 260 l 313 260 l 313 226 l 279 226 l 279 363 l 330 363 q 382 312 382 363 m 439 283 q 388 321 388 283 q 441 368 388 368 q 500 347 477 368 l 482 321 q 443 335 467 335 q 422 321 422 335 q 461 309 422 309 q 500 270 500 309 q 446 226 500 226 q 388 244 406 226 l 406 270 q 444 256 420 256 q 465 270 465 256 q 439 283 465 283 m 541 294 q 576 260 541 260 q 610 294 610 260 q 576 329 610 329 q 541 294 541 329 m 644 294 q 576 226 644 226 q 507 294 507 226 q 576 363 507 363 q 644 294 644 363 m 772 363 l 772 226 l 738 226 l 686 303 l 686 226 l 652 226 l 652 363 l 686 363 l 738 286 l 738 363 l 772 363 m 835 260 l 863 260 l 849 303 l 835 260 m 867 363 l 918 226 l 875 226 l 872 235 l 827 235 l 823 226 l 781 226 l 832 363 l 867 363 m 959 363 l 959 260 l 1002 260 l 1002 226 l 924 226 l 924 363 l 959 363 m 180 189 l 180 -51 q 227 -94 180 -94 q 274 -51 274 -94 l 274 189 l 369 189 l 369 -51 q 227 -188 369 -188 q 85 -51 85 -188 l 85 189 l 180 189 m 574 -39 q 395 73 395 -39 q 541 201 395 201 q 701 144 638 201 l 654 73 q 541 115 624 115 q 489 73 489 115 q 573 39 489 39 q 701 -68 701 39 q 555 -188 701 -188 q 395 -139 444 -188 l 442 -68 q 540 -111 486 -111 q 607 -68 607 -111 q 574 -39 607 -39 m 971 189 l 971 95 l 830 95 l 830 48 l 971 48 l 971 -47 l 830 -47 l 830 -94 l 971 -94 l 971 -188 l 736 -188 l 736 189 l 971 189 z "},"5":{"ha":1069,"x_min":68,"x_max":1002,"o":"m 324 1175 q 452 1186 404 1175 l 460 1193 l 469 1200 q 503 1219 489 1217 q 558 1200 530 1219 l 572 1190 l 585 1181 q 653 1168 600 1171 q 700 1172 689 1172 q 724 1154 714 1168 q 741 1124 732 1145 l 743 1116 l 747 1107 q 754 1092 751 1099 q 805 1057 767 1073 q 833 1043 827 1046 q 863 973 863 1020 l 862 959 l 860 945 q 882 876 860 899 l 889 867 l 897 857 q 906 798 906 846 q 868 743 906 763 q 856 713 856 734 q 862 641 856 677 q 839 606 862 619 q 821 597 831 602 l 810 593 l 801 589 q 766 566 776 579 q 749 538 758 557 l 743 522 q 734 507 738 513 q 684 471 715 471 q 642 475 661 471 q 600 472 610 475 q 579 460 591 468 l 568 452 l 558 444 q 513 424 532 425 q 471 441 488 424 l 460 449 l 450 457 q 430 469 439 466 q 401 474 418 474 l 385 474 l 370 473 q 313 479 323 473 q 282 519 296 490 l 271 544 q 257 567 264 558 q 235 581 250 574 l 222 587 l 209 593 q 161 678 161 627 q 150 755 161 727 q 115 831 115 793 q 120 845 116 838 q 143 882 124 859 q 165 920 161 905 q 161 974 165 951 q 239 1067 162 1061 q 261 1084 253 1074 q 274 1105 269 1091 l 279 1116 q 324 1175 295 1165 m 373 686 q 387 702 374 689 l 391 701 l 373 686 m 422 699 q 469 677 433 696 q 528 656 505 658 q 591 685 566 656 q 537 650 569 650 q 422 699 503 652 m 347 677 q 358 696 347 688 q 382 703 368 703 q 366 688 378 697 q 347 677 353 677 m 411 728 q 570 916 565 912 q 495 821 570 914 q 416 728 420 728 l 411 728 m 551 961 q 534 967 551 961 q 509 975 516 974 q 565 960 517 975 q 639 945 614 945 q 667 956 648 945 q 675 959 672 958 q 656 946 670 952 q 631 939 643 939 q 598 945 616 939 q 551 961 586 948 m 628 928 q 637 936 632 934 q 701 985 701 960 q 695 996 701 992 q 633 972 680 996 q 626 969 627 969 l 624 969 q 575 985 618 969 q 496 1000 532 1000 q 444 975 471 1000 q 416 928 416 951 q 423 913 416 920 q 439 906 430 906 l 444 906 q 467 917 458 906 q 475 941 475 927 q 469 955 475 949 q 455 962 463 962 q 467 971 456 967 q 484 975 476 975 q 540 962 508 975 l 553 957 l 566 951 q 591 943 581 945 q 568 919 587 937 l 561 911 l 553 905 q 542 892 546 897 l 536 886 l 530 880 l 518 866 q 408 729 505 850 l 401 729 q 349 713 374 729 q 321 671 321 696 q 351 656 321 656 q 425 688 378 656 q 536 644 509 644 q 576 661 557 644 q 596 698 596 678 q 570 725 596 725 q 547 717 558 725 q 536 695 536 707 q 541 679 536 684 q 554 668 543 676 l 552 668 l 550 667 q 546 667 548 667 l 545 667 q 495 688 530 667 q 455 713 461 709 l 628 928 m 511 1101 q 708 1019 627 1101 q 790 822 790 937 q 708 625 790 706 q 511 543 627 543 q 314 625 395 543 q 232 822 232 706 q 314 1019 232 937 q 511 1101 395 1101 m 511 1133 q 292 1042 382 1133 q 200 822 200 950 q 292 602 200 693 q 511 511 382 511 q 730 602 640 511 q 822 822 822 693 q 730 1042 822 950 q 511 1133 640 1133 m 119 294 q 136 312 136 294 q 119 329 136 329 l 102 329 l 102 294 l 119 294 m 68 226 l 68 363 l 119 363 q 171 312 171 363 q 119 260 171 260 l 102 260 l 102 226 l 68 226 m 263 363 l 263 329 l 212 329 l 212 312 l 263 312 l 263 277 l 212 277 l 212 260 l 263 260 l 263 226 l 177 226 l 177 363 l 263 363 m 313 294 l 330 294 q 347 312 347 294 q 330 329 347 329 l 313 329 l 313 294 m 382 312 q 357 267 382 280 l 382 226 l 339 226 l 319 260 l 313 260 l 313 226 l 279 226 l 279 363 l 330 363 q 382 312 382 363 m 439 283 q 388 321 388 283 q 441 368 388 368 q 500 347 477 368 l 482 321 q 443 335 467 335 q 422 321 422 335 q 461 309 422 309 q 500 270 500 309 q 446 226 500 226 q 388 244 406 226 l 406 270 q 444 256 420 256 q 465 270 465 256 q 439 283 465 283 m 541 294 q 576 260 541 260 q 610 294 610 260 q 576 329 610 329 q 541 294 541 329 m 644 294 q 576 226 644 226 q 507 294 507 226 q 576 363 507 363 q 644 294 644 363 m 772 363 l 772 226 l 738 226 l 686 303 l 686 226 l 652 226 l 652 363 l 686 363 l 738 286 l 738 363 l 772 363 m 835 260 l 863 260 l 849 303 l 835 260 m 867 363 l 918 226 l 875 226 l 872 235 l 827 235 l 823 226 l 781 226 l 832 363 l 867 363 m 959 363 l 959 260 l 1002 260 l 1002 226 l 924 226 l 924 363 l 959 363 m 180 189 l 180 -51 q 227 -94 180 -94 q 274 -51 274 -94 l 274 189 l 369 189 l 369 -51 q 227 -188 369 -188 q 85 -51 85 -188 l 85 189 l 180 189 m 574 -39 q 395 73 395 -39 q 541 201 395 201 q 701 144 638 201 l 654 73 q 541 115 624 115 q 489 73 489 115 q 573 39 489 39 q 701 -68 701 39 q 555 -188 701 -188 q 395 -139 444 -188 l 442 -68 q 540 -111 486 -111 q 607 -68 607 -111 q 574 -39 607 -39 m 971 189 l 971 95 l 830 95 l 830 48 l 971 48 l 971 -47 l 830 -47 l 830 -94 l 971 -94 l 971 -188 l 736 -188 l 736 189 l 971 189 z "},"6":{"ha":1069,"x_min":68,"x_max":1002,"o":"m 324 1175 q 452 1186 404 1175 l 460 1193 l 469 1200 q 503 1219 489 1217 q 558 1200 530 1219 l 572 1190 l 585 1181 q 653 1168 600 1171 q 700 1172 689 1172 q 724 1154 714 1168 q 741 1124 732 1145 l 743 1116 l 747 1107 q 754 1092 751 1099 q 805 1057 767 1073 q 833 1043 827 1046 q 863 973 863 1020 l 862 959 l 860 945 q 882 876 860 899 l 889 867 l 897 857 q 906 798 906 846 q 868 743 906 763 q 856 713 856 734 q 862 641 856 677 q 839 606 862 619 q 821 597 831 602 l 810 593 l 801 589 q 766 566 776 579 q 749 538 758 557 l 743 522 q 734 507 738 513 q 684 471 715 471 q 642 475 661 471 q 600 472 610 475 q 579 460 591 468 l 568 452 l 558 444 q 513 424 532 425 q 471 441 488 424 l 460 449 l 450 457 q 430 469 439 466 q 401 474 418 474 l 385 474 l 370 473 q 313 479 323 473 q 282 519 296 490 l 271 544 q 257 567 264 558 q 235 581 250 574 l 222 587 l 209 593 q 161 678 161 627 q 150 755 161 727 q 115 831 115 793 q 120 845 116 838 q 143 882 124 859 q 165 920 161 905 q 161 974 165 951 q 239 1067 162 1061 q 261 1084 253 1074 q 274 1105 269 1091 l 279 1116 q 324 1175 295 1165 m 373 686 q 387 702 374 689 l 391 701 l 373 686 m 422 699 q 469 677 433 696 q 528 656 505 658 q 591 685 566 656 q 537 650 569 650 q 422 699 503 652 m 347 677 q 358 696 347 688 q 382 703 368 703 q 366 688 378 697 q 347 677 353 677 m 411 728 q 570 916 565 912 q 495 821 570 914 q 416 728 420 728 l 411 728 m 551 961 q 534 967 551 961 q 509 975 516 974 q 565 960 517 975 q 639 945 614 945 q 667 956 648 945 q 675 959 672 958 q 656 946 670 952 q 631 939 643 939 q 598 945 616 939 q 551 961 586 948 m 628 928 q 637 936 632 934 q 701 985 701 960 q 695 996 701 992 q 633 972 680 996 q 626 969 627 969 l 624 969 q 575 985 618 969 q 496 1000 532 1000 q 444 975 471 1000 q 416 928 416 951 q 423 913 416 920 q 439 906 430 906 l 444 906 q 467 917 458 906 q 475 941 475 927 q 469 955 475 949 q 455 962 463 962 q 467 971 456 967 q 484 975 476 975 q 540 962 508 975 l 553 957 l 566 951 q 591 943 581 945 q 568 919 587 937 l 561 911 l 553 905 q 542 892 546 897 l 536 886 l 530 880 l 518 866 q 408 729 505 850 l 401 729 q 349 713 374 729 q 321 671 321 696 q 351 656 321 656 q 425 688 378 656 q 536 644 509 644 q 576 661 557 644 q 596 698 596 678 q 570 725 596 725 q 547 717 558 725 q 536 695 536 707 q 541 679 536 684 q 554 668 543 676 l 552 668 l 550 667 q 546 667 548 667 l 545 667 q 495 688 530 667 q 455 713 461 709 l 628 928 m 511 1101 q 708 1019 627 1101 q 790 822 790 937 q 708 625 790 706 q 511 543 627 543 q 314 625 395 543 q 232 822 232 706 q 314 1019 232 937 q 511 1101 395 1101 m 511 1133 q 292 1042 382 1133 q 200 822 200 950 q 292 602 200 693 q 511 511 382 511 q 730 602 640 511 q 822 822 822 693 q 730 1042 822 950 q 511 1133 640 1133 m 119 294 q 136 312 136 294 q 119 329 136 329 l 102 329 l 102 294 l 119 294 m 68 226 l 68 363 l 119 363 q 171 312 171 363 q 119 260 171 260 l 102 260 l 102 226 l 68 226 m 263 363 l 263 329 l 212 329 l 212 312 l 263 312 l 263 277 l 212 277 l 212 260 l 263 260 l 263 226 l 177 226 l 177 363 l 263 363 m 313 294 l 330 294 q 347 312 347 294 q 330 329 347 329 l 313 329 l 313 294 m 382 312 q 357 267 382 280 l 382 226 l 339 226 l 319 260 l 313 260 l 313 226 l 279 226 l 279 363 l 330 363 q 382 312 382 363 m 439 283 q 388 321 388 283 q 441 368 388 368 q 500 347 477 368 l 482 321 q 443 335 467 335 q 422 321 422 335 q 461 309 422 309 q 500 270 500 309 q 446 226 500 226 q 388 244 406 226 l 406 270 q 444 256 420 256 q 465 270 465 256 q 439 283 465 283 m 541 294 q 576 260 541 260 q 610 294 610 260 q 576 329 610 329 q 541 294 541 329 m 644 294 q 576 226 644 226 q 507 294 507 226 q 576 363 507 363 q 644 294 644 363 m 772 363 l 772 226 l 738 226 l 686 303 l 686 226 l 652 226 l 652 363 l 686 363 l 738 286 l 738 363 l 772 363 m 835 260 l 863 260 l 849 303 l 835 260 m 867 363 l 918 226 l 875 226 l 872 235 l 827 235 l 823 226 l 781 226 l 832 363 l 867 363 m 959 363 l 959 260 l 1002 260 l 1002 226 l 924 226 l 924 363 l 959 363 m 180 189 l 180 -51 q 227 -94 180 -94 q 274 -51 274 -94 l 274 189 l 369 189 l 369 -51 q 227 -188 369 -188 q 85 -51 85 -188 l 85 189 l 180 189 m 574 -39 q 395 73 395 -39 q 541 201 395 201 q 701 144 638 201 l 654 73 q 541 115 624 115 q 489 73 489 115 q 573 39 489 39 q 701 -68 701 39 q 555 -188 701 -188 q 395 -139 444 -188 l 442 -68 q 540 -111 486 -111 q 607 -68 607 -111 q 574 -39 607 -39 m 971 189 l 971 95 l 830 95 l 830 48 l 971 48 l 971 -47 l 830 -47 l 830 -94 l 971 -94 l 971 -188 l 736 -188 l 736 189 l 971 189 z "},"7":{"ha":1069,"x_min":68,"x_max":1002,"o":"m 324 1175 q 452 1186 404 1175 l 460 1193 l 469 1200 q 503 1219 489 1217 q 558 1200 530 1219 l 572 1190 l 585 1181 q 653 1168 600 1171 q 700 1172 689 1172 q 724 1154 714 1168 q 741 1124 732 1145 l 743 1116 l 747 1107 q 754 1092 751 1099 q 805 1057 767 1073 q 833 1043 827 1046 q 863 973 863 1020 l 862 959 l 860 945 q 882 876 860 899 l 889 867 l 897 857 q 906 798 906 846 q 868 743 906 763 q 856 713 856 734 q 862 641 856 677 q 839 606 862 619 q 821 597 831 602 l 810 593 l 801 589 q 766 566 776 579 q 749 538 758 557 l 743 522 q 734 507 738 513 q 684 471 715 471 q 642 475 661 471 q 600 472 610 475 q 579 460 591 468 l 568 452 l 558 444 q 513 424 532 425 q 471 441 488 424 l 460 449 l 450 457 q 430 469 439 466 q 401 474 418 474 l 385 474 l 370 473 q 313 479 323 473 q 282 519 296 490 l 271 544 q 257 567 264 558 q 235 581 250 574 l 222 587 l 209 593 q 161 678 161 627 q 150 755 161 727 q 115 831 115 793 q 120 845 116 838 q 143 882 124 859 q 165 920 161 905 q 161 974 165 951 q 239 1067 162 1061 q 261 1084 253 1074 q 274 1105 269 1091 l 279 1116 q 324 1175 295 1165 m 373 686 q 387 702 374 689 l 391 701 l 373 686 m 422 699 q 469 677 433 696 q 528 656 505 658 q 591 685 566 656 q 537 650 569 650 q 422 699 503 652 m 347 677 q 358 696 347 688 q 382 703 368 703 q 366 688 378 697 q 347 677 353 677 m 411 728 q 570 916 565 912 q 495 821 570 914 q 416 728 420 728 l 411 728 m 551 961 q 534 967 551 961 q 509 975 516 974 q 565 960 517 975 q 639 945 614 945 q 667 956 648 945 q 675 959 672 958 q 656 946 670 952 q 631 939 643 939 q 598 945 616 939 q 551 961 586 948 m 628 928 q 637 936 632 934 q 701 985 701 960 q 695 996 701 992 q 633 972 680 996 q 626 969 627 969 l 624 969 q 575 985 618 969 q 496 1000 532 1000 q 444 975 471 1000 q 416 928 416 951 q 423 913 416 920 q 439 906 430 906 l 444 906 q 467 917 458 906 q 475 941 475 927 q 469 955 475 949 q 455 962 463 962 q 467 971 456 967 q 484 975 476 975 q 540 962 508 975 l 553 957 l 566 951 q 591 943 581 945 q 568 919 587 937 l 561 911 l 553 905 q 542 892 546 897 l 536 886 l 530 880 l 518 866 q 408 729 505 850 l 401 729 q 349 713 374 729 q 321 671 321 696 q 351 656 321 656 q 425 688 378 656 q 536 644 509 644 q 576 661 557 644 q 596 698 596 678 q 570 725 596 725 q 547 717 558 725 q 536 695 536 707 q 541 679 536 684 q 554 668 543 676 l 552 668 l 550 667 q 546 667 548 667 l 545 667 q 495 688 530 667 q 455 713 461 709 l 628 928 m 511 1101 q 708 1019 627 1101 q 790 822 790 937 q 708 625 790 706 q 511 543 627 543 q 314 625 395 543 q 232 822 232 706 q 314 1019 232 937 q 511 1101 395 1101 m 511 1133 q 292 1042 382 1133 q 200 822 200 950 q 292 602 200 693 q 511 511 382 511 q 730 602 640 511 q 822 822 822 693 q 730 1042 822 950 q 511 1133 640 1133 m 119 294 q 136 312 136 294 q 119 329 136 329 l 102 329 l 102 294 l 119 294 m 68 226 l 68 363 l 119 363 q 171 312 171 363 q 119 260 171 260 l 102 260 l 102 226 l 68 226 m 263 363 l 263 329 l 212 329 l 212 312 l 263 312 l 263 277 l 212 277 l 212 260 l 263 260 l 263 226 l 177 226 l 177 363 l 263 363 m 313 294 l 330 294 q 347 312 347 294 q 330 329 347 329 l 313 329 l 313 294 m 382 312 q 357 267 382 280 l 382 226 l 339 226 l 319 260 l 313 260 l 313 226 l 279 226 l 279 363 l 330 363 q 382 312 382 363 m 439 283 q 388 321 388 283 q 441 368 388 368 q 500 347 477 368 l 482 321 q 443 335 467 335 q 422 321 422 335 q 461 309 422 309 q 500 270 500 309 q 446 226 500 226 q 388 244 406 226 l 406 270 q 444 256 420 256 q 465 270 465 256 q 439 283 465 283 m 541 294 q 576 260 541 260 q 610 294 610 260 q 576 329 610 329 q 541 294 541 329 m 644 294 q 576 226 644 226 q 507 294 507 226 q 576 363 507 363 q 644 294 644 363 m 772 363 l 772 226 l 738 226 l 686 303 l 686 226 l 652 226 l 652 363 l 686 363 l 738 286 l 738 363 l 772 363 m 835 260 l 863 260 l 849 303 l 835 260 m 867 363 l 918 226 l 875 226 l 872 235 l 827 235 l 823 226 l 781 226 l 832 363 l 867 363 m 959 363 l 959 260 l 1002 260 l 1002 226 l 924 226 l 924 363 l 959 363 m 180 189 l 180 -51 q 227 -94 180 -94 q 274 -51 274 -94 l 274 189 l 369 189 l 369 -51 q 227 -188 369 -188 q 85 -51 85 -188 l 85 189 l 180 189 m 574 -39 q 395 73 395 -39 q 541 201 395 201 q 701 144 638 201 l 654 73 q 541 115 624 115 q 489 73 489 115 q 573 39 489 39 q 701 -68 701 39 q 555 -188 701 -188 q 395 -139 444 -188 l 442 -68 q 540 -111 486 -111 q 607 -68 607 -111 q 574 -39 607 -39 m 971 189 l 971 95 l 830 95 l 830 48 l 971 48 l 971 -47 l 830 -47 l 830 -94 l 971 -94 l 971 -188 l 736 -188 l 736 189 l 971 189 z "},"8":{"ha":1069,"x_min":68,"x_max":1002,"o":"m 324 1175 q 452 1186 404 1175 l 460 1193 l 469 1200 q 503 1219 489 1217 q 558 1200 530 1219 l 572 1190 l 585 1181 q 653 1168 600 1171 q 700 1172 689 1172 q 724 1154 714 1168 q 741 1124 732 1145 l 743 1116 l 747 1107 q 754 1092 751 1099 q 805 1057 767 1073 q 833 1043 827 1046 q 863 973 863 1020 l 862 959 l 860 945 q 882 876 860 899 l 889 867 l 897 857 q 906 798 906 846 q 868 743 906 763 q 856 713 856 734 q 862 641 856 677 q 839 606 862 619 q 821 597 831 602 l 810 593 l 801 589 q 766 566 776 579 q 749 538 758 557 l 743 522 q 734 507 738 513 q 684 471 715 471 q 642 475 661 471 q 600 472 610 475 q 579 460 591 468 l 568 452 l 558 444 q 513 424 532 425 q 471 441 488 424 l 460 449 l 450 457 q 430 469 439 466 q 401 474 418 474 l 385 474 l 370 473 q 313 479 323 473 q 282 519 296 490 l 271 544 q 257 567 264 558 q 235 581 250 574 l 222 587 l 209 593 q 161 678 161 627 q 150 755 161 727 q 115 831 115 793 q 120 845 116 838 q 143 882 124 859 q 165 920 161 905 q 161 974 165 951 q 239 1067 162 1061 q 261 1084 253 1074 q 274 1105 269 1091 l 279 1116 q 324 1175 295 1165 m 373 686 q 387 702 374 689 l 391 701 l 373 686 m 422 699 q 469 677 433 696 q 528 656 505 658 q 591 685 566 656 q 537 650 569 650 q 422 699 503 652 m 347 677 q 358 696 347 688 q 382 703 368 703 q 366 688 378 697 q 347 677 353 677 m 411 728 q 570 916 565 912 q 495 821 570 914 q 416 728 420 728 l 411 728 m 551 961 q 534 967 551 961 q 509 975 516 974 q 565 960 517 975 q 639 945 614 945 q 667 956 648 945 q 675 959 672 958 q 656 946 670 952 q 631 939 643 939 q 598 945 616 939 q 551 961 586 948 m 628 928 q 637 936 632 934 q 701 985 701 960 q 695 996 701 992 q 633 972 680 996 q 626 969 627 969 l 624 969 q 575 985 618 969 q 496 1000 532 1000 q 444 975 471 1000 q 416 928 416 951 q 423 913 416 920 q 439 906 430 906 l 444 906 q 467 917 458 906 q 475 941 475 927 q 469 955 475 949 q 455 962 463 962 q 467 971 456 967 q 484 975 476 975 q 540 962 508 975 l 553 957 l 566 951 q 591 943 581 945 q 568 919 587 937 l 561 911 l 553 905 q 542 892 546 897 l 536 886 l 530 880 l 518 866 q 408 729 505 850 l 401 729 q 349 713 374 729 q 321 671 321 696 q 351 656 321 656 q 425 688 378 656 q 536 644 509 644 q 576 661 557 644 q 596 698 596 678 q 570 725 596 725 q 547 717 558 725 q 536 695 536 707 q 541 679 536 684 q 554 668 543 676 l 552 668 l 550 667 q 546 667 548 667 l 545 667 q 495 688 530 667 q 455 713 461 709 l 628 928 m 511 1101 q 708 1019 627 1101 q 790 822 790 937 q 708 625 790 706 q 511 543 627 543 q 314 625 395 543 q 232 822 232 706 q 314 1019 232 937 q 511 1101 395 1101 m 511 1133 q 292 1042 382 1133 q 200 822 200 950 q 292 602 200 693 q 511 511 382 511 q 730 602 640 511 q 822 822 822 693 q 730 1042 822 950 q 511 1133 640 1133 m 119 294 q 136 312 136 294 q 119 329 136 329 l 102 329 l 102 294 l 119 294 m 68 226 l 68 363 l 119 363 q 171 312 171 363 q 119 260 171 260 l 102 260 l 102 226 l 68 226 m 263 363 l 263 329 l 212 329 l 212 312 l 263 312 l 263 277 l 212 277 l 212 260 l 263 260 l 263 226 l 177 226 l 177 363 l 263 363 m 313 294 l 330 294 q 347 312 347 294 q 330 329 347 329 l 313 329 l 313 294 m 382 312 q 357 267 382 280 l 382 226 l 339 226 l 319 260 l 313 260 l 313 226 l 279 226 l 279 363 l 330 363 q 382 312 382 363 m 439 283 q 388 321 388 283 q 441 368 388 368 q 500 347 477 368 l 482 321 q 443 335 467 335 q 422 321 422 335 q 461 309 422 309 q 500 270 500 309 q 446 226 500 226 q 388 244 406 226 l 406 270 q 444 256 420 256 q 465 270 465 256 q 439 283 465 283 m 541 294 q 576 260 541 260 q 610 294 610 260 q 576 329 610 329 q 541 294 541 329 m 644 294 q 576 226 644 226 q 507 294 507 226 q 576 363 507 363 q 644 294 644 363 m 772 363 l 772 226 l 738 226 l 686 303 l 686 226 l 652 226 l 652 363 l 686 363 l 738 286 l 738 363 l 772 363 m 835 260 l 863 260 l 849 303 l 835 260 m 867 363 l 918 226 l 875 226 l 872 235 l 827 235 l 823 226 l 781 226 l 832 363 l 867 363 m 959 363 l 959 260 l 1002 260 l 1002 226 l 924 226 l 924 363 l 959 363 m 180 189 l 180 -51 q 227 -94 180 -94 q 274 -51 274 -94 l 274 189 l 369 189 l 369 -51 q 227 -188 369 -188 q 85 -51 85 -188 l 85 189 l 180 189 m 574 -39 q 395 73 395 -39 q 541 201 395 201 q 701 144 638 201 l 654 73 q 541 115 624 115 q 489 73 489 115 q 573 39 489 39 q 701 -68 701 39 q 555 -188 701 -188 q 395 -139 444 -188 l 442 -68 q 540 -111 486 -111 q 607 -68 607 -111 q 574 -39 607 -39 m 971 189 l 971 95 l 830 95 l 830 48 l 971 48 l 971 -47 l 830 -47 l 830 -94 l 971 -94 l 971 -188 l 736 -188 l 736 189 l 971 189 z "},"9":{"ha":1069,"x_min":68,"x_max":1002,"o":"m 324 1175 q 452 1186 404 1175 l 460 1193 l 469 1200 q 503 1219 489 1217 q 558 1200 530 1219 l 572 1190 l 585 1181 q 653 1168 600 1171 q 700 1172 689 1172 q 724 1154 714 1168 q 741 1124 732 1145 l 743 1116 l 747 1107 q 754 1092 751 1099 q 805 1057 767 1073 q 833 1043 827 1046 q 863 973 863 1020 l 862 959 l 860 945 q 882 876 860 899 l 889 867 l 897 857 q 906 798 906 846 q 868 743 906 763 q 856 713 856 734 q 862 641 856 677 q 839 606 862 619 q 821 597 831 602 l 810 593 l 801 589 q 766 566 776 579 q 749 538 758 557 l 743 522 q 734 507 738 513 q 684 471 715 471 q 642 475 661 471 q 600 472 610 475 q 579 460 591 468 l 568 452 l 558 444 q 513 424 532 425 q 471 441 488 424 l 460 449 l 450 457 q 430 469 439 466 q 401 474 418 474 l 385 474 l 370 473 q 313 479 323 473 q 282 519 296 490 l 271 544 q 257 567 264 558 q 235 581 250 574 l 222 587 l 209 593 q 161 678 161 627 q 150 755 161 727 q 115 831 115 793 q 120 845 116 838 q 143 882 124 859 q 165 920 161 905 q 161 974 165 951 q 239 1067 162 1061 q 261 1084 253 1074 q 274 1105 269 1091 l 279 1116 q 324 1175 295 1165 m 373 686 q 387 702 374 689 l 391 701 l 373 686 m 422 699 q 469 677 433 696 q 528 656 505 658 q 591 685 566 656 q 537 650 569 650 q 422 699 503 652 m 347 677 q 358 696 347 688 q 382 703 368 703 q 366 688 378 697 q 347 677 353 677 m 411 728 q 570 916 565 912 q 495 821 570 914 q 416 728 420 728 l 411 728 m 551 961 q 534 967 551 961 q 509 975 516 974 q 565 960 517 975 q 639 945 614 945 q 667 956 648 945 q 675 959 672 958 q 656 946 670 952 q 631 939 643 939 q 598 945 616 939 q 551 961 586 948 m 628 928 q 637 936 632 934 q 701 985 701 960 q 695 996 701 992 q 633 972 680 996 q 626 969 627 969 l 624 969 q 575 985 618 969 q 496 1000 532 1000 q 444 975 471 1000 q 416 928 416 951 q 423 913 416 920 q 439 906 430 906 l 444 906 q 467 917 458 906 q 475 941 475 927 q 469 955 475 949 q 455 962 463 962 q 467 971 456 967 q 484 975 476 975 q 540 962 508 975 l 553 957 l 566 951 q 591 943 581 945 q 568 919 587 937 l 561 911 l 553 905 q 542 892 546 897 l 536 886 l 530 880 l 518 866 q 408 729 505 850 l 401 729 q 349 713 374 729 q 321 671 321 696 q 351 656 321 656 q 425 688 378 656 q 536 644 509 644 q 576 661 557 644 q 596 698 596 678 q 570 725 596 725 q 547 717 558 725 q 536 695 536 707 q 541 679 536 684 q 554 668 543 676 l 552 668 l 550 667 q 546 667 548 667 l 545 667 q 495 688 530 667 q 455 713 461 709 l 628 928 m 511 1101 q 708 1019 627 1101 q 790 822 790 937 q 708 625 790 706 q 511 543 627 543 q 314 625 395 543 q 232 822 232 706 q 314 1019 232 937 q 511 1101 395 1101 m 511 1133 q 292 1042 382 1133 q 200 822 200 950 q 292 602 200 693 q 511 511 382 511 q 730 602 640 511 q 822 822 822 693 q 730 1042 822 950 q 511 1133 640 1133 m 119 294 q 136 312 136 294 q 119 329 136 329 l 102 329 l 102 294 l 119 294 m 68 226 l 68 363 l 119 363 q 171 312 171 363 q 119 260 171 260 l 102 260 l 102 226 l 68 226 m 263 363 l 263 329 l 212 329 l 212 312 l 263 312 l 263 277 l 212 277 l 212 260 l 263 260 l 263 226 l 177 226 l 177 363 l 263 363 m 313 294 l 330 294 q 347 312 347 294 q 330 329 347 329 l 313 329 l 313 294 m 382 312 q 357 267 382 280 l 382 226 l 339 226 l 319 260 l 313 260 l 313 226 l 279 226 l 279 363 l 330 363 q 382 312 382 363 m 439 283 q 388 321 388 283 q 441 368 388 368 q 500 347 477 368 l 482 321 q 443 335 467 335 q 422 321 422 335 q 461 309 422 309 q 500 270 500 309 q 446 226 500 226 q 388 244 406 226 l 406 270 q 444 256 420 256 q 465 270 465 256 q 439 283 465 283 m 541 294 q 576 260 541 260 q 610 294 610 260 q 576 329 610 329 q 541 294 541 329 m 644 294 q 576 226 644 226 q 507 294 507 226 q 576 363 507 363 q 644 294 644 363 m 772 363 l 772 226 l 738 226 l 686 303 l 686 226 l 652 226 l 652 363 l 686 363 l 738 286 l 738 363 l 772 363 m 835 260 l 863 260 l 849 303 l 835 260 m 867 363 l 918 226 l 875 226 l 872 235 l 827 235 l 823 226 l 781 226 l 832 363 l 867 363 m 959 363 l 959 260 l 1002 260 l 1002 226 l 924 226 l 924 363 l 959 363 m 180 189 l 180 -51 q 227 -94 180 -94 q 274 -51 274 -94 l 274 189 l 369 189 l 369 -51 q 227 -188 369 -188 q 85 -51 85 -188 l 85 189 l 180 189 m 574 -39 q 395 73 395 -39 q 541 201 395 201 q 701 144 638 201 l 654 73 q 541 115 624 115 q 489 73 489 115 q 573 39 489 39 q 701 -68 701 39 q 555 -188 701 -188 q 395 -139 444 -188 l 442 -68 q 540 -111 486 -111 q 607 -68 607 -111 q 574 -39 607 -39 m 971 189 l 971 95 l 830 95 l 830 48 l 971 48 l 971 -47 l 830 -47 l 830 -94 l 971 -94 l 971 -188 l 736 -188 l 736 189 l 971 189 z "},"\u0000":{"ha":1069,"x_min":68,"x_max":1002,"o":"m 324 1175 q 452 1186 404 1175 l 460 1193 l 469 1200 q 503 1219 489 1217 q 558 1200 530 1219 l 572 1190 l 585 1181 q 653 1168 600 1171 q 700 1172 689 1172 q 724 1154 714 1168 q 741 1124 732 1145 l 743 1116 l 747 1107 q 754 1092 751 1099 q 805 1057 767 1073 q 833 1043 827 1046 q 863 973 863 1020 l 862 959 l 860 945 q 882 876 860 899 l 889 867 l 897 857 q 906 798 906 846 q 868 743 906 763 q 856 713 856 734 q 862 641 856 677 q 839 606 862 619 q 821 597 831 602 l 810 593 l 801 589 q 766 566 776 579 q 749 538 758 557 l 743 522 q 734 507 738 513 q 684 471 715 471 q 642 475 661 471 q 600 472 610 475 q 579 460 591 468 l 568 452 l 558 444 q 513 424 532 425 q 471 441 488 424 l 460 449 l 450 457 q 430 469 439 466 q 401 474 418 474 l 385 474 l 370 473 q 313 479 323 473 q 282 519 296 490 l 271 544 q 257 567 264 558 q 235 581 250 574 l 222 587 l 209 593 q 161 678 161 627 q 150 755 161 727 q 115 831 115 793 q 120 845 116 838 q 143 882 124 859 q 165 920 161 905 q 161 974 165 951 q 239 1067 162 1061 q 261 1084 253 1074 q 274 1105 269 1091 l 279 1116 q 324 1175 295 1165 m 373 686 q 387 702 374 689 l 391 701 l 373 686 m 422 699 q 469 677 433 696 q 528 656 505 658 q 591 685 566 656 q 537 650 569 650 q 422 699 503 652 m 347 677 q 358 696 347 688 q 382 703 368 703 q 366 688 378 697 q 347 677 353 677 m 411 728 q 570 916 565 912 q 495 821 570 914 q 416 728 420 728 l 411 728 m 551 961 q 534 967 551 961 q 509 975 516 974 q 565 960 517 975 q 639 945 614 945 q 667 956 648 945 q 675 959 672 958 q 656 946 670 952 q 631 939 643 939 q 598 945 616 939 q 551 961 586 948 m 628 928 q 637 936 632 934 q 701 985 701 960 q 695 996 701 992 q 633 972 680 996 q 626 969 627 969 l 624 969 q 575 985 618 969 q 496 1000 532 1000 q 444 975 471 1000 q 416 928 416 951 q 423 913 416 920 q 439 906 430 906 l 444 906 q 467 917 458 906 q 475 941 475 927 q 469 955 475 949 q 455 962 463 962 q 467 971 456 967 q 484 975 476 975 q 540 962 508 975 l 553 957 l 566 951 q 591 943 581 945 q 568 919 587 937 l 561 911 l 553 905 q 542 892 546 897 l 536 886 l 530 880 l 518 866 q 408 729 505 850 l 401 729 q 349 713 374 729 q 321 671 321 696 q 351 656 321 656 q 425 688 378 656 q 536 644 509 644 q 576 661 557 644 q 596 698 596 678 q 570 725 596 725 q 547 717 558 725 q 536 695 536 707 q 541 679 536 684 q 554 668 543 676 l 552 668 l 550 667 q 546 667 548 667 l 545 667 q 495 688 530 667 q 455 713 461 709 l 628 928 m 511 1101 q 708 1019 627 1101 q 790 822 790 937 q 708 625 790 706 q 511 543 627 543 q 314 625 395 543 q 232 822 232 706 q 314 1019 232 937 q 511 1101 395 1101 m 511 1133 q 292 1042 382 1133 q 200 822 200 950 q 292 602 200 693 q 511 511 382 511 q 730 602 640 511 q 822 822 822 693 q 730 1042 822 950 q 511 1133 640 1133 m 119 294 q 136 312 136 294 q 119 329 136 329 l 102 329 l 102 294 l 119 294 m 68 226 l 68 363 l 119 363 q 171 312 171 363 q 119 260 171 260 l 102 260 l 102 226 l 68 226 m 263 363 l 263 329 l 212 329 l 212 312 l 263 312 l 263 277 l 212 277 l 212 260 l 263 260 l 263 226 l 177 226 l 177 363 l 263 363 m 313 294 l 330 294 q 347 312 347 294 q 330 329 347 329 l 313 329 l 313 294 m 382 312 q 357 267 382 280 l 382 226 l 339 226 l 319 260 l 313 260 l 313 226 l 279 226 l 279 363 l 330 363 q 382 312 382 363 m 439 283 q 388 321 388 283 q 441 368 388 368 q 500 347 477 368 l 482 321 q 443 335 467 335 q 422 321 422 335 q 461 309 422 309 q 500 270 500 309 q 446 226 500 226 q 388 244 406 226 l 406 270 q 444 256 420 256 q 465 270 465 256 q 439 283 465 283 m 541 294 q 576 260 541 260 q 610 294 610 260 q 576 329 610 329 q 541 294 541 329 m 644 294 q 576 226 644 226 q 507 294 507 226 q 576 363 507 363 q 644 294 644 363 m 772 363 l 772 226 l 738 226 l 686 303 l 686 226 l 652 226 l 652 363 l 686 363 l 738 286 l 738 363 l 772 363 m 835 260 l 863 260 l 849 303 l 835 260 m 867 363 l 918 226 l 875 226 l 872 235 l 827 235 l 823 226 l 781 226 l 832 363 l 867 363 m 959 363 l 959 260 l 1002 260 l 1002 226 l 924 226 l 924 363 l 959 363 m 180 189 l 180 -51 q 227 -94 180 -94 q 274 -51 274 -94 l 274 189 l 369 189 l 369 -51 q 227 -188 369 -188 q 85 -51 85 -188 l 85 189 l 180 189 m 574 -39 q 395 73 395 -39 q 541 201 395 201 q 701 144 638 201 l 654 73 q 541 115 624 115 q 489 73 489 115 q 573 39 489 39 q 701 -68 701 39 q 555 -188 701 -188 q 395 -139 444 -188 l 442 -68 q 540 -111 486 -111 q 607 -68 607 -111 q 574 -39 607 -39 m 971 189 l 971 95 l 830 95 l 830 48 l 971 48 l 971 -47 l 830 -47 l 830 -94 l 971 -94 l 971 -188 l 736 -188 l 736 189 l 971 189 z "},"\u001d":{"ha":1069,"x_min":68,"x_max":1002,"o":"m 324 1175 q 452 1186 404 1175 l 460 1193 l 469 1200 q 503 1219 489 1217 q 558 1200 530 1219 l 572 1190 l 585 1181 q 653 1168 600 1171 q 700 1172 689 1172 q 724 1154 714 1168 q 741 1124 732 1145 l 743 1116 l 747 1107 q 754 1092 751 1099 q 805 1057 767 1073 q 833 1043 827 1046 q 863 973 863 1020 l 862 959 l 860 945 q 882 876 860 899 l 889 867 l 897 857 q 906 798 906 846 q 868 743 906 763 q 856 713 856 734 q 862 641 856 677 q 839 606 862 619 q 821 597 831 602 l 810 593 l 801 589 q 766 566 776 579 q 749 538 758 557 l 743 522 q 734 507 738 513 q 684 471 715 471 q 642 475 661 471 q 600 472 610 475 q 579 460 591 468 l 568 452 l 558 444 q 513 424 532 425 q 471 441 488 424 l 460 449 l 450 457 q 430 469 439 466 q 401 474 418 474 l 385 474 l 370 473 q 313 479 323 473 q 282 519 296 490 l 271 544 q 257 567 264 558 q 235 581 250 574 l 222 587 l 209 593 q 161 678 161 627 q 150 755 161 727 q 115 831 115 793 q 120 845 116 838 q 143 882 124 859 q 165 920 161 905 q 161 974 165 951 q 239 1067 162 1061 q 261 1084 253 1074 q 274 1105 269 1091 l 279 1116 q 324 1175 295 1165 m 373 686 q 387 702 374 689 l 391 701 l 373 686 m 422 699 q 469 677 433 696 q 528 656 505 658 q 591 685 566 656 q 537 650 569 650 q 422 699 503 652 m 347 677 q 358 696 347 688 q 382 703 368 703 q 366 688 378 697 q 347 677 353 677 m 411 728 q 570 916 565 912 q 495 821 570 914 q 416 728 420 728 l 411 728 m 551 961 q 534 967 551 961 q 509 975 516 974 q 565 960 517 975 q 639 945 614 945 q 667 956 648 945 q 675 959 672 958 q 656 946 670 952 q 631 939 643 939 q 598 945 616 939 q 551 961 586 948 m 628 928 q 637 936 632 934 q 701 985 701 960 q 695 996 701 992 q 633 972 680 996 q 626 969 627 969 l 624 969 q 575 985 618 969 q 496 1000 532 1000 q 444 975 471 1000 q 416 928 416 951 q 423 913 416 920 q 439 906 430 906 l 444 906 q 467 917 458 906 q 475 941 475 927 q 469 955 475 949 q 455 962 463 962 q 467 971 456 967 q 484 975 476 975 q 540 962 508 975 l 553 957 l 566 951 q 591 943 581 945 q 568 919 587 937 l 561 911 l 553 905 q 542 892 546 897 l 536 886 l 530 880 l 518 866 q 408 729 505 850 l 401 729 q 349 713 374 729 q 321 671 321 696 q 351 656 321 656 q 425 688 378 656 q 536 644 509 644 q 576 661 557 644 q 596 698 596 678 q 570 725 596 725 q 547 717 558 725 q 536 695 536 707 q 541 679 536 684 q 554 668 543 676 l 552 668 l 550 667 q 546 667 548 667 l 545 667 q 495 688 530 667 q 455 713 461 709 l 628 928 m 511 1101 q 708 1019 627 1101 q 790 822 790 937 q 708 625 790 706 q 511 543 627 543 q 314 625 395 543 q 232 822 232 706 q 314 1019 232 937 q 511 1101 395 1101 m 511 1133 q 292 1042 382 1133 q 200 822 200 950 q 292 602 200 693 q 511 511 382 511 q 730 602 640 511 q 822 822 822 693 q 730 1042 822 950 q 511 1133 640 1133 m 119 294 q 136 312 136 294 q 119 329 136 329 l 102 329 l 102 294 l 119 294 m 68 226 l 68 363 l 119 363 q 171 312 171 363 q 119 260 171 260 l 102 260 l 102 226 l 68 226 m 263 363 l 263 329 l 212 329 l 212 312 l 263 312 l 263 277 l 212 277 l 212 260 l 263 260 l 263 226 l 177 226 l 177 363 l 263 363 m 313 294 l 330 294 q 347 312 347 294 q 330 329 347 329 l 313 329 l 313 294 m 382 312 q 357 267 382 280 l 382 226 l 339 226 l 319 260 l 313 260 l 313 226 l 279 226 l 279 363 l 330 363 q 382 312 382 363 m 439 283 q 388 321 388 283 q 441 368 388 368 q 500 347 477 368 l 482 321 q 443 335 467 335 q 422 321 422 335 q 461 309 422 309 q 500 270 500 309 q 446 226 500 226 q 388 244 406 226 l 406 270 q 444 256 420 256 q 465 270 465 256 q 439 283 465 283 m 541 294 q 576 260 541 260 q 610 294 610 260 q 576 329 610 329 q 541 294 541 329 m 644 294 q 576 226 644 226 q 507 294 507 226 q 576 363 507 363 q 644 294 644 363 m 772 363 l 772 226 l 738 226 l 686 303 l 686 226 l 652 226 l 652 363 l 686 363 l 738 286 l 738 363 l 772 363 m 835 260 l 863 260 l 849 303 l 835 260 m 867 363 l 918 226 l 875 226 l 872 235 l 827 235 l 823 226 l 781 226 l 832 363 l 867 363 m 959 363 l 959 260 l 1002 260 l 1002 226 l 924 226 l 924 363 l 959 363 m 180 189 l 180 -51 q 227 -94 180 -94 q 274 -51 274 -94 l 274 189 l 369 189 l 369 -51 q 227 -188 369 -188 q 85 -51 85 -188 l 85 189 l 180 189 m 574 -39 q 395 73 395 -39 q 541 201 395 201 q 701 144 638 201 l 654 73 q 541 115 624 115 q 489 73 489 115 q 573 39 489 39 q 701 -68 701 39 q 555 -188 701 -188 q 395 -139 444 -188 l 442 -68 q 540 -111 486 -111 q 607 -68 607 -111 q 574 -39 607 -39 m 971 189 l 971 95 l 830 95 l 830 48 l 971 48 l 971 -47 l 830 -47 l 830 -94 l 971 -94 l 971 -188 l 736 -188 l 736 189 l 971 189 z "}," ":{"ha":1069,"x_min":68,"x_max":1002,"o":"m 324 1175 q 452 1186 404 1175 l 460 1193 l 469 1200 q 503 1219 489 1217 q 558 1200 530 1219 l 572 1190 l 585 1181 q 653 1168 600 1171 q 700 1172 689 1172 q 724 1154 714 1168 q 741 1124 732 1145 l 743 1116 l 747 1107 q 754 1092 751 1099 q 805 1057 767 1073 q 833 1043 827 1046 q 863 973 863 1020 l 862 959 l 860 945 q 882 876 860 899 l 889 867 l 897 857 q 906 798 906 846 q 868 743 906 763 q 856 713 856 734 q 862 641 856 677 q 839 606 862 619 q 821 597 831 602 l 810 593 l 801 589 q 766 566 776 579 q 749 538 758 557 l 743 522 q 734 507 738 513 q 684 471 715 471 q 642 475 661 471 q 600 472 610 475 q 579 460 591 468 l 568 452 l 558 444 q 513 424 532 425 q 471 441 488 424 l 460 449 l 450 457 q 430 469 439 466 q 401 474 418 474 l 385 474 l 370 473 q 313 479 323 473 q 282 519 296 490 l 271 544 q 257 567 264 558 q 235 581 250 574 l 222 587 l 209 593 q 161 678 161 627 q 150 755 161 727 q 115 831 115 793 q 120 845 116 838 q 143 882 124 859 q 165 920 161 905 q 161 974 165 951 q 239 1067 162 1061 q 261 1084 253 1074 q 274 1105 269 1091 l 279 1116 q 324 1175 295 1165 m 373 686 q 387 702 374 689 l 391 701 l 373 686 m 422 699 q 469 677 433 696 q 528 656 505 658 q 591 685 566 656 q 537 650 569 650 q 422 699 503 652 m 347 677 q 358 696 347 688 q 382 703 368 703 q 366 688 378 697 q 347 677 353 677 m 411 728 q 570 916 565 912 q 495 821 570 914 q 416 728 420 728 l 411 728 m 551 961 q 534 967 551 961 q 509 975 516 974 q 565 960 517 975 q 639 945 614 945 q 667 956 648 945 q 675 959 672 958 q 656 946 670 952 q 631 939 643 939 q 598 945 616 939 q 551 961 586 948 m 628 928 q 637 936 632 934 q 701 985 701 960 q 695 996 701 992 q 633 972 680 996 q 626 969 627 969 l 624 969 q 575 985 618 969 q 496 1000 532 1000 q 444 975 471 1000 q 416 928 416 951 q 423 913 416 920 q 439 906 430 906 l 444 906 q 467 917 458 906 q 475 941 475 927 q 469 955 475 949 q 455 962 463 962 q 467 971 456 967 q 484 975 476 975 q 540 962 508 975 l 553 957 l 566 951 q 591 943 581 945 q 568 919 587 937 l 561 911 l 553 905 q 542 892 546 897 l 536 886 l 530 880 l 518 866 q 408 729 505 850 l 401 729 q 349 713 374 729 q 321 671 321 696 q 351 656 321 656 q 425 688 378 656 q 536 644 509 644 q 576 661 557 644 q 596 698 596 678 q 570 725 596 725 q 547 717 558 725 q 536 695 536 707 q 541 679 536 684 q 554 668 543 676 l 552 668 l 550 667 q 546 667 548 667 l 545 667 q 495 688 530 667 q 455 713 461 709 l 628 928 m 511 1101 q 708 1019 627 1101 q 790 822 790 937 q 708 625 790 706 q 511 543 627 543 q 314 625 395 543 q 232 822 232 706 q 314 1019 232 937 q 511 1101 395 1101 m 511 1133 q 292 1042 382 1133 q 200 822 200 950 q 292 602 200 693 q 511 511 382 511 q 730 602 640 511 q 822 822 822 693 q 730 1042 822 950 q 511 1133 640 1133 m 119 294 q 136 312 136 294 q 119 329 136 329 l 102 329 l 102 294 l 119 294 m 68 226 l 68 363 l 119 363 q 171 312 171 363 q 119 260 171 260 l 102 260 l 102 226 l 68 226 m 263 363 l 263 329 l 212 329 l 212 312 l 263 312 l 263 277 l 212 277 l 212 260 l 263 260 l 263 226 l 177 226 l 177 363 l 263 363 m 313 294 l 330 294 q 347 312 347 294 q 330 329 347 329 l 313 329 l 313 294 m 382 312 q 357 267 382 280 l 382 226 l 339 226 l 319 260 l 313 260 l 313 226 l 279 226 l 279 363 l 330 363 q 382 312 382 363 m 439 283 q 388 321 388 283 q 441 368 388 368 q 500 347 477 368 l 482 321 q 443 335 467 335 q 422 321 422 335 q 461 309 422 309 q 500 270 500 309 q 446 226 500 226 q 388 244 406 226 l 406 270 q 444 256 420 256 q 465 270 465 256 q 439 283 465 283 m 541 294 q 576 260 541 260 q 610 294 610 260 q 576 329 610 329 q 541 294 541 329 m 644 294 q 576 226 644 226 q 507 294 507 226 q 576 363 507 363 q 644 294 644 363 m 772 363 l 772 226 l 738 226 l 686 303 l 686 226 l 652 226 l 652 363 l 686 363 l 738 286 l 738 363 l 772 363 m 835 260 l 863 260 l 849 303 l 835 260 m 867 363 l 918 226 l 875 226 l 872 235 l 827 235 l 823 226 l 781 226 l 832 363 l 867 363 m 959 363 l 959 260 l 1002 260 l 1002 226 l 924 226 l 924 363 l 959 363 m 180 189 l 180 -51 q 227 -94 180 -94 q 274 -51 274 -94 l 274 189 l 369 189 l 369 -51 q 227 -188 369 -188 q 85 -51 85 -188 l 85 189 l 180 189 m 574 -39 q 395 73 395 -39 q 541 201 395 201 q 701 144 638 201 l 654 73 q 541 115 624 115 q 489 73 489 115 q 573 39 489 39 q 701 -68 701 39 q 555 -188 701 -188 q 395 -139 444 -188 l 442 -68 q 540 -111 486 -111 q 607 -68 607 -111 q 574 -39 607 -39 m 971 189 l 971 95 l 830 95 l 830 48 l 971 48 l 971 -47 l 830 -47 l 830 -94 l 971 -94 l 971 -188 l 736 -188 l 736 189 l 971 189 z "},"":{"ha":1069,"x_min":68,"x_max":1002,"o":"m 324 1175 q 452 1186 404 1175 l 460 1193 l 469 1200 q 503 1219 489 1217 q 558 1200 530 1219 l 572 1190 l 585 1181 q 653 1168 600 1171 q 700 1172 689 1172 q 724 1154 714 1168 q 741 1124 732 1145 l 743 1116 l 747 1107 q 754 1092 751 1099 q 805 1057 767 1073 q 833 1043 827 1046 q 863 973 863 1020 l 862 959 l 860 945 q 882 876 860 899 l 889 867 l 897 857 q 906 798 906 846 q 868 743 906 763 q 856 713 856 734 q 862 641 856 677 q 839 606 862 619 q 821 597 831 602 l 810 593 l 801 589 q 766 566 776 579 q 749 538 758 557 l 743 522 q 734 507 738 513 q 684 471 715 471 q 642 475 661 471 q 600 472 610 475 q 579 460 591 468 l 568 452 l 558 444 q 513 424 532 425 q 471 441 488 424 l 460 449 l 450 457 q 430 469 439 466 q 401 474 418 474 l 385 474 l 370 473 q 313 479 323 473 q 282 519 296 490 l 271 544 q 257 567 264 558 q 235 581 250 574 l 222 587 l 209 593 q 161 678 161 627 q 150 755 161 727 q 115 831 115 793 q 120 845 116 838 q 143 882 124 859 q 165 920 161 905 q 161 974 165 951 q 239 1067 162 1061 q 261 1084 253 1074 q 274 1105 269 1091 l 279 1116 q 324 1175 295 1165 m 373 686 q 387 702 374 689 l 391 701 l 373 686 m 422 699 q 469 677 433 696 q 528 656 505 658 q 591 685 566 656 q 537 650 569 650 q 422 699 503 652 m 347 677 q 358 696 347 688 q 382 703 368 703 q 366 688 378 697 q 347 677 353 677 m 411 728 q 570 916 565 912 q 495 821 570 914 q 416 728 420 728 l 411 728 m 551 961 q 534 967 551 961 q 509 975 516 974 q 565 960 517 975 q 639 945 614 945 q 667 956 648 945 q 675 959 672 958 q 656 946 670 952 q 631 939 643 939 q 598 945 616 939 q 551 961 586 948 m 628 928 q 637 936 632 934 q 701 985 701 960 q 695 996 701 992 q 633 972 680 996 q 626 969 627 969 l 624 969 q 575 985 618 969 q 496 1000 532 1000 q 444 975 471 1000 q 416 928 416 951 q 423 913 416 920 q 439 906 430 906 l 444 906 q 467 917 458 906 q 475 941 475 927 q 469 955 475 949 q 455 962 463 962 q 467 971 456 967 q 484 975 476 975 q 540 962 508 975 l 553 957 l 566 951 q 591 943 581 945 q 568 919 587 937 l 561 911 l 553 905 q 542 892 546 897 l 536 886 l 530 880 l 518 866 q 408 729 505 850 l 401 729 q 349 713 374 729 q 321 671 321 696 q 351 656 321 656 q 425 688 378 656 q 536 644 509 644 q 576 661 557 644 q 596 698 596 678 q 570 725 596 725 q 547 717 558 725 q 536 695 536 707 q 541 679 536 684 q 554 668 543 676 l 552 668 l 550 667 q 546 667 548 667 l 545 667 q 495 688 530 667 q 455 713 461 709 l 628 928 m 511 1101 q 708 1019 627 1101 q 790 822 790 937 q 708 625 790 706 q 511 543 627 543 q 314 625 395 543 q 232 822 232 706 q 314 1019 232 937 q 511 1101 395 1101 m 511 1133 q 292 1042 382 1133 q 200 822 200 950 q 292 602 200 693 q 511 511 382 511 q 730 602 640 511 q 822 822 822 693 q 730 1042 822 950 q 511 1133 640 1133 m 119 294 q 136 312 136 294 q 119 329 136 329 l 102 329 l 102 294 l 119 294 m 68 226 l 68 363 l 119 363 q 171 312 171 363 q 119 260 171 260 l 102 260 l 102 226 l 68 226 m 263 363 l 263 329 l 212 329 l 212 312 l 263 312 l 263 277 l 212 277 l 212 260 l 263 260 l 263 226 l 177 226 l 177 363 l 263 363 m 313 294 l 330 294 q 347 312 347 294 q 330 329 347 329 l 313 329 l 313 294 m 382 312 q 357 267 382 280 l 382 226 l 339 226 l 319 260 l 313 260 l 313 226 l 279 226 l 279 363 l 330 363 q 382 312 382 363 m 439 283 q 388 321 388 283 q 441 368 388 368 q 500 347 477 368 l 482 321 q 443 335 467 335 q 422 321 422 335 q 461 309 422 309 q 500 270 500 309 q 446 226 500 226 q 388 244 406 226 l 406 270 q 444 256 420 256 q 465 270 465 256 q 439 283 465 283 m 541 294 q 576 260 541 260 q 610 294 610 260 q 576 329 610 329 q 541 294 541 329 m 644 294 q 576 226 644 226 q 507 294 507 226 q 576 363 507 363 q 644 294 644 363 m 772 363 l 772 226 l 738 226 l 686 303 l 686 226 l 652 226 l 652 363 l 686 363 l 738 286 l 738 363 l 772 363 m 835 260 l 863 260 l 849 303 l 835 260 m 867 363 l 918 226 l 875 226 l 872 235 l 827 235 l 823 226 l 781 226 l 832 363 l 867 363 m 959 363 l 959 260 l 1002 260 l 1002 226 l 924 226 l 924 363 l 959 363 m 180 189 l 180 -51 q 227 -94 180 -94 q 274 -51 274 -94 l 274 189 l 369 189 l 369 -51 q 227 -188 369 -188 q 85 -51 85 -188 l 85 189 l 180 189 m 574 -39 q 395 73 395 -39 q 541 201 395 201 q 701 144 638 201 l 654 73 q 541 115 624 115 q 489 73 489 115 q 573 39 489 39 q 701 -68 701 39 q 555 -188 701 -188 q 395 -139 444 -188 l 442 -68 q 540 -111 486 -111 q 607 -68 607 -111 q 574 -39 607 -39 m 971 189 l 971 95 l 830 95 l 830 48 l 971 48 l 971 -47 l 830 -47 l 830 -94 l 971 -94 l 971 -188 l 736 -188 l 736 189 l 971 189 z "},"!":{"ha":1069,"x_min":68,"x_max":1002,"o":"m 324 1175 q 452 1186 404 1175 l 460 1193 l 469 1200 q 503 1219 489 1217 q 558 1200 530 1219 l 572 1190 l 585 1181 q 653 1168 600 1171 q 700 1172 689 1172 q 724 1154 714 1168 q 741 1124 732 1145 l 743 1116 l 747 1107 q 754 1092 751 1099 q 805 1057 767 1073 q 833 1043 827 1046 q 863 973 863 1020 l 862 959 l 860 945 q 882 876 860 899 l 889 867 l 897 857 q 906 798 906 846 q 868 743 906 763 q 856 713 856 734 q 862 641 856 677 q 839 606 862 619 q 821 597 831 602 l 810 593 l 801 589 q 766 566 776 579 q 749 538 758 557 l 743 522 q 734 507 738 513 q 684 471 715 471 q 642 475 661 471 q 600 472 610 475 q 579 460 591 468 l 568 452 l 558 444 q 513 424 532 425 q 471 441 488 424 l 460 449 l 450 457 q 430 469 439 466 q 401 474 418 474 l 385 474 l 370 473 q 313 479 323 473 q 282 519 296 490 l 271 544 q 257 567 264 558 q 235 581 250 574 l 222 587 l 209 593 q 161 678 161 627 q 150 755 161 727 q 115 831 115 793 q 120 845 116 838 q 143 882 124 859 q 165 920 161 905 q 161 974 165 951 q 239 1067 162 1061 q 261 1084 253 1074 q 274 1105 269 1091 l 279 1116 q 324 1175 295 1165 m 373 686 q 387 702 374 689 l 391 701 l 373 686 m 422 699 q 469 677 433 696 q 528 656 505 658 q 591 685 566 656 q 537 650 569 650 q 422 699 503 652 m 347 677 q 358 696 347 688 q 382 703 368 703 q 366 688 378 697 q 347 677 353 677 m 411 728 q 570 916 565 912 q 495 821 570 914 q 416 728 420 728 l 411 728 m 551 961 q 534 967 551 961 q 509 975 516 974 q 565 960 517 975 q 639 945 614 945 q 667 956 648 945 q 675 959 672 958 q 656 946 670 952 q 631 939 643 939 q 598 945 616 939 q 551 961 586 948 m 628 928 q 637 936 632 934 q 701 985 701 960 q 695 996 701 992 q 633 972 680 996 q 626 969 627 969 l 624 969 q 575 985 618 969 q 496 1000 532 1000 q 444 975 471 1000 q 416 928 416 951 q 423 913 416 920 q 439 906 430 906 l 444 906 q 467 917 458 906 q 475 941 475 927 q 469 955 475 949 q 455 962 463 962 q 467 971 456 967 q 484 975 476 975 q 540 962 508 975 l 553 957 l 566 951 q 591 943 581 945 q 568 919 587 937 l 561 911 l 553 905 q 542 892 546 897 l 536 886 l 530 880 l 518 866 q 408 729 505 850 l 401 729 q 349 713 374 729 q 321 671 321 696 q 351 656 321 656 q 425 688 378 656 q 536 644 509 644 q 576 661 557 644 q 596 698 596 678 q 570 725 596 725 q 547 717 558 725 q 536 695 536 707 q 541 679 536 684 q 554 668 543 676 l 552 668 l 550 667 q 546 667 548 667 l 545 667 q 495 688 530 667 q 455 713 461 709 l 628 928 m 511 1101 q 708 1019 627 1101 q 790 822 790 937 q 708 625 790 706 q 511 543 627 543 q 314 625 395 543 q 232 822 232 706 q 314 1019 232 937 q 511 1101 395 1101 m 511 1133 q 292 1042 382 1133 q 200 822 200 950 q 292 602 200 693 q 511 511 382 511 q 730 602 640 511 q 822 822 822 693 q 730 1042 822 950 q 511 1133 640 1133 m 119 294 q 136 312 136 294 q 119 329 136 329 l 102 329 l 102 294 l 119 294 m 68 226 l 68 363 l 119 363 q 171 312 171 363 q 119 260 171 260 l 102 260 l 102 226 l 68 226 m 263 363 l 263 329 l 212 329 l 212 312 l 263 312 l 263 277 l 212 277 l 212 260 l 263 260 l 263 226 l 177 226 l 177 363 l 263 363 m 313 294 l 330 294 q 347 312 347 294 q 330 329 347 329 l 313 329 l 313 294 m 382 312 q 357 267 382 280 l 382 226 l 339 226 l 319 260 l 313 260 l 313 226 l 279 226 l 279 363 l 330 363 q 382 312 382 363 m 439 283 q 388 321 388 283 q 441 368 388 368 q 500 347 477 368 l 482 321 q 443 335 467 335 q 422 321 422 335 q 461 309 422 309 q 500 270 500 309 q 446 226 500 226 q 388 244 406 226 l 406 270 q 444 256 420 256 q 465 270 465 256 q 439 283 465 283 m 541 294 q 576 260 541 260 q 610 294 610 260 q 576 329 610 329 q 541 294 541 329 m 644 294 q 576 226 644 226 q 507 294 507 226 q 576 363 507 363 q 644 294 644 363 m 772 363 l 772 226 l 738 226 l 686 303 l 686 226 l 652 226 l 652 363 l 686 363 l 738 286 l 738 363 l 772 363 m 835 260 l 863 260 l 849 303 l 835 260 m 867 363 l 918 226 l 875 226 l 872 235 l 827 235 l 823 226 l 781 226 l 832 363 l 867 363 m 959 363 l 959 260 l 1002 260 l 1002 226 l 924 226 l 924 363 l 959 363 m 180 189 l 180 -51 q 227 -94 180 -94 q 274 -51 274 -94 l 274 189 l 369 189 l 369 -51 q 227 -188 369 -188 q 85 -51 85 -188 l 85 189 l 180 189 m 574 -39 q 395 73 395 -39 q 541 201 395 201 q 701 144 638 201 l 654 73 q 541 115 624 115 q 489 73 489 115 q 573 39 489 39 q 701 -68 701 39 q 555 -188 701 -188 q 395 -139 444 -188 l 442 -68 q 540 -111 486 -111 q 607 -68 607 -111 q 574 -39 607 -39 m 971 189 l 971 95 l 830 95 l 830 48 l 971 48 l 971 -47 l 830 -47 l 830 -94 l 971 -94 l 971 -188 l 736 -188 l 736 189 l 971 189 z "},"#":{"ha":1069,"x_min":68,"x_max":1002,"o":"m 324 1175 q 452 1186 404 1175 l 460 1193 l 469 1200 q 503 1219 489 1217 q 558 1200 530 1219 l 572 1190 l 585 1181 q 653 1168 600 1171 q 700 1172 689 1172 q 724 1154 714 1168 q 741 1124 732 1145 l 743 1116 l 747 1107 q 754 1092 751 1099 q 805 1057 767 1073 q 833 1043 827 1046 q 863 973 863 1020 l 862 959 l 860 945 q 882 876 860 899 l 889 867 l 897 857 q 906 798 906 846 q 868 743 906 763 q 856 713 856 734 q 862 641 856 677 q 839 606 862 619 q 821 597 831 602 l 810 593 l 801 589 q 766 566 776 579 q 749 538 758 557 l 743 522 q 734 507 738 513 q 684 471 715 471 q 642 475 661 471 q 600 472 610 475 q 579 460 591 468 l 568 452 l 558 444 q 513 424 532 425 q 471 441 488 424 l 460 449 l 450 457 q 430 469 439 466 q 401 474 418 474 l 385 474 l 370 473 q 313 479 323 473 q 282 519 296 490 l 271 544 q 257 567 264 558 q 235 581 250 574 l 222 587 l 209 593 q 161 678 161 627 q 150 755 161 727 q 115 831 115 793 q 120 845 116 838 q 143 882 124 859 q 165 920 161 905 q 161 974 165 951 q 239 1067 162 1061 q 261 1084 253 1074 q 274 1105 269 1091 l 279 1116 q 324 1175 295 1165 m 373 686 q 387 702 374 689 l 391 701 l 373 686 m 422 699 q 469 677 433 696 q 528 656 505 658 q 591 685 566 656 q 537 650 569 650 q 422 699 503 652 m 347 677 q 358 696 347 688 q 382 703 368 703 q 366 688 378 697 q 347 677 353 677 m 411 728 q 570 916 565 912 q 495 821 570 914 q 416 728 420 728 l 411 728 m 551 961 q 534 967 551 961 q 509 975 516 974 q 565 960 517 975 q 639 945 614 945 q 667 956 648 945 q 675 959 672 958 q 656 946 670 952 q 631 939 643 939 q 598 945 616 939 q 551 961 586 948 m 628 928 q 637 936 632 934 q 701 985 701 960 q 695 996 701 992 q 633 972 680 996 q 626 969 627 969 l 624 969 q 575 985 618 969 q 496 1000 532 1000 q 444 975 471 1000 q 416 928 416 951 q 423 913 416 920 q 439 906 430 906 l 444 906 q 467 917 458 906 q 475 941 475 927 q 469 955 475 949 q 455 962 463 962 q 467 971 456 967 q 484 975 476 975 q 540 962 508 975 l 553 957 l 566 951 q 591 943 581 945 q 568 919 587 937 l 561 911 l 553 905 q 542 892 546 897 l 536 886 l 530 880 l 518 866 q 408 729 505 850 l 401 729 q 349 713 374 729 q 321 671 321 696 q 351 656 321 656 q 425 688 378 656 q 536 644 509 644 q 576 661 557 644 q 596 698 596 678 q 570 725 596 725 q 547 717 558 725 q 536 695 536 707 q 541 679 536 684 q 554 668 543 676 l 552 668 l 550 667 q 546 667 548 667 l 545 667 q 495 688 530 667 q 455 713 461 709 l 628 928 m 511 1101 q 708 1019 627 1101 q 790 822 790 937 q 708 625 790 706 q 511 543 627 543 q 314 625 395 543 q 232 822 232 706 q 314 1019 232 937 q 511 1101 395 1101 m 511 1133 q 292 1042 382 1133 q 200 822 200 950 q 292 602 200 693 q 511 511 382 511 q 730 602 640 511 q 822 822 822 693 q 730 1042 822 950 q 511 1133 640 1133 m 119 294 q 136 312 136 294 q 119 329 136 329 l 102 329 l 102 294 l 119 294 m 68 226 l 68 363 l 119 363 q 171 312 171 363 q 119 260 171 260 l 102 260 l 102 226 l 68 226 m 263 363 l 263 329 l 212 329 l 212 312 l 263 312 l 263 277 l 212 277 l 212 260 l 263 260 l 263 226 l 177 226 l 177 363 l 263 363 m 313 294 l 330 294 q 347 312 347 294 q 330 329 347 329 l 313 329 l 313 294 m 382 312 q 357 267 382 280 l 382 226 l 339 226 l 319 260 l 313 260 l 313 226 l 279 226 l 279 363 l 330 363 q 382 312 382 363 m 439 283 q 388 321 388 283 q 441 368 388 368 q 500 347 477 368 l 482 321 q 443 335 467 335 q 422 321 422 335 q 461 309 422 309 q 500 270 500 309 q 446 226 500 226 q 388 244 406 226 l 406 270 q 444 256 420 256 q 465 270 465 256 q 439 283 465 283 m 541 294 q 576 260 541 260 q 610 294 610 260 q 576 329 610 329 q 541 294 541 329 m 644 294 q 576 226 644 226 q 507 294 507 226 q 576 363 507 363 q 644 294 644 363 m 772 363 l 772 226 l 738 226 l 686 303 l 686 226 l 652 226 l 652 363 l 686 363 l 738 286 l 738 363 l 772 363 m 835 260 l 863 260 l 849 303 l 835 260 m 867 363 l 918 226 l 875 226 l 872 235 l 827 235 l 823 226 l 781 226 l 832 363 l 867 363 m 959 363 l 959 260 l 1002 260 l 1002 226 l 924 226 l 924 363 l 959 363 m 180 189 l 180 -51 q 227 -94 180 -94 q 274 -51 274 -94 l 274 189 l 369 189 l 369 -51 q 227 -188 369 -188 q 85 -51 85 -188 l 85 189 l 180 189 m 574 -39 q 395 73 395 -39 q 541 201 395 201 q 701 144 638 201 l 654 73 q 541 115 624 115 q 489 73 489 115 q 573 39 489 39 q 701 -68 701 39 q 555 -188 701 -188 q 395 -139 444 -188 l 442 -68 q 540 -111 486 -111 q 607 -68 607 -111 q 574 -39 607 -39 m 971 189 l 971 95 l 830 95 l 830 48 l 971 48 l 971 -47 l 830 -47 l 830 -94 l 971 -94 l 971 -188 l 736 -188 l 736 189 l 971 189 z "},"$":{"ha":1069,"x_min":68,"x_max":1002,"o":"m 324 1175 q 452 1186 404 1175 l 460 1193 l 469 1200 q 503 1219 489 1217 q 558 1200 530 1219 l 572 1190 l 585 1181 q 653 1168 600 1171 q 700 1172 689 1172 q 724 1154 714 1168 q 741 1124 732 1145 l 743 1116 l 747 1107 q 754 1092 751 1099 q 805 1057 767 1073 q 833 1043 827 1046 q 863 973 863 1020 l 862 959 l 860 945 q 882 876 860 899 l 889 867 l 897 857 q 906 798 906 846 q 868 743 906 763 q 856 713 856 734 q 862 641 856 677 q 839 606 862 619 q 821 597 831 602 l 810 593 l 801 589 q 766 566 776 579 q 749 538 758 557 l 743 522 q 734 507 738 513 q 684 471 715 471 q 642 475 661 471 q 600 472 610 475 q 579 460 591 468 l 568 452 l 558 444 q 513 424 532 425 q 471 441 488 424 l 460 449 l 450 457 q 430 469 439 466 q 401 474 418 474 l 385 474 l 370 473 q 313 479 323 473 q 282 519 296 490 l 271 544 q 257 567 264 558 q 235 581 250 574 l 222 587 l 209 593 q 161 678 161 627 q 150 755 161 727 q 115 831 115 793 q 120 845 116 838 q 143 882 124 859 q 165 920 161 905 q 161 974 165 951 q 239 1067 162 1061 q 261 1084 253 1074 q 274 1105 269 1091 l 279 1116 q 324 1175 295 1165 m 373 686 q 387 702 374 689 l 391 701 l 373 686 m 422 699 q 469 677 433 696 q 528 656 505 658 q 591 685 566 656 q 537 650 569 650 q 422 699 503 652 m 347 677 q 358 696 347 688 q 382 703 368 703 q 366 688 378 697 q 347 677 353 677 m 411 728 q 570 916 565 912 q 495 821 570 914 q 416 728 420 728 l 411 728 m 551 961 q 534 967 551 961 q 509 975 516 974 q 565 960 517 975 q 639 945 614 945 q 667 956 648 945 q 675 959 672 958 q 656 946 670 952 q 631 939 643 939 q 598 945 616 939 q 551 961 586 948 m 628 928 q 637 936 632 934 q 701 985 701 960 q 695 996 701 992 q 633 972 680 996 q 626 969 627 969 l 624 969 q 575 985 618 969 q 496 1000 532 1000 q 444 975 471 1000 q 416 928 416 951 q 423 913 416 920 q 439 906 430 906 l 444 906 q 467 917 458 906 q 475 941 475 927 q 469 955 475 949 q 455 962 463 962 q 467 971 456 967 q 484 975 476 975 q 540 962 508 975 l 553 957 l 566 951 q 591 943 581 945 q 568 919 587 937 l 561 911 l 553 905 q 542 892 546 897 l 536 886 l 530 880 l 518 866 q 408 729 505 850 l 401 729 q 349 713 374 729 q 321 671 321 696 q 351 656 321 656 q 425 688 378 656 q 536 644 509 644 q 576 661 557 644 q 596 698 596 678 q 570 725 596 725 q 547 717 558 725 q 536 695 536 707 q 541 679 536 684 q 554 668 543 676 l 552 668 l 550 667 q 546 667 548 667 l 545 667 q 495 688 530 667 q 455 713 461 709 l 628 928 m 511 1101 q 708 1019 627 1101 q 790 822 790 937 q 708 625 790 706 q 511 543 627 543 q 314 625 395 543 q 232 822 232 706 q 314 1019 232 937 q 511 1101 395 1101 m 511 1133 q 292 1042 382 1133 q 200 822 200 950 q 292 602 200 693 q 511 511 382 511 q 730 602 640 511 q 822 822 822 693 q 730 1042 822 950 q 511 1133 640 1133 m 119 294 q 136 312 136 294 q 119 329 136 329 l 102 329 l 102 294 l 119 294 m 68 226 l 68 363 l 119 363 q 171 312 171 363 q 119 260 171 260 l 102 260 l 102 226 l 68 226 m 263 363 l 263 329 l 212 329 l 212 312 l 263 312 l 263 277 l 212 277 l 212 260 l 263 260 l 263 226 l 177 226 l 177 363 l 263 363 m 313 294 l 330 294 q 347 312 347 294 q 330 329 347 329 l 313 329 l 313 294 m 382 312 q 357 267 382 280 l 382 226 l 339 226 l 319 260 l 313 260 l 313 226 l 279 226 l 279 363 l 330 363 q 382 312 382 363 m 439 283 q 388 321 388 283 q 441 368 388 368 q 500 347 477 368 l 482 321 q 443 335 467 335 q 422 321 422 335 q 461 309 422 309 q 500 270 500 309 q 446 226 500 226 q 388 244 406 226 l 406 270 q 444 256 420 256 q 465 270 465 256 q 439 283 465 283 m 541 294 q 576 260 541 260 q 610 294 610 260 q 576 329 610 329 q 541 294 541 329 m 644 294 q 576 226 644 226 q 507 294 507 226 q 576 363 507 363 q 644 294 644 363 m 772 363 l 772 226 l 738 226 l 686 303 l 686 226 l 652 226 l 652 363 l 686 363 l 738 286 l 738 363 l 772 363 m 835 260 l 863 260 l 849 303 l 835 260 m 867 363 l 918 226 l 875 226 l 872 235 l 827 235 l 823 226 l 781 226 l 832 363 l 867 363 m 959 363 l 959 260 l 1002 260 l 1002 226 l 924 226 l 924 363 l 959 363 m 180 189 l 180 -51 q 227 -94 180 -94 q 274 -51 274 -94 l 274 189 l 369 189 l 369 -51 q 227 -188 369 -188 q 85 -51 85 -188 l 85 189 l 180 189 m 574 -39 q 395 73 395 -39 q 541 201 395 201 q 701 144 638 201 l 654 73 q 541 115 624 115 q 489 73 489 115 q 573 39 489 39 q 701 -68 701 39 q 555 -188 701 -188 q 395 -139 444 -188 l 442 -68 q 540 -111 486 -111 q 607 -68 607 -111 q 574 -39 607 -39 m 971 189 l 971 95 l 830 95 l 830 48 l 971 48 l 971 -47 l 830 -47 l 830 -94 l 971 -94 l 971 -188 l 736 -188 l 736 189 l 971 189 z "},"%":{"ha":1069,"x_min":68,"x_max":1002,"o":"m 324 1175 q 452 1186 404 1175 l 460 1193 l 469 1200 q 503 1219 489 1217 q 558 1200 530 1219 l 572 1190 l 585 1181 q 653 1168 600 1171 q 700 1172 689 1172 q 724 1154 714 1168 q 741 1124 732 1145 l 743 1116 l 747 1107 q 754 1092 751 1099 q 805 1057 767 1073 q 833 1043 827 1046 q 863 973 863 1020 l 862 959 l 860 945 q 882 876 860 899 l 889 867 l 897 857 q 906 798 906 846 q 868 743 906 763 q 856 713 856 734 q 862 641 856 677 q 839 606 862 619 q 821 597 831 602 l 810 593 l 801 589 q 766 566 776 579 q 749 538 758 557 l 743 522 q 734 507 738 513 q 684 471 715 471 q 642 475 661 471 q 600 472 610 475 q 579 460 591 468 l 568 452 l 558 444 q 513 424 532 425 q 471 441 488 424 l 460 449 l 450 457 q 430 469 439 466 q 401 474 418 474 l 385 474 l 370 473 q 313 479 323 473 q 282 519 296 490 l 271 544 q 257 567 264 558 q 235 581 250 574 l 222 587 l 209 593 q 161 678 161 627 q 150 755 161 727 q 115 831 115 793 q 120 845 116 838 q 143 882 124 859 q 165 920 161 905 q 161 974 165 951 q 239 1067 162 1061 q 261 1084 253 1074 q 274 1105 269 1091 l 279 1116 q 324 1175 295 1165 m 373 686 q 387 702 374 689 l 391 701 l 373 686 m 422 699 q 469 677 433 696 q 528 656 505 658 q 591 685 566 656 q 537 650 569 650 q 422 699 503 652 m 347 677 q 358 696 347 688 q 382 703 368 703 q 366 688 378 697 q 347 677 353 677 m 411 728 q 570 916 565 912 q 495 821 570 914 q 416 728 420 728 l 411 728 m 551 961 q 534 967 551 961 q 509 975 516 974 q 565 960 517 975 q 639 945 614 945 q 667 956 648 945 q 675 959 672 958 q 656 946 670 952 q 631 939 643 939 q 598 945 616 939 q 551 961 586 948 m 628 928 q 637 936 632 934 q 701 985 701 960 q 695 996 701 992 q 633 972 680 996 q 626 969 627 969 l 624 969 q 575 985 618 969 q 496 1000 532 1000 q 444 975 471 1000 q 416 928 416 951 q 423 913 416 920 q 439 906 430 906 l 444 906 q 467 917 458 906 q 475 941 475 927 q 469 955 475 949 q 455 962 463 962 q 467 971 456 967 q 484 975 476 975 q 540 962 508 975 l 553 957 l 566 951 q 591 943 581 945 q 568 919 587 937 l 561 911 l 553 905 q 542 892 546 897 l 536 886 l 530 880 l 518 866 q 408 729 505 850 l 401 729 q 349 713 374 729 q 321 671 321 696 q 351 656 321 656 q 425 688 378 656 q 536 644 509 644 q 576 661 557 644 q 596 698 596 678 q 570 725 596 725 q 547 717 558 725 q 536 695 536 707 q 541 679 536 684 q 554 668 543 676 l 552 668 l 550 667 q 546 667 548 667 l 545 667 q 495 688 530 667 q 455 713 461 709 l 628 928 m 511 1101 q 708 1019 627 1101 q 790 822 790 937 q 708 625 790 706 q 511 543 627 543 q 314 625 395 543 q 232 822 232 706 q 314 1019 232 937 q 511 1101 395 1101 m 511 1133 q 292 1042 382 1133 q 200 822 200 950 q 292 602 200 693 q 511 511 382 511 q 730 602 640 511 q 822 822 822 693 q 730 1042 822 950 q 511 1133 640 1133 m 119 294 q 136 312 136 294 q 119 329 136 329 l 102 329 l 102 294 l 119 294 m 68 226 l 68 363 l 119 363 q 171 312 171 363 q 119 260 171 260 l 102 260 l 102 226 l 68 226 m 263 363 l 263 329 l 212 329 l 212 312 l 263 312 l 263 277 l 212 277 l 212 260 l 263 260 l 263 226 l 177 226 l 177 363 l 263 363 m 313 294 l 330 294 q 347 312 347 294 q 330 329 347 329 l 313 329 l 313 294 m 382 312 q 357 267 382 280 l 382 226 l 339 226 l 319 260 l 313 260 l 313 226 l 279 226 l 279 363 l 330 363 q 382 312 382 363 m 439 283 q 388 321 388 283 q 441 368 388 368 q 500 347 477 368 l 482 321 q 443 335 467 335 q 422 321 422 335 q 461 309 422 309 q 500 270 500 309 q 446 226 500 226 q 388 244 406 226 l 406 270 q 444 256 420 256 q 465 270 465 256 q 439 283 465 283 m 541 294 q 576 260 541 260 q 610 294 610 260 q 576 329 610 329 q 541 294 541 329 m 644 294 q 576 226 644 226 q 507 294 507 226 q 576 363 507 363 q 644 294 644 363 m 772 363 l 772 226 l 738 226 l 686 303 l 686 226 l 652 226 l 652 363 l 686 363 l 738 286 l 738 363 l 772 363 m 835 260 l 863 260 l 849 303 l 835 260 m 867 363 l 918 226 l 875 226 l 872 235 l 827 235 l 823 226 l 781 226 l 832 363 l 867 363 m 959 363 l 959 260 l 1002 260 l 1002 226 l 924 226 l 924 363 l 959 363 m 180 189 l 180 -51 q 227 -94 180 -94 q 274 -51 274 -94 l 274 189 l 369 189 l 369 -51 q 227 -188 369 -188 q 85 -51 85 -188 l 85 189 l 180 189 m 574 -39 q 395 73 395 -39 q 541 201 395 201 q 701 144 638 201 l 654 73 q 541 115 624 115 q 489 73 489 115 q 573 39 489 39 q 701 -68 701 39 q 555 -188 701 -188 q 395 -139 444 -188 l 442 -68 q 540 -111 486 -111 q 607 -68 607 -111 q 574 -39 607 -39 m 971 189 l 971 95 l 830 95 l 830 48 l 971 48 l 971 -47 l 830 -47 l 830 -94 l 971 -94 l 971 -188 l 736 -188 l 736 189 l 971 189 z "},"&":{"ha":1069,"x_min":68,"x_max":1002,"o":"m 324 1175 q 452 1186 404 1175 l 460 1193 l 469 1200 q 503 1219 489 1217 q 558 1200 530 1219 l 572 1190 l 585 1181 q 653 1168 600 1171 q 700 1172 689 1172 q 724 1154 714 1168 q 741 1124 732 1145 l 743 1116 l 747 1107 q 754 1092 751 1099 q 805 1057 767 1073 q 833 1043 827 1046 q 863 973 863 1020 l 862 959 l 860 945 q 882 876 860 899 l 889 867 l 897 857 q 906 798 906 846 q 868 743 906 763 q 856 713 856 734 q 862 641 856 677 q 839 606 862 619 q 821 597 831 602 l 810 593 l 801 589 q 766 566 776 579 q 749 538 758 557 l 743 522 q 734 507 738 513 q 684 471 715 471 q 642 475 661 471 q 600 472 610 475 q 579 460 591 468 l 568 452 l 558 444 q 513 424 532 425 q 471 441 488 424 l 460 449 l 450 457 q 430 469 439 466 q 401 474 418 474 l 385 474 l 370 473 q 313 479 323 473 q 282 519 296 490 l 271 544 q 257 567 264 558 q 235 581 250 574 l 222 587 l 209 593 q 161 678 161 627 q 150 755 161 727 q 115 831 115 793 q 120 845 116 838 q 143 882 124 859 q 165 920 161 905 q 161 974 165 951 q 239 1067 162 1061 q 261 1084 253 1074 q 274 1105 269 1091 l 279 1116 q 324 1175 295 1165 m 373 686 q 387 702 374 689 l 391 701 l 373 686 m 422 699 q 469 677 433 696 q 528 656 505 658 q 591 685 566 656 q 537 650 569 650 q 422 699 503 652 m 347 677 q 358 696 347 688 q 382 703 368 703 q 366 688 378 697 q 347 677 353 677 m 411 728 q 570 916 565 912 q 495 821 570 914 q 416 728 420 728 l 411 728 m 551 961 q 534 967 551 961 q 509 975 516 974 q 565 960 517 975 q 639 945 614 945 q 667 956 648 945 q 675 959 672 958 q 656 946 670 952 q 631 939 643 939 q 598 945 616 939 q 551 961 586 948 m 628 928 q 637 936 632 934 q 701 985 701 960 q 695 996 701 992 q 633 972 680 996 q 626 969 627 969 l 624 969 q 575 985 618 969 q 496 1000 532 1000 q 444 975 471 1000 q 416 928 416 951 q 423 913 416 920 q 439 906 430 906 l 444 906 q 467 917 458 906 q 475 941 475 927 q 469 955 475 949 q 455 962 463 962 q 467 971 456 967 q 484 975 476 975 q 540 962 508 975 l 553 957 l 566 951 q 591 943 581 945 q 568 919 587 937 l 561 911 l 553 905 q 542 892 546 897 l 536 886 l 530 880 l 518 866 q 408 729 505 850 l 401 729 q 349 713 374 729 q 321 671 321 696 q 351 656 321 656 q 425 688 378 656 q 536 644 509 644 q 576 661 557 644 q 596 698 596 678 q 570 725 596 725 q 547 717 558 725 q 536 695 536 707 q 541 679 536 684 q 554 668 543 676 l 552 668 l 550 667 q 546 667 548 667 l 545 667 q 495 688 530 667 q 455 713 461 709 l 628 928 m 511 1101 q 708 1019 627 1101 q 790 822 790 937 q 708 625 790 706 q 511 543 627 543 q 314 625 395 543 q 232 822 232 706 q 314 1019 232 937 q 511 1101 395 1101 m 511 1133 q 292 1042 382 1133 q 200 822 200 950 q 292 602 200 693 q 511 511 382 511 q 730 602 640 511 q 822 822 822 693 q 730 1042 822 950 q 511 1133 640 1133 m 119 294 q 136 312 136 294 q 119 329 136 329 l 102 329 l 102 294 l 119 294 m 68 226 l 68 363 l 119 363 q 171 312 171 363 q 119 260 171 260 l 102 260 l 102 226 l 68 226 m 263 363 l 263 329 l 212 329 l 212 312 l 263 312 l 263 277 l 212 277 l 212 260 l 263 260 l 263 226 l 177 226 l 177 363 l 263 363 m 313 294 l 330 294 q 347 312 347 294 q 330 329 347 329 l 313 329 l 313 294 m 382 312 q 357 267 382 280 l 382 226 l 339 226 l 319 260 l 313 260 l 313 226 l 279 226 l 279 363 l 330 363 q 382 312 382 363 m 439 283 q 388 321 388 283 q 441 368 388 368 q 500 347 477 368 l 482 321 q 443 335 467 335 q 422 321 422 335 q 461 309 422 309 q 500 270 500 309 q 446 226 500 226 q 388 244 406 226 l 406 270 q 444 256 420 256 q 465 270 465 256 q 439 283 465 283 m 541 294 q 576 260 541 260 q 610 294 610 260 q 576 329 610 329 q 541 294 541 329 m 644 294 q 576 226 644 226 q 507 294 507 226 q 576 363 507 363 q 644 294 644 363 m 772 363 l 772 226 l 738 226 l 686 303 l 686 226 l 652 226 l 652 363 l 686 363 l 738 286 l 738 363 l 772 363 m 835 260 l 863 260 l 849 303 l 835 260 m 867 363 l 918 226 l 875 226 l 872 235 l 827 235 l 823 226 l 781 226 l 832 363 l 867 363 m 959 363 l 959 260 l 1002 260 l 1002 226 l 924 226 l 924 363 l 959 363 m 180 189 l 180 -51 q 227 -94 180 -94 q 274 -51 274 -94 l 274 189 l 369 189 l 369 -51 q 227 -188 369 -188 q 85 -51 85 -188 l 85 189 l 180 189 m 574 -39 q 395 73 395 -39 q 541 201 395 201 q 701 144 638 201 l 654 73 q 541 115 624 115 q 489 73 489 115 q 573 39 489 39 q 701 -68 701 39 q 555 -188 701 -188 q 395 -139 444 -188 l 442 -68 q 540 -111 486 -111 q 607 -68 607 -111 q 574 -39 607 -39 m 971 189 l 971 95 l 830 95 l 830 48 l 971 48 l 971 -47 l 830 -47 l 830 -94 l 971 -94 l 971 -188 l 736 -188 l 736 189 l 971 189 z "},"(":{"ha":1069,"x_min":68,"x_max":1002,"o":"m 324 1175 q 452 1186 404 1175 l 460 1193 l 469 1200 q 503 1219 489 1217 q 558 1200 530 1219 l 572 1190 l 585 1181 q 653 1168 600 1171 q 700 1172 689 1172 q 724 1154 714 1168 q 741 1124 732 1145 l 743 1116 l 747 1107 q 754 1092 751 1099 q 805 1057 767 1073 q 833 1043 827 1046 q 863 973 863 1020 l 862 959 l 860 945 q 882 876 860 899 l 889 867 l 897 857 q 906 798 906 846 q 868 743 906 763 q 856 713 856 734 q 862 641 856 677 q 839 606 862 619 q 821 597 831 602 l 810 593 l 801 589 q 766 566 776 579 q 749 538 758 557 l 743 522 q 734 507 738 513 q 684 471 715 471 q 642 475 661 471 q 600 472 610 475 q 579 460 591 468 l 568 452 l 558 444 q 513 424 532 425 q 471 441 488 424 l 460 449 l 450 457 q 430 469 439 466 q 401 474 418 474 l 385 474 l 370 473 q 313 479 323 473 q 282 519 296 490 l 271 544 q 257 567 264 558 q 235 581 250 574 l 222 587 l 209 593 q 161 678 161 627 q 150 755 161 727 q 115 831 115 793 q 120 845 116 838 q 143 882 124 859 q 165 920 161 905 q 161 974 165 951 q 239 1067 162 1061 q 261 1084 253 1074 q 274 1105 269 1091 l 279 1116 q 324 1175 295 1165 m 373 686 q 387 702 374 689 l 391 701 l 373 686 m 422 699 q 469 677 433 696 q 528 656 505 658 q 591 685 566 656 q 537 650 569 650 q 422 699 503 652 m 347 677 q 358 696 347 688 q 382 703 368 703 q 366 688 378 697 q 347 677 353 677 m 411 728 q 570 916 565 912 q 495 821 570 914 q 416 728 420 728 l 411 728 m 551 961 q 534 967 551 961 q 509 975 516 974 q 565 960 517 975 q 639 945 614 945 q 667 956 648 945 q 675 959 672 958 q 656 946 670 952 q 631 939 643 939 q 598 945 616 939 q 551 961 586 948 m 628 928 q 637 936 632 934 q 701 985 701 960 q 695 996 701 992 q 633 972 680 996 q 626 969 627 969 l 624 969 q 575 985 618 969 q 496 1000 532 1000 q 444 975 471 1000 q 416 928 416 951 q 423 913 416 920 q 439 906 430 906 l 444 906 q 467 917 458 906 q 475 941 475 927 q 469 955 475 949 q 455 962 463 962 q 467 971 456 967 q 484 975 476 975 q 540 962 508 975 l 553 957 l 566 951 q 591 943 581 945 q 568 919 587 937 l 561 911 l 553 905 q 542 892 546 897 l 536 886 l 530 880 l 518 866 q 408 729 505 850 l 401 729 q 349 713 374 729 q 321 671 321 696 q 351 656 321 656 q 425 688 378 656 q 536 644 509 644 q 576 661 557 644 q 596 698 596 678 q 570 725 596 725 q 547 717 558 725 q 536 695 536 707 q 541 679 536 684 q 554 668 543 676 l 552 668 l 550 667 q 546 667 548 667 l 545 667 q 495 688 530 667 q 455 713 461 709 l 628 928 m 511 1101 q 708 1019 627 1101 q 790 822 790 937 q 708 625 790 706 q 511 543 627 543 q 314 625 395 543 q 232 822 232 706 q 314 1019 232 937 q 511 1101 395 1101 m 511 1133 q 292 1042 382 1133 q 200 822 200 950 q 292 602 200 693 q 511 511 382 511 q 730 602 640 511 q 822 822 822 693 q 730 1042 822 950 q 511 1133 640 1133 m 119 294 q 136 312 136 294 q 119 329 136 329 l 102 329 l 102 294 l 119 294 m 68 226 l 68 363 l 119 363 q 171 312 171 363 q 119 260 171 260 l 102 260 l 102 226 l 68 226 m 263 363 l 263 329 l 212 329 l 212 312 l 263 312 l 263 277 l 212 277 l 212 260 l 263 260 l 263 226 l 177 226 l 177 363 l 263 363 m 313 294 l 330 294 q 347 312 347 294 q 330 329 347 329 l 313 329 l 313 294 m 382 312 q 357 267 382 280 l 382 226 l 339 226 l 319 260 l 313 260 l 313 226 l 279 226 l 279 363 l 330 363 q 382 312 382 363 m 439 283 q 388 321 388 283 q 441 368 388 368 q 500 347 477 368 l 482 321 q 443 335 467 335 q 422 321 422 335 q 461 309 422 309 q 500 270 500 309 q 446 226 500 226 q 388 244 406 226 l 406 270 q 444 256 420 256 q 465 270 465 256 q 439 283 465 283 m 541 294 q 576 260 541 260 q 610 294 610 260 q 576 329 610 329 q 541 294 541 329 m 644 294 q 576 226 644 226 q 507 294 507 226 q 576 363 507 363 q 644 294 644 363 m 772 363 l 772 226 l 738 226 l 686 303 l 686 226 l 652 226 l 652 363 l 686 363 l 738 286 l 738 363 l 772 363 m 835 260 l 863 260 l 849 303 l 835 260 m 867 363 l 918 226 l 875 226 l 872 235 l 827 235 l 823 226 l 781 226 l 832 363 l 867 363 m 959 363 l 959 260 l 1002 260 l 1002 226 l 924 226 l 924 363 l 959 363 m 180 189 l 180 -51 q 227 -94 180 -94 q 274 -51 274 -94 l 274 189 l 369 189 l 369 -51 q 227 -188 369 -188 q 85 -51 85 -188 l 85 189 l 180 189 m 574 -39 q 395 73 395 -39 q 541 201 395 201 q 701 144 638 201 l 654 73 q 541 115 624 115 q 489 73 489 115 q 573 39 489 39 q 701 -68 701 39 q 555 -188 701 -188 q 395 -139 444 -188 l 442 -68 q 540 -111 486 -111 q 607 -68 607 -111 q 574 -39 607 -39 m 971 189 l 971 95 l 830 95 l 830 48 l 971 48 l 971 -47 l 830 -47 l 830 -94 l 971 -94 l 971 -188 l 736 -188 l 736 189 l 971 189 z "},")":{"ha":1069,"x_min":68,"x_max":1002,"o":"m 324 1175 q 452 1186 404 1175 l 460 1193 l 469 1200 q 503 1219 489 1217 q 558 1200 530 1219 l 572 1190 l 585 1181 q 653 1168 600 1171 q 700 1172 689 1172 q 724 1154 714 1168 q 741 1124 732 1145 l 743 1116 l 747 1107 q 754 1092 751 1099 q 805 1057 767 1073 q 833 1043 827 1046 q 863 973 863 1020 l 862 959 l 860 945 q 882 876 860 899 l 889 867 l 897 857 q 906 798 906 846 q 868 743 906 763 q 856 713 856 734 q 862 641 856 677 q 839 606 862 619 q 821 597 831 602 l 810 593 l 801 589 q 766 566 776 579 q 749 538 758 557 l 743 522 q 734 507 738 513 q 684 471 715 471 q 642 475 661 471 q 600 472 610 475 q 579 460 591 468 l 568 452 l 558 444 q 513 424 532 425 q 471 441 488 424 l 460 449 l 450 457 q 430 469 439 466 q 401 474 418 474 l 385 474 l 370 473 q 313 479 323 473 q 282 519 296 490 l 271 544 q 257 567 264 558 q 235 581 250 574 l 222 587 l 209 593 q 161 678 161 627 q 150 755 161 727 q 115 831 115 793 q 120 845 116 838 q 143 882 124 859 q 165 920 161 905 q 161 974 165 951 q 239 1067 162 1061 q 261 1084 253 1074 q 274 1105 269 1091 l 279 1116 q 324 1175 295 1165 m 373 686 q 387 702 374 689 l 391 701 l 373 686 m 422 699 q 469 677 433 696 q 528 656 505 658 q 591 685 566 656 q 537 650 569 650 q 422 699 503 652 m 347 677 q 358 696 347 688 q 382 703 368 703 q 366 688 378 697 q 347 677 353 677 m 411 728 q 570 916 565 912 q 495 821 570 914 q 416 728 420 728 l 411 728 m 551 961 q 534 967 551 961 q 509 975 516 974 q 565 960 517 975 q 639 945 614 945 q 667 956 648 945 q 675 959 672 958 q 656 946 670 952 q 631 939 643 939 q 598 945 616 939 q 551 961 586 948 m 628 928 q 637 936 632 934 q 701 985 701 960 q 695 996 701 992 q 633 972 680 996 q 626 969 627 969 l 624 969 q 575 985 618 969 q 496 1000 532 1000 q 444 975 471 1000 q 416 928 416 951 q 423 913 416 920 q 439 906 430 906 l 444 906 q 467 917 458 906 q 475 941 475 927 q 469 955 475 949 q 455 962 463 962 q 467 971 456 967 q 484 975 476 975 q 540 962 508 975 l 553 957 l 566 951 q 591 943 581 945 q 568 919 587 937 l 561 911 l 553 905 q 542 892 546 897 l 536 886 l 530 880 l 518 866 q 408 729 505 850 l 401 729 q 349 713 374 729 q 321 671 321 696 q 351 656 321 656 q 425 688 378 656 q 536 644 509 644 q 576 661 557 644 q 596 698 596 678 q 570 725 596 725 q 547 717 558 725 q 536 695 536 707 q 541 679 536 684 q 554 668 543 676 l 552 668 l 550 667 q 546 667 548 667 l 545 667 q 495 688 530 667 q 455 713 461 709 l 628 928 m 511 1101 q 708 1019 627 1101 q 790 822 790 937 q 708 625 790 706 q 511 543 627 543 q 314 625 395 543 q 232 822 232 706 q 314 1019 232 937 q 511 1101 395 1101 m 511 1133 q 292 1042 382 1133 q 200 822 200 950 q 292 602 200 693 q 511 511 382 511 q 730 602 640 511 q 822 822 822 693 q 730 1042 822 950 q 511 1133 640 1133 m 119 294 q 136 312 136 294 q 119 329 136 329 l 102 329 l 102 294 l 119 294 m 68 226 l 68 363 l 119 363 q 171 312 171 363 q 119 260 171 260 l 102 260 l 102 226 l 68 226 m 263 363 l 263 329 l 212 329 l 212 312 l 263 312 l 263 277 l 212 277 l 212 260 l 263 260 l 263 226 l 177 226 l 177 363 l 263 363 m 313 294 l 330 294 q 347 312 347 294 q 330 329 347 329 l 313 329 l 313 294 m 382 312 q 357 267 382 280 l 382 226 l 339 226 l 319 260 l 313 260 l 313 226 l 279 226 l 279 363 l 330 363 q 382 312 382 363 m 439 283 q 388 321 388 283 q 441 368 388 368 q 500 347 477 368 l 482 321 q 443 335 467 335 q 422 321 422 335 q 461 309 422 309 q 500 270 500 309 q 446 226 500 226 q 388 244 406 226 l 406 270 q 444 256 420 256 q 465 270 465 256 q 439 283 465 283 m 541 294 q 576 260 541 260 q 610 294 610 260 q 576 329 610 329 q 541 294 541 329 m 644 294 q 576 226 644 226 q 507 294 507 226 q 576 363 507 363 q 644 294 644 363 m 772 363 l 772 226 l 738 226 l 686 303 l 686 226 l 652 226 l 652 363 l 686 363 l 738 286 l 738 363 l 772 363 m 835 260 l 863 260 l 849 303 l 835 260 m 867 363 l 918 226 l 875 226 l 872 235 l 827 235 l 823 226 l 781 226 l 832 363 l 867 363 m 959 363 l 959 260 l 1002 260 l 1002 226 l 924 226 l 924 363 l 959 363 m 180 189 l 180 -51 q 227 -94 180 -94 q 274 -51 274 -94 l 274 189 l 369 189 l 369 -51 q 227 -188 369 -188 q 85 -51 85 -188 l 85 189 l 180 189 m 574 -39 q 395 73 395 -39 q 541 201 395 201 q 701 144 638 201 l 654 73 q 541 115 624 115 q 489 73 489 115 q 573 39 489 39 q 701 -68 701 39 q 555 -188 701 -188 q 395 -139 444 -188 l 442 -68 q 540 -111 486 -111 q 607 -68 607 -111 q 574 -39 607 -39 m 971 189 l 971 95 l 830 95 l 830 48 l 971 48 l 971 -47 l 830 -47 l 830 -94 l 971 -94 l 971 -188 l 736 -188 l 736 189 l 971 189 z "},"*":{"ha":1069,"x_min":68,"x_max":1002,"o":"m 324 1175 q 452 1186 404 1175 l 460 1193 l 469 1200 q 503 1219 489 1217 q 558 1200 530 1219 l 572 1190 l 585 1181 q 653 1168 600 1171 q 700 1172 689 1172 q 724 1154 714 1168 q 741 1124 732 1145 l 743 1116 l 747 1107 q 754 1092 751 1099 q 805 1057 767 1073 q 833 1043 827 1046 q 863 973 863 1020 l 862 959 l 860 945 q 882 876 860 899 l 889 867 l 897 857 q 906 798 906 846 q 868 743 906 763 q 856 713 856 734 q 862 641 856 677 q 839 606 862 619 q 821 597 831 602 l 810 593 l 801 589 q 766 566 776 579 q 749 538 758 557 l 743 522 q 734 507 738 513 q 684 471 715 471 q 642 475 661 471 q 600 472 610 475 q 579 460 591 468 l 568 452 l 558 444 q 513 424 532 425 q 471 441 488 424 l 460 449 l 450 457 q 430 469 439 466 q 401 474 418 474 l 385 474 l 370 473 q 313 479 323 473 q 282 519 296 490 l 271 544 q 257 567 264 558 q 235 581 250 574 l 222 587 l 209 593 q 161 678 161 627 q 150 755 161 727 q 115 831 115 793 q 120 845 116 838 q 143 882 124 859 q 165 920 161 905 q 161 974 165 951 q 239 1067 162 1061 q 261 1084 253 1074 q 274 1105 269 1091 l 279 1116 q 324 1175 295 1165 m 373 686 q 387 702 374 689 l 391 701 l 373 686 m 422 699 q 469 677 433 696 q 528 656 505 658 q 591 685 566 656 q 537 650 569 650 q 422 699 503 652 m 347 677 q 358 696 347 688 q 382 703 368 703 q 366 688 378 697 q 347 677 353 677 m 411 728 q 570 916 565 912 q 495 821 570 914 q 416 728 420 728 l 411 728 m 551 961 q 534 967 551 961 q 509 975 516 974 q 565 960 517 975 q 639 945 614 945 q 667 956 648 945 q 675 959 672 958 q 656 946 670 952 q 631 939 643 939 q 598 945 616 939 q 551 961 586 948 m 628 928 q 637 936 632 934 q 701 985 701 960 q 695 996 701 992 q 633 972 680 996 q 626 969 627 969 l 624 969 q 575 985 618 969 q 496 1000 532 1000 q 444 975 471 1000 q 416 928 416 951 q 423 913 416 920 q 439 906 430 906 l 444 906 q 467 917 458 906 q 475 941 475 927 q 469 955 475 949 q 455 962 463 962 q 467 971 456 967 q 484 975 476 975 q 540 962 508 975 l 553 957 l 566 951 q 591 943 581 945 q 568 919 587 937 l 561 911 l 553 905 q 542 892 546 897 l 536 886 l 530 880 l 518 866 q 408 729 505 850 l 401 729 q 349 713 374 729 q 321 671 321 696 q 351 656 321 656 q 425 688 378 656 q 536 644 509 644 q 576 661 557 644 q 596 698 596 678 q 570 725 596 725 q 547 717 558 725 q 536 695 536 707 q 541 679 536 684 q 554 668 543 676 l 552 668 l 550 667 q 546 667 548 667 l 545 667 q 495 688 530 667 q 455 713 461 709 l 628 928 m 511 1101 q 708 1019 627 1101 q 790 822 790 937 q 708 625 790 706 q 511 543 627 543 q 314 625 395 543 q 232 822 232 706 q 314 1019 232 937 q 511 1101 395 1101 m 511 1133 q 292 1042 382 1133 q 200 822 200 950 q 292 602 200 693 q 511 511 382 511 q 730 602 640 511 q 822 822 822 693 q 730 1042 822 950 q 511 1133 640 1133 m 119 294 q 136 312 136 294 q 119 329 136 329 l 102 329 l 102 294 l 119 294 m 68 226 l 68 363 l 119 363 q 171 312 171 363 q 119 260 171 260 l 102 260 l 102 226 l 68 226 m 263 363 l 263 329 l 212 329 l 212 312 l 263 312 l 263 277 l 212 277 l 212 260 l 263 260 l 263 226 l 177 226 l 177 363 l 263 363 m 313 294 l 330 294 q 347 312 347 294 q 330 329 347 329 l 313 329 l 313 294 m 382 312 q 357 267 382 280 l 382 226 l 339 226 l 319 260 l 313 260 l 313 226 l 279 226 l 279 363 l 330 363 q 382 312 382 363 m 439 283 q 388 321 388 283 q 441 368 388 368 q 500 347 477 368 l 482 321 q 443 335 467 335 q 422 321 422 335 q 461 309 422 309 q 500 270 500 309 q 446 226 500 226 q 388 244 406 226 l 406 270 q 444 256 420 256 q 465 270 465 256 q 439 283 465 283 m 541 294 q 576 260 541 260 q 610 294 610 260 q 576 329 610 329 q 541 294 541 329 m 644 294 q 576 226 644 226 q 507 294 507 226 q 576 363 507 363 q 644 294 644 363 m 772 363 l 772 226 l 738 226 l 686 303 l 686 226 l 652 226 l 652 363 l 686 363 l 738 286 l 738 363 l 772 363 m 835 260 l 863 260 l 849 303 l 835 260 m 867 363 l 918 226 l 875 226 l 872 235 l 827 235 l 823 226 l 781 226 l 832 363 l 867 363 m 959 363 l 959 260 l 1002 260 l 1002 226 l 924 226 l 924 363 l 959 363 m 180 189 l 180 -51 q 227 -94 180 -94 q 274 -51 274 -94 l 274 189 l 369 189 l 369 -51 q 227 -188 369 -188 q 85 -51 85 -188 l 85 189 l 180 189 m 574 -39 q 395 73 395 -39 q 541 201 395 201 q 701 144 638 201 l 654 73 q 541 115 624 115 q 489 73 489 115 q 573 39 489 39 q 701 -68 701 39 q 555 -188 701 -188 q 395 -139 444 -188 l 442 -68 q 540 -111 486 -111 q 607 -68 607 -111 q 574 -39 607 -39 m 971 189 l 971 95 l 830 95 l 830 48 l 971 48 l 971 -47 l 830 -47 l 830 -94 l 971 -94 l 971 -188 l 736 -188 l 736 189 l 971 189 z "},"+":{"ha":1069,"x_min":68,"x_max":1002,"o":"m 324 1175 q 452 1186 404 1175 l 460 1193 l 469 1200 q 503 1219 489 1217 q 558 1200 530 1219 l 572 1190 l 585 1181 q 653 1168 600 1171 q 700 1172 689 1172 q 724 1154 714 1168 q 741 1124 732 1145 l 743 1116 l 747 1107 q 754 1092 751 1099 q 805 1057 767 1073 q 833 1043 827 1046 q 863 973 863 1020 l 862 959 l 860 945 q 882 876 860 899 l 889 867 l 897 857 q 906 798 906 846 q 868 743 906 763 q 856 713 856 734 q 862 641 856 677 q 839 606 862 619 q 821 597 831 602 l 810 593 l 801 589 q 766 566 776 579 q 749 538 758 557 l 743 522 q 734 507 738 513 q 684 471 715 471 q 642 475 661 471 q 600 472 610 475 q 579 460 591 468 l 568 452 l 558 444 q 513 424 532 425 q 471 441 488 424 l 460 449 l 450 457 q 430 469 439 466 q 401 474 418 474 l 385 474 l 370 473 q 313 479 323 473 q 282 519 296 490 l 271 544 q 257 567 264 558 q 235 581 250 574 l 222 587 l 209 593 q 161 678 161 627 q 150 755 161 727 q 115 831 115 793 q 120 845 116 838 q 143 882 124 859 q 165 920 161 905 q 161 974 165 951 q 239 1067 162 1061 q 261 1084 253 1074 q 274 1105 269 1091 l 279 1116 q 324 1175 295 1165 m 373 686 q 387 702 374 689 l 391 701 l 373 686 m 422 699 q 469 677 433 696 q 528 656 505 658 q 591 685 566 656 q 537 650 569 650 q 422 699 503 652 m 347 677 q 358 696 347 688 q 382 703 368 703 q 366 688 378 697 q 347 677 353 677 m 411 728 q 570 916 565 912 q 495 821 570 914 q 416 728 420 728 l 411 728 m 551 961 q 534 967 551 961 q 509 975 516 974 q 565 960 517 975 q 639 945 614 945 q 667 956 648 945 q 675 959 672 958 q 656 946 670 952 q 631 939 643 939 q 598 945 616 939 q 551 961 586 948 m 628 928 q 637 936 632 934 q 701 985 701 960 q 695 996 701 992 q 633 972 680 996 q 626 969 627 969 l 624 969 q 575 985 618 969 q 496 1000 532 1000 q 444 975 471 1000 q 416 928 416 951 q 423 913 416 920 q 439 906 430 906 l 444 906 q 467 917 458 906 q 475 941 475 927 q 469 955 475 949 q 455 962 463 962 q 467 971 456 967 q 484 975 476 975 q 540 962 508 975 l 553 957 l 566 951 q 591 943 581 945 q 568 919 587 937 l 561 911 l 553 905 q 542 892 546 897 l 536 886 l 530 880 l 518 866 q 408 729 505 850 l 401 729 q 349 713 374 729 q 321 671 321 696 q 351 656 321 656 q 425 688 378 656 q 536 644 509 644 q 576 661 557 644 q 596 698 596 678 q 570 725 596 725 q 547 717 558 725 q 536 695 536 707 q 541 679 536 684 q 554 668 543 676 l 552 668 l 550 667 q 546 667 548 667 l 545 667 q 495 688 530 667 q 455 713 461 709 l 628 928 m 511 1101 q 708 1019 627 1101 q 790 822 790 937 q 708 625 790 706 q 511 543 627 543 q 314 625 395 543 q 232 822 232 706 q 314 1019 232 937 q 511 1101 395 1101 m 511 1133 q 292 1042 382 1133 q 200 822 200 950 q 292 602 200 693 q 511 511 382 511 q 730 602 640 511 q 822 822 822 693 q 730 1042 822 950 q 511 1133 640 1133 m 119 294 q 136 312 136 294 q 119 329 136 329 l 102 329 l 102 294 l 119 294 m 68 226 l 68 363 l 119 363 q 171 312 171 363 q 119 260 171 260 l 102 260 l 102 226 l 68 226 m 263 363 l 263 329 l 212 329 l 212 312 l 263 312 l 263 277 l 212 277 l 212 260 l 263 260 l 263 226 l 177 226 l 177 363 l 263 363 m 313 294 l 330 294 q 347 312 347 294 q 330 329 347 329 l 313 329 l 313 294 m 382 312 q 357 267 382 280 l 382 226 l 339 226 l 319 260 l 313 260 l 313 226 l 279 226 l 279 363 l 330 363 q 382 312 382 363 m 439 283 q 388 321 388 283 q 441 368 388 368 q 500 347 477 368 l 482 321 q 443 335 467 335 q 422 321 422 335 q 461 309 422 309 q 500 270 500 309 q 446 226 500 226 q 388 244 406 226 l 406 270 q 444 256 420 256 q 465 270 465 256 q 439 283 465 283 m 541 294 q 576 260 541 260 q 610 294 610 260 q 576 329 610 329 q 541 294 541 329 m 644 294 q 576 226 644 226 q 507 294 507 226 q 576 363 507 363 q 644 294 644 363 m 772 363 l 772 226 l 738 226 l 686 303 l 686 226 l 652 226 l 652 363 l 686 363 l 738 286 l 738 363 l 772 363 m 835 260 l 863 260 l 849 303 l 835 260 m 867 363 l 918 226 l 875 226 l 872 235 l 827 235 l 823 226 l 781 226 l 832 363 l 867 363 m 959 363 l 959 260 l 1002 260 l 1002 226 l 924 226 l 924 363 l 959 363 m 180 189 l 180 -51 q 227 -94 180 -94 q 274 -51 274 -94 l 274 189 l 369 189 l 369 -51 q 227 -188 369 -188 q 85 -51 85 -188 l 85 189 l 180 189 m 574 -39 q 395 73 395 -39 q 541 201 395 201 q 701 144 638 201 l 654 73 q 541 115 624 115 q 489 73 489 115 q 573 39 489 39 q 701 -68 701 39 q 555 -188 701 -188 q 395 -139 444 -188 l 442 -68 q 540 -111 486 -111 q 607 -68 607 -111 q 574 -39 607 -39 m 971 189 l 971 95 l 830 95 l 830 48 l 971 48 l 971 -47 l 830 -47 l 830 -94 l 971 -94 l 971 -188 l 736 -188 l 736 189 l 971 189 z "},",":{"ha":1069,"x_min":68,"x_max":1002,"o":"m 324 1175 q 452 1186 404 1175 l 460 1193 l 469 1200 q 503 1219 489 1217 q 558 1200 530 1219 l 572 1190 l 585 1181 q 653 1168 600 1171 q 700 1172 689 1172 q 724 1154 714 1168 q 741 1124 732 1145 l 743 1116 l 747 1107 q 754 1092 751 1099 q 805 1057 767 1073 q 833 1043 827 1046 q 863 973 863 1020 l 862 959 l 860 945 q 882 876 860 899 l 889 867 l 897 857 q 906 798 906 846 q 868 743 906 763 q 856 713 856 734 q 862 641 856 677 q 839 606 862 619 q 821 597 831 602 l 810 593 l 801 589 q 766 566 776 579 q 749 538 758 557 l 743 522 q 734 507 738 513 q 684 471 715 471 q 642 475 661 471 q 600 472 610 475 q 579 460 591 468 l 568 452 l 558 444 q 513 424 532 425 q 471 441 488 424 l 460 449 l 450 457 q 430 469 439 466 q 401 474 418 474 l 385 474 l 370 473 q 313 479 323 473 q 282 519 296 490 l 271 544 q 257 567 264 558 q 235 581 250 574 l 222 587 l 209 593 q 161 678 161 627 q 150 755 161 727 q 115 831 115 793 q 120 845 116 838 q 143 882 124 859 q 165 920 161 905 q 161 974 165 951 q 239 1067 162 1061 q 261 1084 253 1074 q 274 1105 269 1091 l 279 1116 q 324 1175 295 1165 m 373 686 q 387 702 374 689 l 391 701 l 373 686 m 422 699 q 469 677 433 696 q 528 656 505 658 q 591 685 566 656 q 537 650 569 650 q 422 699 503 652 m 347 677 q 358 696 347 688 q 382 703 368 703 q 366 688 378 697 q 347 677 353 677 m 411 728 q 570 916 565 912 q 495 821 570 914 q 416 728 420 728 l 411 728 m 551 961 q 534 967 551 961 q 509 975 516 974 q 565 960 517 975 q 639 945 614 945 q 667 956 648 945 q 675 959 672 958 q 656 946 670 952 q 631 939 643 939 q 598 945 616 939 q 551 961 586 948 m 628 928 q 637 936 632 934 q 701 985 701 960 q 695 996 701 992 q 633 972 680 996 q 626 969 627 969 l 624 969 q 575 985 618 969 q 496 1000 532 1000 q 444 975 471 1000 q 416 928 416 951 q 423 913 416 920 q 439 906 430 906 l 444 906 q 467 917 458 906 q 475 941 475 927 q 469 955 475 949 q 455 962 463 962 q 467 971 456 967 q 484 975 476 975 q 540 962 508 975 l 553 957 l 566 951 q 591 943 581 945 q 568 919 587 937 l 561 911 l 553 905 q 542 892 546 897 l 536 886 l 530 880 l 518 866 q 408 729 505 850 l 401 729 q 349 713 374 729 q 321 671 321 696 q 351 656 321 656 q 425 688 378 656 q 536 644 509 644 q 576 661 557 644 q 596 698 596 678 q 570 725 596 725 q 547 717 558 725 q 536 695 536 707 q 541 679 536 684 q 554 668 543 676 l 552 668 l 550 667 q 546 667 548 667 l 545 667 q 495 688 530 667 q 455 713 461 709 l 628 928 m 511 1101 q 708 1019 627 1101 q 790 822 790 937 q 708 625 790 706 q 511 543 627 543 q 314 625 395 543 q 232 822 232 706 q 314 1019 232 937 q 511 1101 395 1101 m 511 1133 q 292 1042 382 1133 q 200 822 200 950 q 292 602 200 693 q 511 511 382 511 q 730 602 640 511 q 822 822 822 693 q 730 1042 822 950 q 511 1133 640 1133 m 119 294 q 136 312 136 294 q 119 329 136 329 l 102 329 l 102 294 l 119 294 m 68 226 l 68 363 l 119 363 q 171 312 171 363 q 119 260 171 260 l 102 260 l 102 226 l 68 226 m 263 363 l 263 329 l 212 329 l 212 312 l 263 312 l 263 277 l 212 277 l 212 260 l 263 260 l 263 226 l 177 226 l 177 363 l 263 363 m 313 294 l 330 294 q 347 312 347 294 q 330 329 347 329 l 313 329 l 313 294 m 382 312 q 357 267 382 280 l 382 226 l 339 226 l 319 260 l 313 260 l 313 226 l 279 226 l 279 363 l 330 363 q 382 312 382 363 m 439 283 q 388 321 388 283 q 441 368 388 368 q 500 347 477 368 l 482 321 q 443 335 467 335 q 422 321 422 335 q 461 309 422 309 q 500 270 500 309 q 446 226 500 226 q 388 244 406 226 l 406 270 q 444 256 420 256 q 465 270 465 256 q 439 283 465 283 m 541 294 q 576 260 541 260 q 610 294 610 260 q 576 329 610 329 q 541 294 541 329 m 644 294 q 576 226 644 226 q 507 294 507 226 q 576 363 507 363 q 644 294 644 363 m 772 363 l 772 226 l 738 226 l 686 303 l 686 226 l 652 226 l 652 363 l 686 363 l 738 286 l 738 363 l 772 363 m 835 260 l 863 260 l 849 303 l 835 260 m 867 363 l 918 226 l 875 226 l 872 235 l 827 235 l 823 226 l 781 226 l 832 363 l 867 363 m 959 363 l 959 260 l 1002 260 l 1002 226 l 924 226 l 924 363 l 959 363 m 180 189 l 180 -51 q 227 -94 180 -94 q 274 -51 274 -94 l 274 189 l 369 189 l 369 -51 q 227 -188 369 -188 q 85 -51 85 -188 l 85 189 l 180 189 m 574 -39 q 395 73 395 -39 q 541 201 395 201 q 701 144 638 201 l 654 73 q 541 115 624 115 q 489 73 489 115 q 573 39 489 39 q 701 -68 701 39 q 555 -188 701 -188 q 395 -139 444 -188 l 442 -68 q 540 -111 486 -111 q 607 -68 607 -111 q 574 -39 607 -39 m 971 189 l 971 95 l 830 95 l 830 48 l 971 48 l 971 -47 l 830 -47 l 830 -94 l 971 -94 l 971 -188 l 736 -188 l 736 189 l 971 189 z "},"-":{"ha":1069,"x_min":68,"x_max":1002,"o":"m 324 1175 q 452 1186 404 1175 l 460 1193 l 469 1200 q 503 1219 489 1217 q 558 1200 530 1219 l 572 1190 l 585 1181 q 653 1168 600 1171 q 700 1172 689 1172 q 724 1154 714 1168 q 741 1124 732 1145 l 743 1116 l 747 1107 q 754 1092 751 1099 q 805 1057 767 1073 q 833 1043 827 1046 q 863 973 863 1020 l 862 959 l 860 945 q 882 876 860 899 l 889 867 l 897 857 q 906 798 906 846 q 868 743 906 763 q 856 713 856 734 q 862 641 856 677 q 839 606 862 619 q 821 597 831 602 l 810 593 l 801 589 q 766 566 776 579 q 749 538 758 557 l 743 522 q 734 507 738 513 q 684 471 715 471 q 642 475 661 471 q 600 472 610 475 q 579 460 591 468 l 568 452 l 558 444 q 513 424 532 425 q 471 441 488 424 l 460 449 l 450 457 q 430 469 439 466 q 401 474 418 474 l 385 474 l 370 473 q 313 479 323 473 q 282 519 296 490 l 271 544 q 257 567 264 558 q 235 581 250 574 l 222 587 l 209 593 q 161 678 161 627 q 150 755 161 727 q 115 831 115 793 q 120 845 116 838 q 143 882 124 859 q 165 920 161 905 q 161 974 165 951 q 239 1067 162 1061 q 261 1084 253 1074 q 274 1105 269 1091 l 279 1116 q 324 1175 295 1165 m 373 686 q 387 702 374 689 l 391 701 l 373 686 m 422 699 q 469 677 433 696 q 528 656 505 658 q 591 685 566 656 q 537 650 569 650 q 422 699 503 652 m 347 677 q 358 696 347 688 q 382 703 368 703 q 366 688 378 697 q 347 677 353 677 m 411 728 q 570 916 565 912 q 495 821 570 914 q 416 728 420 728 l 411 728 m 551 961 q 534 967 551 961 q 509 975 516 974 q 565 960 517 975 q 639 945 614 945 q 667 956 648 945 q 675 959 672 958 q 656 946 670 952 q 631 939 643 939 q 598 945 616 939 q 551 961 586 948 m 628 928 q 637 936 632 934 q 701 985 701 960 q 695 996 701 992 q 633 972 680 996 q 626 969 627 969 l 624 969 q 575 985 618 969 q 496 1000 532 1000 q 444 975 471 1000 q 416 928 416 951 q 423 913 416 920 q 439 906 430 906 l 444 906 q 467 917 458 906 q 475 941 475 927 q 469 955 475 949 q 455 962 463 962 q 467 971 456 967 q 484 975 476 975 q 540 962 508 975 l 553 957 l 566 951 q 591 943 581 945 q 568 919 587 937 l 561 911 l 553 905 q 542 892 546 897 l 536 886 l 530 880 l 518 866 q 408 729 505 850 l 401 729 q 349 713 374 729 q 321 671 321 696 q 351 656 321 656 q 425 688 378 656 q 536 644 509 644 q 576 661 557 644 q 596 698 596 678 q 570 725 596 725 q 547 717 558 725 q 536 695 536 707 q 541 679 536 684 q 554 668 543 676 l 552 668 l 550 667 q 546 667 548 667 l 545 667 q 495 688 530 667 q 455 713 461 709 l 628 928 m 511 1101 q 708 1019 627 1101 q 790 822 790 937 q 708 625 790 706 q 511 543 627 543 q 314 625 395 543 q 232 822 232 706 q 314 1019 232 937 q 511 1101 395 1101 m 511 1133 q 292 1042 382 1133 q 200 822 200 950 q 292 602 200 693 q 511 511 382 511 q 730 602 640 511 q 822 822 822 693 q 730 1042 822 950 q 511 1133 640 1133 m 119 294 q 136 312 136 294 q 119 329 136 329 l 102 329 l 102 294 l 119 294 m 68 226 l 68 363 l 119 363 q 171 312 171 363 q 119 260 171 260 l 102 260 l 102 226 l 68 226 m 263 363 l 263 329 l 212 329 l 212 312 l 263 312 l 263 277 l 212 277 l 212 260 l 263 260 l 263 226 l 177 226 l 177 363 l 263 363 m 313 294 l 330 294 q 347 312 347 294 q 330 329 347 329 l 313 329 l 313 294 m 382 312 q 357 267 382 280 l 382 226 l 339 226 l 319 260 l 313 260 l 313 226 l 279 226 l 279 363 l 330 363 q 382 312 382 363 m 439 283 q 388 321 388 283 q 441 368 388 368 q 500 347 477 368 l 482 321 q 443 335 467 335 q 422 321 422 335 q 461 309 422 309 q 500 270 500 309 q 446 226 500 226 q 388 244 406 226 l 406 270 q 444 256 420 256 q 465 270 465 256 q 439 283 465 283 m 541 294 q 576 260 541 260 q 610 294 610 260 q 576 329 610 329 q 541 294 541 329 m 644 294 q 576 226 644 226 q 507 294 507 226 q 576 363 507 363 q 644 294 644 363 m 772 363 l 772 226 l 738 226 l 686 303 l 686 226 l 652 226 l 652 363 l 686 363 l 738 286 l 738 363 l 772 363 m 835 260 l 863 260 l 849 303 l 835 260 m 867 363 l 918 226 l 875 226 l 872 235 l 827 235 l 823 226 l 781 226 l 832 363 l 867 363 m 959 363 l 959 260 l 1002 260 l 1002 226 l 924 226 l 924 363 l 959 363 m 180 189 l 180 -51 q 227 -94 180 -94 q 274 -51 274 -94 l 274 189 l 369 189 l 369 -51 q 227 -188 369 -188 q 85 -51 85 -188 l 85 189 l 180 189 m 574 -39 q 395 73 395 -39 q 541 201 395 201 q 701 144 638 201 l 654 73 q 541 115 624 115 q 489 73 489 115 q 573 39 489 39 q 701 -68 701 39 q 555 -188 701 -188 q 395 -139 444 -188 l 442 -68 q 540 -111 486 -111 q 607 -68 607 -111 q 574 -39 607 -39 m 971 189 l 971 95 l 830 95 l 830 48 l 971 48 l 971 -47 l 830 -47 l 830 -94 l 971 -94 l 971 -188 l 736 -188 l 736 189 l 971 189 z "},"":{"ha":1069,"x_min":68,"x_max":1002,"o":"m 324 1175 q 452 1186 404 1175 l 460 1193 l 469 1200 q 503 1219 489 1217 q 558 1200 530 1219 l 572 1190 l 585 1181 q 653 1168 600 1171 q 700 1172 689 1172 q 724 1154 714 1168 q 741 1124 732 1145 l 743 1116 l 747 1107 q 754 1092 751 1099 q 805 1057 767 1073 q 833 1043 827 1046 q 863 973 863 1020 l 862 959 l 860 945 q 882 876 860 899 l 889 867 l 897 857 q 906 798 906 846 q 868 743 906 763 q 856 713 856 734 q 862 641 856 677 q 839 606 862 619 q 821 597 831 602 l 810 593 l 801 589 q 766 566 776 579 q 749 538 758 557 l 743 522 q 734 507 738 513 q 684 471 715 471 q 642 475 661 471 q 600 472 610 475 q 579 460 591 468 l 568 452 l 558 444 q 513 424 532 425 q 471 441 488 424 l 460 449 l 450 457 q 430 469 439 466 q 401 474 418 474 l 385 474 l 370 473 q 313 479 323 473 q 282 519 296 490 l 271 544 q 257 567 264 558 q 235 581 250 574 l 222 587 l 209 593 q 161 678 161 627 q 150 755 161 727 q 115 831 115 793 q 120 845 116 838 q 143 882 124 859 q 165 920 161 905 q 161 974 165 951 q 239 1067 162 1061 q 261 1084 253 1074 q 274 1105 269 1091 l 279 1116 q 324 1175 295 1165 m 373 686 q 387 702 374 689 l 391 701 l 373 686 m 422 699 q 469 677 433 696 q 528 656 505 658 q 591 685 566 656 q 537 650 569 650 q 422 699 503 652 m 347 677 q 358 696 347 688 q 382 703 368 703 q 366 688 378 697 q 347 677 353 677 m 411 728 q 570 916 565 912 q 495 821 570 914 q 416 728 420 728 l 411 728 m 551 961 q 534 967 551 961 q 509 975 516 974 q 565 960 517 975 q 639 945 614 945 q 667 956 648 945 q 675 959 672 958 q 656 946 670 952 q 631 939 643 939 q 598 945 616 939 q 551 961 586 948 m 628 928 q 637 936 632 934 q 701 985 701 960 q 695 996 701 992 q 633 972 680 996 q 626 969 627 969 l 624 969 q 575 985 618 969 q 496 1000 532 1000 q 444 975 471 1000 q 416 928 416 951 q 423 913 416 920 q 439 906 430 906 l 444 906 q 467 917 458 906 q 475 941 475 927 q 469 955 475 949 q 455 962 463 962 q 467 971 456 967 q 484 975 476 975 q 540 962 508 975 l 553 957 l 566 951 q 591 943 581 945 q 568 919 587 937 l 561 911 l 553 905 q 542 892 546 897 l 536 886 l 530 880 l 518 866 q 408 729 505 850 l 401 729 q 349 713 374 729 q 321 671 321 696 q 351 656 321 656 q 425 688 378 656 q 536 644 509 644 q 576 661 557 644 q 596 698 596 678 q 570 725 596 725 q 547 717 558 725 q 536 695 536 707 q 541 679 536 684 q 554 668 543 676 l 552 668 l 550 667 q 546 667 548 667 l 545 667 q 495 688 530 667 q 455 713 461 709 l 628 928 m 511 1101 q 708 1019 627 1101 q 790 822 790 937 q 708 625 790 706 q 511 543 627 543 q 314 625 395 543 q 232 822 232 706 q 314 1019 232 937 q 511 1101 395 1101 m 511 1133 q 292 1042 382 1133 q 200 822 200 950 q 292 602 200 693 q 511 511 382 511 q 730 602 640 511 q 822 822 822 693 q 730 1042 822 950 q 511 1133 640 1133 m 119 294 q 136 312 136 294 q 119 329 136 329 l 102 329 l 102 294 l 119 294 m 68 226 l 68 363 l 119 363 q 171 312 171 363 q 119 260 171 260 l 102 260 l 102 226 l 68 226 m 263 363 l 263 329 l 212 329 l 212 312 l 263 312 l 263 277 l 212 277 l 212 260 l 263 260 l 263 226 l 177 226 l 177 363 l 263 363 m 313 294 l 330 294 q 347 312 347 294 q 330 329 347 329 l 313 329 l 313 294 m 382 312 q 357 267 382 280 l 382 226 l 339 226 l 319 260 l 313 260 l 313 226 l 279 226 l 279 363 l 330 363 q 382 312 382 363 m 439 283 q 388 321 388 283 q 441 368 388 368 q 500 347 477 368 l 482 321 q 443 335 467 335 q 422 321 422 335 q 461 309 422 309 q 500 270 500 309 q 446 226 500 226 q 388 244 406 226 l 406 270 q 444 256 420 256 q 465 270 465 256 q 439 283 465 283 m 541 294 q 576 260 541 260 q 610 294 610 260 q 576 329 610 329 q 541 294 541 329 m 644 294 q 576 226 644 226 q 507 294 507 226 q 576 363 507 363 q 644 294 644 363 m 772 363 l 772 226 l 738 226 l 686 303 l 686 226 l 652 226 l 652 363 l 686 363 l 738 286 l 738 363 l 772 363 m 835 260 l 863 260 l 849 303 l 835 260 m 867 363 l 918 226 l 875 226 l 872 235 l 827 235 l 823 226 l 781 226 l 832 363 l 867 363 m 959 363 l 959 260 l 1002 260 l 1002 226 l 924 226 l 924 363 l 959 363 m 180 189 l 180 -51 q 227 -94 180 -94 q 274 -51 274 -94 l 274 189 l 369 189 l 369 -51 q 227 -188 369 -188 q 85 -51 85 -188 l 85 189 l 180 189 m 574 -39 q 395 73 395 -39 q 541 201 395 201 q 701 144 638 201 l 654 73 q 541 115 624 115 q 489 73 489 115 q 573 39 489 39 q 701 -68 701 39 q 555 -188 701 -188 q 395 -139 444 -188 l 442 -68 q 540 -111 486 -111 q 607 -68 607 -111 q 574 -39 607 -39 m 971 189 l 971 95 l 830 95 l 830 48 l 971 48 l 971 -47 l 830 -47 l 830 -94 l 971 -94 l 971 -188 l 736 -188 l 736 189 l 971 189 z "},".":{"ha":1069,"x_min":68,"x_max":1002,"o":"m 324 1175 q 452 1186 404 1175 l 460 1193 l 469 1200 q 503 1219 489 1217 q 558 1200 530 1219 l 572 1190 l 585 1181 q 653 1168 600 1171 q 700 1172 689 1172 q 724 1154 714 1168 q 741 1124 732 1145 l 743 1116 l 747 1107 q 754 1092 751 1099 q 805 1057 767 1073 q 833 1043 827 1046 q 863 973 863 1020 l 862 959 l 860 945 q 882 876 860 899 l 889 867 l 897 857 q 906 798 906 846 q 868 743 906 763 q 856 713 856 734 q 862 641 856 677 q 839 606 862 619 q 821 597 831 602 l 810 593 l 801 589 q 766 566 776 579 q 749 538 758 557 l 743 522 q 734 507 738 513 q 684 471 715 471 q 642 475 661 471 q 600 472 610 475 q 579 460 591 468 l 568 452 l 558 444 q 513 424 532 425 q 471 441 488 424 l 460 449 l 450 457 q 430 469 439 466 q 401 474 418 474 l 385 474 l 370 473 q 313 479 323 473 q 282 519 296 490 l 271 544 q 257 567 264 558 q 235 581 250 574 l 222 587 l 209 593 q 161 678 161 627 q 150 755 161 727 q 115 831 115 793 q 120 845 116 838 q 143 882 124 859 q 165 920 161 905 q 161 974 165 951 q 239 1067 162 1061 q 261 1084 253 1074 q 274 1105 269 1091 l 279 1116 q 324 1175 295 1165 m 373 686 q 387 702 374 689 l 391 701 l 373 686 m 422 699 q 469 677 433 696 q 528 656 505 658 q 591 685 566 656 q 537 650 569 650 q 422 699 503 652 m 347 677 q 358 696 347 688 q 382 703 368 703 q 366 688 378 697 q 347 677 353 677 m 411 728 q 570 916 565 912 q 495 821 570 914 q 416 728 420 728 l 411 728 m 551 961 q 534 967 551 961 q 509 975 516 974 q 565 960 517 975 q 639 945 614 945 q 667 956 648 945 q 675 959 672 958 q 656 946 670 952 q 631 939 643 939 q 598 945 616 939 q 551 961 586 948 m 628 928 q 637 936 632 934 q 701 985 701 960 q 695 996 701 992 q 633 972 680 996 q 626 969 627 969 l 624 969 q 575 985 618 969 q 496 1000 532 1000 q 444 975 471 1000 q 416 928 416 951 q 423 913 416 920 q 439 906 430 906 l 444 906 q 467 917 458 906 q 475 941 475 927 q 469 955 475 949 q 455 962 463 962 q 467 971 456 967 q 484 975 476 975 q 540 962 508 975 l 553 957 l 566 951 q 591 943 581 945 q 568 919 587 937 l 561 911 l 553 905 q 542 892 546 897 l 536 886 l 530 880 l 518 866 q 408 729 505 850 l 401 729 q 349 713 374 729 q 321 671 321 696 q 351 656 321 656 q 425 688 378 656 q 536 644 509 644 q 576 661 557 644 q 596 698 596 678 q 570 725 596 725 q 547 717 558 725 q 536 695 536 707 q 541 679 536 684 q 554 668 543 676 l 552 668 l 550 667 q 546 667 548 667 l 545 667 q 495 688 530 667 q 455 713 461 709 l 628 928 m 511 1101 q 708 1019 627 1101 q 790 822 790 937 q 708 625 790 706 q 511 543 627 543 q 314 625 395 543 q 232 822 232 706 q 314 1019 232 937 q 511 1101 395 1101 m 511 1133 q 292 1042 382 1133 q 200 822 200 950 q 292 602 200 693 q 511 511 382 511 q 730 602 640 511 q 822 822 822 693 q 730 1042 822 950 q 511 1133 640 1133 m 119 294 q 136 312 136 294 q 119 329 136 329 l 102 329 l 102 294 l 119 294 m 68 226 l 68 363 l 119 363 q 171 312 171 363 q 119 260 171 260 l 102 260 l 102 226 l 68 226 m 263 363 l 263 329 l 212 329 l 212 312 l 263 312 l 263 277 l 212 277 l 212 260 l 263 260 l 263 226 l 177 226 l 177 363 l 263 363 m 313 294 l 330 294 q 347 312 347 294 q 330 329 347 329 l 313 329 l 313 294 m 382 312 q 357 267 382 280 l 382 226 l 339 226 l 319 260 l 313 260 l 313 226 l 279 226 l 279 363 l 330 363 q 382 312 382 363 m 439 283 q 388 321 388 283 q 441 368 388 368 q 500 347 477 368 l 482 321 q 443 335 467 335 q 422 321 422 335 q 461 309 422 309 q 500 270 500 309 q 446 226 500 226 q 388 244 406 226 l 406 270 q 444 256 420 256 q 465 270 465 256 q 439 283 465 283 m 541 294 q 576 260 541 260 q 610 294 610 260 q 576 329 610 329 q 541 294 541 329 m 644 294 q 576 226 644 226 q 507 294 507 226 q 576 363 507 363 q 644 294 644 363 m 772 363 l 772 226 l 738 226 l 686 303 l 686 226 l 652 226 l 652 363 l 686 363 l 738 286 l 738 363 l 772 363 m 835 260 l 863 260 l 849 303 l 835 260 m 867 363 l 918 226 l 875 226 l 872 235 l 827 235 l 823 226 l 781 226 l 832 363 l 867 363 m 959 363 l 959 260 l 1002 260 l 1002 226 l 924 226 l 924 363 l 959 363 m 180 189 l 180 -51 q 227 -94 180 -94 q 274 -51 274 -94 l 274 189 l 369 189 l 369 -51 q 227 -188 369 -188 q 85 -51 85 -188 l 85 189 l 180 189 m 574 -39 q 395 73 395 -39 q 541 201 395 201 q 701 144 638 201 l 654 73 q 541 115 624 115 q 489 73 489 115 q 573 39 489 39 q 701 -68 701 39 q 555 -188 701 -188 q 395 -139 444 -188 l 442 -68 q 540 -111 486 -111 q 607 -68 607 -111 q 574 -39 607 -39 m 971 189 l 971 95 l 830 95 l 830 48 l 971 48 l 971 -47 l 830 -47 l 830 -94 l 971 -94 l 971 -188 l 736 -188 l 736 189 l 971 189 z "},"/":{"ha":1069,"x_min":68,"x_max":1002,"o":"m 324 1175 q 452 1186 404 1175 l 460 1193 l 469 1200 q 503 1219 489 1217 q 558 1200 530 1219 l 572 1190 l 585 1181 q 653 1168 600 1171 q 700 1172 689 1172 q 724 1154 714 1168 q 741 1124 732 1145 l 743 1116 l 747 1107 q 754 1092 751 1099 q 805 1057 767 1073 q 833 1043 827 1046 q 863 973 863 1020 l 862 959 l 860 945 q 882 876 860 899 l 889 867 l 897 857 q 906 798 906 846 q 868 743 906 763 q 856 713 856 734 q 862 641 856 677 q 839 606 862 619 q 821 597 831 602 l 810 593 l 801 589 q 766 566 776 579 q 749 538 758 557 l 743 522 q 734 507 738 513 q 684 471 715 471 q 642 475 661 471 q 600 472 610 475 q 579 460 591 468 l 568 452 l 558 444 q 513 424 532 425 q 471 441 488 424 l 460 449 l 450 457 q 430 469 439 466 q 401 474 418 474 l 385 474 l 370 473 q 313 479 323 473 q 282 519 296 490 l 271 544 q 257 567 264 558 q 235 581 250 574 l 222 587 l 209 593 q 161 678 161 627 q 150 755 161 727 q 115 831 115 793 q 120 845 116 838 q 143 882 124 859 q 165 920 161 905 q 161 974 165 951 q 239 1067 162 1061 q 261 1084 253 1074 q 274 1105 269 1091 l 279 1116 q 324 1175 295 1165 m 373 686 q 387 702 374 689 l 391 701 l 373 686 m 422 699 q 469 677 433 696 q 528 656 505 658 q 591 685 566 656 q 537 650 569 650 q 422 699 503 652 m 347 677 q 358 696 347 688 q 382 703 368 703 q 366 688 378 697 q 347 677 353 677 m 411 728 q 570 916 565 912 q 495 821 570 914 q 416 728 420 728 l 411 728 m 551 961 q 534 967 551 961 q 509 975 516 974 q 565 960 517 975 q 639 945 614 945 q 667 956 648 945 q 675 959 672 958 q 656 946 670 952 q 631 939 643 939 q 598 945 616 939 q 551 961 586 948 m 628 928 q 637 936 632 934 q 701 985 701 960 q 695 996 701 992 q 633 972 680 996 q 626 969 627 969 l 624 969 q 575 985 618 969 q 496 1000 532 1000 q 444 975 471 1000 q 416 928 416 951 q 423 913 416 920 q 439 906 430 906 l 444 906 q 467 917 458 906 q 475 941 475 927 q 469 955 475 949 q 455 962 463 962 q 467 971 456 967 q 484 975 476 975 q 540 962 508 975 l 553 957 l 566 951 q 591 943 581 945 q 568 919 587 937 l 561 911 l 553 905 q 542 892 546 897 l 536 886 l 530 880 l 518 866 q 408 729 505 850 l 401 729 q 349 713 374 729 q 321 671 321 696 q 351 656 321 656 q 425 688 378 656 q 536 644 509 644 q 576 661 557 644 q 596 698 596 678 q 570 725 596 725 q 547 717 558 725 q 536 695 536 707 q 541 679 536 684 q 554 668 543 676 l 552 668 l 550 667 q 546 667 548 667 l 545 667 q 495 688 530 667 q 455 713 461 709 l 628 928 m 511 1101 q 708 1019 627 1101 q 790 822 790 937 q 708 625 790 706 q 511 543 627 543 q 314 625 395 543 q 232 822 232 706 q 314 1019 232 937 q 511 1101 395 1101 m 511 1133 q 292 1042 382 1133 q 200 822 200 950 q 292 602 200 693 q 511 511 382 511 q 730 602 640 511 q 822 822 822 693 q 730 1042 822 950 q 511 1133 640 1133 m 119 294 q 136 312 136 294 q 119 329 136 329 l 102 329 l 102 294 l 119 294 m 68 226 l 68 363 l 119 363 q 171 312 171 363 q 119 260 171 260 l 102 260 l 102 226 l 68 226 m 263 363 l 263 329 l 212 329 l 212 312 l 263 312 l 263 277 l 212 277 l 212 260 l 263 260 l 263 226 l 177 226 l 177 363 l 263 363 m 313 294 l 330 294 q 347 312 347 294 q 330 329 347 329 l 313 329 l 313 294 m 382 312 q 357 267 382 280 l 382 226 l 339 226 l 319 260 l 313 260 l 313 226 l 279 226 l 279 363 l 330 363 q 382 312 382 363 m 439 283 q 388 321 388 283 q 441 368 388 368 q 500 347 477 368 l 482 321 q 443 335 467 335 q 422 321 422 335 q 461 309 422 309 q 500 270 500 309 q 446 226 500 226 q 388 244 406 226 l 406 270 q 444 256 420 256 q 465 270 465 256 q 439 283 465 283 m 541 294 q 576 260 541 260 q 610 294 610 260 q 576 329 610 329 q 541 294 541 329 m 644 294 q 576 226 644 226 q 507 294 507 226 q 576 363 507 363 q 644 294 644 363 m 772 363 l 772 226 l 738 226 l 686 303 l 686 226 l 652 226 l 652 363 l 686 363 l 738 286 l 738 363 l 772 363 m 835 260 l 863 260 l 849 303 l 835 260 m 867 363 l 918 226 l 875 226 l 872 235 l 827 235 l 823 226 l 781 226 l 832 363 l 867 363 m 959 363 l 959 260 l 1002 260 l 1002 226 l 924 226 l 924 363 l 959 363 m 180 189 l 180 -51 q 227 -94 180 -94 q 274 -51 274 -94 l 274 189 l 369 189 l 369 -51 q 227 -188 369 -188 q 85 -51 85 -188 l 85 189 l 180 189 m 574 -39 q 395 73 395 -39 q 541 201 395 201 q 701 144 638 201 l 654 73 q 541 115 624 115 q 489 73 489 115 q 573 39 489 39 q 701 -68 701 39 q 555 -188 701 -188 q 395 -139 444 -188 l 442 -68 q 540 -111 486 -111 q 607 -68 607 -111 q 574 -39 607 -39 m 971 189 l 971 95 l 830 95 l 830 48 l 971 48 l 971 -47 l 830 -47 l 830 -94 l 971 -94 l 971 -188 l 736 -188 l 736 189 l 971 189 z "},":":{"ha":1069,"x_min":68,"x_max":1002,"o":"m 324 1175 q 452 1186 404 1175 l 460 1193 l 469 1200 q 503 1219 489 1217 q 558 1200 530 1219 l 572 1190 l 585 1181 q 653 1168 600 1171 q 700 1172 689 1172 q 724 1154 714 1168 q 741 1124 732 1145 l 743 1116 l 747 1107 q 754 1092 751 1099 q 805 1057 767 1073 q 833 1043 827 1046 q 863 973 863 1020 l 862 959 l 860 945 q 882 876 860 899 l 889 867 l 897 857 q 906 798 906 846 q 868 743 906 763 q 856 713 856 734 q 862 641 856 677 q 839 606 862 619 q 821 597 831 602 l 810 593 l 801 589 q 766 566 776 579 q 749 538 758 557 l 743 522 q 734 507 738 513 q 684 471 715 471 q 642 475 661 471 q 600 472 610 475 q 579 460 591 468 l 568 452 l 558 444 q 513 424 532 425 q 471 441 488 424 l 460 449 l 450 457 q 430 469 439 466 q 401 474 418 474 l 385 474 l 370 473 q 313 479 323 473 q 282 519 296 490 l 271 544 q 257 567 264 558 q 235 581 250 574 l 222 587 l 209 593 q 161 678 161 627 q 150 755 161 727 q 115 831 115 793 q 120 845 116 838 q 143 882 124 859 q 165 920 161 905 q 161 974 165 951 q 239 1067 162 1061 q 261 1084 253 1074 q 274 1105 269 1091 l 279 1116 q 324 1175 295 1165 m 373 686 q 387 702 374 689 l 391 701 l 373 686 m 422 699 q 469 677 433 696 q 528 656 505 658 q 591 685 566 656 q 537 650 569 650 q 422 699 503 652 m 347 677 q 358 696 347 688 q 382 703 368 703 q 366 688 378 697 q 347 677 353 677 m 411 728 q 570 916 565 912 q 495 821 570 914 q 416 728 420 728 l 411 728 m 551 961 q 534 967 551 961 q 509 975 516 974 q 565 960 517 975 q 639 945 614 945 q 667 956 648 945 q 675 959 672 958 q 656 946 670 952 q 631 939 643 939 q 598 945 616 939 q 551 961 586 948 m 628 928 q 637 936 632 934 q 701 985 701 960 q 695 996 701 992 q 633 972 680 996 q 626 969 627 969 l 624 969 q 575 985 618 969 q 496 1000 532 1000 q 444 975 471 1000 q 416 928 416 951 q 423 913 416 920 q 439 906 430 906 l 444 906 q 467 917 458 906 q 475 941 475 927 q 469 955 475 949 q 455 962 463 962 q 467 971 456 967 q 484 975 476 975 q 540 962 508 975 l 553 957 l 566 951 q 591 943 581 945 q 568 919 587 937 l 561 911 l 553 905 q 542 892 546 897 l 536 886 l 530 880 l 518 866 q 408 729 505 850 l 401 729 q 349 713 374 729 q 321 671 321 696 q 351 656 321 656 q 425 688 378 656 q 536 644 509 644 q 576 661 557 644 q 596 698 596 678 q 570 725 596 725 q 547 717 558 725 q 536 695 536 707 q 541 679 536 684 q 554 668 543 676 l 552 668 l 550 667 q 546 667 548 667 l 545 667 q 495 688 530 667 q 455 713 461 709 l 628 928 m 511 1101 q 708 1019 627 1101 q 790 822 790 937 q 708 625 790 706 q 511 543 627 543 q 314 625 395 543 q 232 822 232 706 q 314 1019 232 937 q 511 1101 395 1101 m 511 1133 q 292 1042 382 1133 q 200 822 200 950 q 292 602 200 693 q 511 511 382 511 q 730 602 640 511 q 822 822 822 693 q 730 1042 822 950 q 511 1133 640 1133 m 119 294 q 136 312 136 294 q 119 329 136 329 l 102 329 l 102 294 l 119 294 m 68 226 l 68 363 l 119 363 q 171 312 171 363 q 119 260 171 260 l 102 260 l 102 226 l 68 226 m 263 363 l 263 329 l 212 329 l 212 312 l 263 312 l 263 277 l 212 277 l 212 260 l 263 260 l 263 226 l 177 226 l 177 363 l 263 363 m 313 294 l 330 294 q 347 312 347 294 q 330 329 347 329 l 313 329 l 313 294 m 382 312 q 357 267 382 280 l 382 226 l 339 226 l 319 260 l 313 260 l 313 226 l 279 226 l 279 363 l 330 363 q 382 312 382 363 m 439 283 q 388 321 388 283 q 441 368 388 368 q 500 347 477 368 l 482 321 q 443 335 467 335 q 422 321 422 335 q 461 309 422 309 q 500 270 500 309 q 446 226 500 226 q 388 244 406 226 l 406 270 q 444 256 420 256 q 465 270 465 256 q 439 283 465 283 m 541 294 q 576 260 541 260 q 610 294 610 260 q 576 329 610 329 q 541 294 541 329 m 644 294 q 576 226 644 226 q 507 294 507 226 q 576 363 507 363 q 644 294 644 363 m 772 363 l 772 226 l 738 226 l 686 303 l 686 226 l 652 226 l 652 363 l 686 363 l 738 286 l 738 363 l 772 363 m 835 260 l 863 260 l 849 303 l 835 260 m 867 363 l 918 226 l 875 226 l 872 235 l 827 235 l 823 226 l 781 226 l 832 363 l 867 363 m 959 363 l 959 260 l 1002 260 l 1002 226 l 924 226 l 924 363 l 959 363 m 180 189 l 180 -51 q 227 -94 180 -94 q 274 -51 274 -94 l 274 189 l 369 189 l 369 -51 q 227 -188 369 -188 q 85 -51 85 -188 l 85 189 l 180 189 m 574 -39 q 395 73 395 -39 q 541 201 395 201 q 701 144 638 201 l 654 73 q 541 115 624 115 q 489 73 489 115 q 573 39 489 39 q 701 -68 701 39 q 555 -188 701 -188 q 395 -139 444 -188 l 442 -68 q 540 -111 486 -111 q 607 -68 607 -111 q 574 -39 607 -39 m 971 189 l 971 95 l 830 95 l 830 48 l 971 48 l 971 -47 l 830 -47 l 830 -94 l 971 -94 l 971 -188 l 736 -188 l 736 189 l 971 189 z "},";":{"ha":1069,"x_min":68,"x_max":1002,"o":"m 324 1175 q 452 1186 404 1175 l 460 1193 l 469 1200 q 503 1219 489 1217 q 558 1200 530 1219 l 572 1190 l 585 1181 q 653 1168 600 1171 q 700 1172 689 1172 q 724 1154 714 1168 q 741 1124 732 1145 l 743 1116 l 747 1107 q 754 1092 751 1099 q 805 1057 767 1073 q 833 1043 827 1046 q 863 973 863 1020 l 862 959 l 860 945 q 882 876 860 899 l 889 867 l 897 857 q 906 798 906 846 q 868 743 906 763 q 856 713 856 734 q 862 641 856 677 q 839 606 862 619 q 821 597 831 602 l 810 593 l 801 589 q 766 566 776 579 q 749 538 758 557 l 743 522 q 734 507 738 513 q 684 471 715 471 q 642 475 661 471 q 600 472 610 475 q 579 460 591 468 l 568 452 l 558 444 q 513 424 532 425 q 471 441 488 424 l 460 449 l 450 457 q 430 469 439 466 q 401 474 418 474 l 385 474 l 370 473 q 313 479 323 473 q 282 519 296 490 l 271 544 q 257 567 264 558 q 235 581 250 574 l 222 587 l 209 593 q 161 678 161 627 q 150 755 161 727 q 115 831 115 793 q 120 845 116 838 q 143 882 124 859 q 165 920 161 905 q 161 974 165 951 q 239 1067 162 1061 q 261 1084 253 1074 q 274 1105 269 1091 l 279 1116 q 324 1175 295 1165 m 373 686 q 387 702 374 689 l 391 701 l 373 686 m 422 699 q 469 677 433 696 q 528 656 505 658 q 591 685 566 656 q 537 650 569 650 q 422 699 503 652 m 347 677 q 358 696 347 688 q 382 703 368 703 q 366 688 378 697 q 347 677 353 677 m 411 728 q 570 916 565 912 q 495 821 570 914 q 416 728 420 728 l 411 728 m 551 961 q 534 967 551 961 q 509 975 516 974 q 565 960 517 975 q 639 945 614 945 q 667 956 648 945 q 675 959 672 958 q 656 946 670 952 q 631 939 643 939 q 598 945 616 939 q 551 961 586 948 m 628 928 q 637 936 632 934 q 701 985 701 960 q 695 996 701 992 q 633 972 680 996 q 626 969 627 969 l 624 969 q 575 985 618 969 q 496 1000 532 1000 q 444 975 471 1000 q 416 928 416 951 q 423 913 416 920 q 439 906 430 906 l 444 906 q 467 917 458 906 q 475 941 475 927 q 469 955 475 949 q 455 962 463 962 q 467 971 456 967 q 484 975 476 975 q 540 962 508 975 l 553 957 l 566 951 q 591 943 581 945 q 568 919 587 937 l 561 911 l 553 905 q 542 892 546 897 l 536 886 l 530 880 l 518 866 q 408 729 505 850 l 401 729 q 349 713 374 729 q 321 671 321 696 q 351 656 321 656 q 425 688 378 656 q 536 644 509 644 q 576 661 557 644 q 596 698 596 678 q 570 725 596 725 q 547 717 558 725 q 536 695 536 707 q 541 679 536 684 q 554 668 543 676 l 552 668 l 550 667 q 546 667 548 667 l 545 667 q 495 688 530 667 q 455 713 461 709 l 628 928 m 511 1101 q 708 1019 627 1101 q 790 822 790 937 q 708 625 790 706 q 511 543 627 543 q 314 625 395 543 q 232 822 232 706 q 314 1019 232 937 q 511 1101 395 1101 m 511 1133 q 292 1042 382 1133 q 200 822 200 950 q 292 602 200 693 q 511 511 382 511 q 730 602 640 511 q 822 822 822 693 q 730 1042 822 950 q 511 1133 640 1133 m 119 294 q 136 312 136 294 q 119 329 136 329 l 102 329 l 102 294 l 119 294 m 68 226 l 68 363 l 119 363 q 171 312 171 363 q 119 260 171 260 l 102 260 l 102 226 l 68 226 m 263 363 l 263 329 l 212 329 l 212 312 l 263 312 l 263 277 l 212 277 l 212 260 l 263 260 l 263 226 l 177 226 l 177 363 l 263 363 m 313 294 l 330 294 q 347 312 347 294 q 330 329 347 329 l 313 329 l 313 294 m 382 312 q 357 267 382 280 l 382 226 l 339 226 l 319 260 l 313 260 l 313 226 l 279 226 l 279 363 l 330 363 q 382 312 382 363 m 439 283 q 388 321 388 283 q 441 368 388 368 q 500 347 477 368 l 482 321 q 443 335 467 335 q 422 321 422 335 q 461 309 422 309 q 500 270 500 309 q 446 226 500 226 q 388 244 406 226 l 406 270 q 444 256 420 256 q 465 270 465 256 q 439 283 465 283 m 541 294 q 576 260 541 260 q 610 294 610 260 q 576 329 610 329 q 541 294 541 329 m 644 294 q 576 226 644 226 q 507 294 507 226 q 576 363 507 363 q 644 294 644 363 m 772 363 l 772 226 l 738 226 l 686 303 l 686 226 l 652 226 l 652 363 l 686 363 l 738 286 l 738 363 l 772 363 m 835 260 l 863 260 l 849 303 l 835 260 m 867 363 l 918 226 l 875 226 l 872 235 l 827 235 l 823 226 l 781 226 l 832 363 l 867 363 m 959 363 l 959 260 l 1002 260 l 1002 226 l 924 226 l 924 363 l 959 363 m 180 189 l 180 -51 q 227 -94 180 -94 q 274 -51 274 -94 l 274 189 l 369 189 l 369 -51 q 227 -188 369 -188 q 85 -51 85 -188 l 85 189 l 180 189 m 574 -39 q 395 73 395 -39 q 541 201 395 201 q 701 144 638 201 l 654 73 q 541 115 624 115 q 489 73 489 115 q 573 39 489 39 q 701 -68 701 39 q 555 -188 701 -188 q 395 -139 444 -188 l 442 -68 q 540 -111 486 -111 q 607 -68 607 -111 q 574 -39 607 -39 m 971 189 l 971 95 l 830 95 l 830 48 l 971 48 l 971 -47 l 830 -47 l 830 -94 l 971 -94 l 971 -188 l 736 -188 l 736 189 l 971 189 z "},"":{"ha":1069,"x_min":68,"x_max":1002,"o":"m 324 1175 q 452 1186 404 1175 l 460 1193 l 469 1200 q 503 1219 489 1217 q 558 1200 530 1219 l 572 1190 l 585 1181 q 653 1168 600 1171 q 700 1172 689 1172 q 724 1154 714 1168 q 741 1124 732 1145 l 743 1116 l 747 1107 q 754 1092 751 1099 q 805 1057 767 1073 q 833 1043 827 1046 q 863 973 863 1020 l 862 959 l 860 945 q 882 876 860 899 l 889 867 l 897 857 q 906 798 906 846 q 868 743 906 763 q 856 713 856 734 q 862 641 856 677 q 839 606 862 619 q 821 597 831 602 l 810 593 l 801 589 q 766 566 776 579 q 749 538 758 557 l 743 522 q 734 507 738 513 q 684 471 715 471 q 642 475 661 471 q 600 472 610 475 q 579 460 591 468 l 568 452 l 558 444 q 513 424 532 425 q 471 441 488 424 l 460 449 l 450 457 q 430 469 439 466 q 401 474 418 474 l 385 474 l 370 473 q 313 479 323 473 q 282 519 296 490 l 271 544 q 257 567 264 558 q 235 581 250 574 l 222 587 l 209 593 q 161 678 161 627 q 150 755 161 727 q 115 831 115 793 q 120 845 116 838 q 143 882 124 859 q 165 920 161 905 q 161 974 165 951 q 239 1067 162 1061 q 261 1084 253 1074 q 274 1105 269 1091 l 279 1116 q 324 1175 295 1165 m 373 686 q 387 702 374 689 l 391 701 l 373 686 m 422 699 q 469 677 433 696 q 528 656 505 658 q 591 685 566 656 q 537 650 569 650 q 422 699 503 652 m 347 677 q 358 696 347 688 q 382 703 368 703 q 366 688 378 697 q 347 677 353 677 m 411 728 q 570 916 565 912 q 495 821 570 914 q 416 728 420 728 l 411 728 m 551 961 q 534 967 551 961 q 509 975 516 974 q 565 960 517 975 q 639 945 614 945 q 667 956 648 945 q 675 959 672 958 q 656 946 670 952 q 631 939 643 939 q 598 945 616 939 q 551 961 586 948 m 628 928 q 637 936 632 934 q 701 985 701 960 q 695 996 701 992 q 633 972 680 996 q 626 969 627 969 l 624 969 q 575 985 618 969 q 496 1000 532 1000 q 444 975 471 1000 q 416 928 416 951 q 423 913 416 920 q 439 906 430 906 l 444 906 q 467 917 458 906 q 475 941 475 927 q 469 955 475 949 q 455 962 463 962 q 467 971 456 967 q 484 975 476 975 q 540 962 508 975 l 553 957 l 566 951 q 591 943 581 945 q 568 919 587 937 l 561 911 l 553 905 q 542 892 546 897 l 536 886 l 530 880 l 518 866 q 408 729 505 850 l 401 729 q 349 713 374 729 q 321 671 321 696 q 351 656 321 656 q 425 688 378 656 q 536 644 509 644 q 576 661 557 644 q 596 698 596 678 q 570 725 596 725 q 547 717 558 725 q 536 695 536 707 q 541 679 536 684 q 554 668 543 676 l 552 668 l 550 667 q 546 667 548 667 l 545 667 q 495 688 530 667 q 455 713 461 709 l 628 928 m 511 1101 q 708 1019 627 1101 q 790 822 790 937 q 708 625 790 706 q 511 543 627 543 q 314 625 395 543 q 232 822 232 706 q 314 1019 232 937 q 511 1101 395 1101 m 511 1133 q 292 1042 382 1133 q 200 822 200 950 q 292 602 200 693 q 511 511 382 511 q 730 602 640 511 q 822 822 822 693 q 730 1042 822 950 q 511 1133 640 1133 m 119 294 q 136 312 136 294 q 119 329 136 329 l 102 329 l 102 294 l 119 294 m 68 226 l 68 363 l 119 363 q 171 312 171 363 q 119 260 171 260 l 102 260 l 102 226 l 68 226 m 263 363 l 263 329 l 212 329 l 212 312 l 263 312 l 263 277 l 212 277 l 212 260 l 263 260 l 263 226 l 177 226 l 177 363 l 263 363 m 313 294 l 330 294 q 347 312 347 294 q 330 329 347 329 l 313 329 l 313 294 m 382 312 q 357 267 382 280 l 382 226 l 339 226 l 319 260 l 313 260 l 313 226 l 279 226 l 279 363 l 330 363 q 382 312 382 363 m 439 283 q 388 321 388 283 q 441 368 388 368 q 500 347 477 368 l 482 321 q 443 335 467 335 q 422 321 422 335 q 461 309 422 309 q 500 270 500 309 q 446 226 500 226 q 388 244 406 226 l 406 270 q 444 256 420 256 q 465 270 465 256 q 439 283 465 283 m 541 294 q 576 260 541 260 q 610 294 610 260 q 576 329 610 329 q 541 294 541 329 m 644 294 q 576 226 644 226 q 507 294 507 226 q 576 363 507 363 q 644 294 644 363 m 772 363 l 772 226 l 738 226 l 686 303 l 686 226 l 652 226 l 652 363 l 686 363 l 738 286 l 738 363 l 772 363 m 835 260 l 863 260 l 849 303 l 835 260 m 867 363 l 918 226 l 875 226 l 872 235 l 827 235 l 823 226 l 781 226 l 832 363 l 867 363 m 959 363 l 959 260 l 1002 260 l 1002 226 l 924 226 l 924 363 l 959 363 m 180 189 l 180 -51 q 227 -94 180 -94 q 274 -51 274 -94 l 274 189 l 369 189 l 369 -51 q 227 -188 369 -188 q 85 -51 85 -188 l 85 189 l 180 189 m 574 -39 q 395 73 395 -39 q 541 201 395 201 q 701 144 638 201 l 654 73 q 541 115 624 115 q 489 73 489 115 q 573 39 489 39 q 701 -68 701 39 q 555 -188 701 -188 q 395 -139 444 -188 l 442 -68 q 540 -111 486 -111 q 607 -68 607 -111 q 574 -39 607 -39 m 971 189 l 971 95 l 830 95 l 830 48 l 971 48 l 971 -47 l 830 -47 l 830 -94 l 971 -94 l 971 -188 l 736 -188 l 736 189 l 971 189 z "},"<":{"ha":1069,"x_min":68,"x_max":1002,"o":"m 324 1175 q 452 1186 404 1175 l 460 1193 l 469 1200 q 503 1219 489 1217 q 558 1200 530 1219 l 572 1190 l 585 1181 q 653 1168 600 1171 q 700 1172 689 1172 q 724 1154 714 1168 q 741 1124 732 1145 l 743 1116 l 747 1107 q 754 1092 751 1099 q 805 1057 767 1073 q 833 1043 827 1046 q 863 973 863 1020 l 862 959 l 860 945 q 882 876 860 899 l 889 867 l 897 857 q 906 798 906 846 q 868 743 906 763 q 856 713 856 734 q 862 641 856 677 q 839 606 862 619 q 821 597 831 602 l 810 593 l 801 589 q 766 566 776 579 q 749 538 758 557 l 743 522 q 734 507 738 513 q 684 471 715 471 q 642 475 661 471 q 600 472 610 475 q 579 460 591 468 l 568 452 l 558 444 q 513 424 532 425 q 471 441 488 424 l 460 449 l 450 457 q 430 469 439 466 q 401 474 418 474 l 385 474 l 370 473 q 313 479 323 473 q 282 519 296 490 l 271 544 q 257 567 264 558 q 235 581 250 574 l 222 587 l 209 593 q 161 678 161 627 q 150 755 161 727 q 115 831 115 793 q 120 845 116 838 q 143 882 124 859 q 165 920 161 905 q 161 974 165 951 q 239 1067 162 1061 q 261 1084 253 1074 q 274 1105 269 1091 l 279 1116 q 324 1175 295 1165 m 373 686 q 387 702 374 689 l 391 701 l 373 686 m 422 699 q 469 677 433 696 q 528 656 505 658 q 591 685 566 656 q 537 650 569 650 q 422 699 503 652 m 347 677 q 358 696 347 688 q 382 703 368 703 q 366 688 378 697 q 347 677 353 677 m 411 728 q 570 916 565 912 q 495 821 570 914 q 416 728 420 728 l 411 728 m 551 961 q 534 967 551 961 q 509 975 516 974 q 565 960 517 975 q 639 945 614 945 q 667 956 648 945 q 675 959 672 958 q 656 946 670 952 q 631 939 643 939 q 598 945 616 939 q 551 961 586 948 m 628 928 q 637 936 632 934 q 701 985 701 960 q 695 996 701 992 q 633 972 680 996 q 626 969 627 969 l 624 969 q 575 985 618 969 q 496 1000 532 1000 q 444 975 471 1000 q 416 928 416 951 q 423 913 416 920 q 439 906 430 906 l 444 906 q 467 917 458 906 q 475 941 475 927 q 469 955 475 949 q 455 962 463 962 q 467 971 456 967 q 484 975 476 975 q 540 962 508 975 l 553 957 l 566 951 q 591 943 581 945 q 568 919 587 937 l 561 911 l 553 905 q 542 892 546 897 l 536 886 l 530 880 l 518 866 q 408 729 505 850 l 401 729 q 349 713 374 729 q 321 671 321 696 q 351 656 321 656 q 425 688 378 656 q 536 644 509 644 q 576 661 557 644 q 596 698 596 678 q 570 725 596 725 q 547 717 558 725 q 536 695 536 707 q 541 679 536 684 q 554 668 543 676 l 552 668 l 550 667 q 546 667 548 667 l 545 667 q 495 688 530 667 q 455 713 461 709 l 628 928 m 511 1101 q 708 1019 627 1101 q 790 822 790 937 q 708 625 790 706 q 511 543 627 543 q 314 625 395 543 q 232 822 232 706 q 314 1019 232 937 q 511 1101 395 1101 m 511 1133 q 292 1042 382 1133 q 200 822 200 950 q 292 602 200 693 q 511 511 382 511 q 730 602 640 511 q 822 822 822 693 q 730 1042 822 950 q 511 1133 640 1133 m 119 294 q 136 312 136 294 q 119 329 136 329 l 102 329 l 102 294 l 119 294 m 68 226 l 68 363 l 119 363 q 171 312 171 363 q 119 260 171 260 l 102 260 l 102 226 l 68 226 m 263 363 l 263 329 l 212 329 l 212 312 l 263 312 l 263 277 l 212 277 l 212 260 l 263 260 l 263 226 l 177 226 l 177 363 l 263 363 m 313 294 l 330 294 q 347 312 347 294 q 330 329 347 329 l 313 329 l 313 294 m 382 312 q 357 267 382 280 l 382 226 l 339 226 l 319 260 l 313 260 l 313 226 l 279 226 l 279 363 l 330 363 q 382 312 382 363 m 439 283 q 388 321 388 283 q 441 368 388 368 q 500 347 477 368 l 482 321 q 443 335 467 335 q 422 321 422 335 q 461 309 422 309 q 500 270 500 309 q 446 226 500 226 q 388 244 406 226 l 406 270 q 444 256 420 256 q 465 270 465 256 q 439 283 465 283 m 541 294 q 576 260 541 260 q 610 294 610 260 q 576 329 610 329 q 541 294 541 329 m 644 294 q 576 226 644 226 q 507 294 507 226 q 576 363 507 363 q 644 294 644 363 m 772 363 l 772 226 l 738 226 l 686 303 l 686 226 l 652 226 l 652 363 l 686 363 l 738 286 l 738 363 l 772 363 m 835 260 l 863 260 l 849 303 l 835 260 m 867 363 l 918 226 l 875 226 l 872 235 l 827 235 l 823 226 l 781 226 l 832 363 l 867 363 m 959 363 l 959 260 l 1002 260 l 1002 226 l 924 226 l 924 363 l 959 363 m 180 189 l 180 -51 q 227 -94 180 -94 q 274 -51 274 -94 l 274 189 l 369 189 l 369 -51 q 227 -188 369 -188 q 85 -51 85 -188 l 85 189 l 180 189 m 574 -39 q 395 73 395 -39 q 541 201 395 201 q 701 144 638 201 l 654 73 q 541 115 624 115 q 489 73 489 115 q 573 39 489 39 q 701 -68 701 39 q 555 -188 701 -188 q 395 -139 444 -188 l 442 -68 q 540 -111 486 -111 q 607 -68 607 -111 q 574 -39 607 -39 m 971 189 l 971 95 l 830 95 l 830 48 l 971 48 l 971 -47 l 830 -47 l 830 -94 l 971 -94 l 971 -188 l 736 -188 l 736 189 l 971 189 z "},"=":{"ha":1069,"x_min":68,"x_max":1002,"o":"m 324 1175 q 452 1186 404 1175 l 460 1193 l 469 1200 q 503 1219 489 1217 q 558 1200 530 1219 l 572 1190 l 585 1181 q 653 1168 600 1171 q 700 1172 689 1172 q 724 1154 714 1168 q 741 1124 732 1145 l 743 1116 l 747 1107 q 754 1092 751 1099 q 805 1057 767 1073 q 833 1043 827 1046 q 863 973 863 1020 l 862 959 l 860 945 q 882 876 860 899 l 889 867 l 897 857 q 906 798 906 846 q 868 743 906 763 q 856 713 856 734 q 862 641 856 677 q 839 606 862 619 q 821 597 831 602 l 810 593 l 801 589 q 766 566 776 579 q 749 538 758 557 l 743 522 q 734 507 738 513 q 684 471 715 471 q 642 475 661 471 q 600 472 610 475 q 579 460 591 468 l 568 452 l 558 444 q 513 424 532 425 q 471 441 488 424 l 460 449 l 450 457 q 430 469 439 466 q 401 474 418 474 l 385 474 l 370 473 q 313 479 323 473 q 282 519 296 490 l 271 544 q 257 567 264 558 q 235 581 250 574 l 222 587 l 209 593 q 161 678 161 627 q 150 755 161 727 q 115 831 115 793 q 120 845 116 838 q 143 882 124 859 q 165 920 161 905 q 161 974 165 951 q 239 1067 162 1061 q 261 1084 253 1074 q 274 1105 269 1091 l 279 1116 q 324 1175 295 1165 m 373 686 q 387 702 374 689 l 391 701 l 373 686 m 422 699 q 469 677 433 696 q 528 656 505 658 q 591 685 566 656 q 537 650 569 650 q 422 699 503 652 m 347 677 q 358 696 347 688 q 382 703 368 703 q 366 688 378 697 q 347 677 353 677 m 411 728 q 570 916 565 912 q 495 821 570 914 q 416 728 420 728 l 411 728 m 551 961 q 534 967 551 961 q 509 975 516 974 q 565 960 517 975 q 639 945 614 945 q 667 956 648 945 q 675 959 672 958 q 656 946 670 952 q 631 939 643 939 q 598 945 616 939 q 551 961 586 948 m 628 928 q 637 936 632 934 q 701 985 701 960 q 695 996 701 992 q 633 972 680 996 q 626 969 627 969 l 624 969 q 575 985 618 969 q 496 1000 532 1000 q 444 975 471 1000 q 416 928 416 951 q 423 913 416 920 q 439 906 430 906 l 444 906 q 467 917 458 906 q 475 941 475 927 q 469 955 475 949 q 455 962 463 962 q 467 971 456 967 q 484 975 476 975 q 540 962 508 975 l 553 957 l 566 951 q 591 943 581 945 q 568 919 587 937 l 561 911 l 553 905 q 542 892 546 897 l 536 886 l 530 880 l 518 866 q 408 729 505 850 l 401 729 q 349 713 374 729 q 321 671 321 696 q 351 656 321 656 q 425 688 378 656 q 536 644 509 644 q 576 661 557 644 q 596 698 596 678 q 570 725 596 725 q 547 717 558 725 q 536 695 536 707 q 541 679 536 684 q 554 668 543 676 l 552 668 l 550 667 q 546 667 548 667 l 545 667 q 495 688 530 667 q 455 713 461 709 l 628 928 m 511 1101 q 708 1019 627 1101 q 790 822 790 937 q 708 625 790 706 q 511 543 627 543 q 314 625 395 543 q 232 822 232 706 q 314 1019 232 937 q 511 1101 395 1101 m 511 1133 q 292 1042 382 1133 q 200 822 200 950 q 292 602 200 693 q 511 511 382 511 q 730 602 640 511 q 822 822 822 693 q 730 1042 822 950 q 511 1133 640 1133 m 119 294 q 136 312 136 294 q 119 329 136 329 l 102 329 l 102 294 l 119 294 m 68 226 l 68 363 l 119 363 q 171 312 171 363 q 119 260 171 260 l 102 260 l 102 226 l 68 226 m 263 363 l 263 329 l 212 329 l 212 312 l 263 312 l 263 277 l 212 277 l 212 260 l 263 260 l 263 226 l 177 226 l 177 363 l 263 363 m 313 294 l 330 294 q 347 312 347 294 q 330 329 347 329 l 313 329 l 313 294 m 382 312 q 357 267 382 280 l 382 226 l 339 226 l 319 260 l 313 260 l 313 226 l 279 226 l 279 363 l 330 363 q 382 312 382 363 m 439 283 q 388 321 388 283 q 441 368 388 368 q 500 347 477 368 l 482 321 q 443 335 467 335 q 422 321 422 335 q 461 309 422 309 q 500 270 500 309 q 446 226 500 226 q 388 244 406 226 l 406 270 q 444 256 420 256 q 465 270 465 256 q 439 283 465 283 m 541 294 q 576 260 541 260 q 610 294 610 260 q 576 329 610 329 q 541 294 541 329 m 644 294 q 576 226 644 226 q 507 294 507 226 q 576 363 507 363 q 644 294 644 363 m 772 363 l 772 226 l 738 226 l 686 303 l 686 226 l 652 226 l 652 363 l 686 363 l 738 286 l 738 363 l 772 363 m 835 260 l 863 260 l 849 303 l 835 260 m 867 363 l 918 226 l 875 226 l 872 235 l 827 235 l 823 226 l 781 226 l 832 363 l 867 363 m 959 363 l 959 260 l 1002 260 l 1002 226 l 924 226 l 924 363 l 959 363 m 180 189 l 180 -51 q 227 -94 180 -94 q 274 -51 274 -94 l 274 189 l 369 189 l 369 -51 q 227 -188 369 -188 q 85 -51 85 -188 l 85 189 l 180 189 m 574 -39 q 395 73 395 -39 q 541 201 395 201 q 701 144 638 201 l 654 73 q 541 115 624 115 q 489 73 489 115 q 573 39 489 39 q 701 -68 701 39 q 555 -188 701 -188 q 395 -139 444 -188 l 442 -68 q 540 -111 486 -111 q 607 -68 607 -111 q 574 -39 607 -39 m 971 189 l 971 95 l 830 95 l 830 48 l 971 48 l 971 -47 l 830 -47 l 830 -94 l 971 -94 l 971 -188 l 736 -188 l 736 189 l 971 189 z "},">":{"ha":1069,"x_min":68,"x_max":1002,"o":"m 324 1175 q 452 1186 404 1175 l 460 1193 l 469 1200 q 503 1219 489 1217 q 558 1200 530 1219 l 572 1190 l 585 1181 q 653 1168 600 1171 q 700 1172 689 1172 q 724 1154 714 1168 q 741 1124 732 1145 l 743 1116 l 747 1107 q 754 1092 751 1099 q 805 1057 767 1073 q 833 1043 827 1046 q 863 973 863 1020 l 862 959 l 860 945 q 882 876 860 899 l 889 867 l 897 857 q 906 798 906 846 q 868 743 906 763 q 856 713 856 734 q 862 641 856 677 q 839 606 862 619 q 821 597 831 602 l 810 593 l 801 589 q 766 566 776 579 q 749 538 758 557 l 743 522 q 734 507 738 513 q 684 471 715 471 q 642 475 661 471 q 600 472 610 475 q 579 460 591 468 l 568 452 l 558 444 q 513 424 532 425 q 471 441 488 424 l 460 449 l 450 457 q 430 469 439 466 q 401 474 418 474 l 385 474 l 370 473 q 313 479 323 473 q 282 519 296 490 l 271 544 q 257 567 264 558 q 235 581 250 574 l 222 587 l 209 593 q 161 678 161 627 q 150 755 161 727 q 115 831 115 793 q 120 845 116 838 q 143 882 124 859 q 165 920 161 905 q 161 974 165 951 q 239 1067 162 1061 q 261 1084 253 1074 q 274 1105 269 1091 l 279 1116 q 324 1175 295 1165 m 373 686 q 387 702 374 689 l 391 701 l 373 686 m 422 699 q 469 677 433 696 q 528 656 505 658 q 591 685 566 656 q 537 650 569 650 q 422 699 503 652 m 347 677 q 358 696 347 688 q 382 703 368 703 q 366 688 378 697 q 347 677 353 677 m 411 728 q 570 916 565 912 q 495 821 570 914 q 416 728 420 728 l 411 728 m 551 961 q 534 967 551 961 q 509 975 516 974 q 565 960 517 975 q 639 945 614 945 q 667 956 648 945 q 675 959 672 958 q 656 946 670 952 q 631 939 643 939 q 598 945 616 939 q 551 961 586 948 m 628 928 q 637 936 632 934 q 701 985 701 960 q 695 996 701 992 q 633 972 680 996 q 626 969 627 969 l 624 969 q 575 985 618 969 q 496 1000 532 1000 q 444 975 471 1000 q 416 928 416 951 q 423 913 416 920 q 439 906 430 906 l 444 906 q 467 917 458 906 q 475 941 475 927 q 469 955 475 949 q 455 962 463 962 q 467 971 456 967 q 484 975 476 975 q 540 962 508 975 l 553 957 l 566 951 q 591 943 581 945 q 568 919 587 937 l 561 911 l 553 905 q 542 892 546 897 l 536 886 l 530 880 l 518 866 q 408 729 505 850 l 401 729 q 349 713 374 729 q 321 671 321 696 q 351 656 321 656 q 425 688 378 656 q 536 644 509 644 q 576 661 557 644 q 596 698 596 678 q 570 725 596 725 q 547 717 558 725 q 536 695 536 707 q 541 679 536 684 q 554 668 543 676 l 552 668 l 550 667 q 546 667 548 667 l 545 667 q 495 688 530 667 q 455 713 461 709 l 628 928 m 511 1101 q 708 1019 627 1101 q 790 822 790 937 q 708 625 790 706 q 511 543 627 543 q 314 625 395 543 q 232 822 232 706 q 314 1019 232 937 q 511 1101 395 1101 m 511 1133 q 292 1042 382 1133 q 200 822 200 950 q 292 602 200 693 q 511 511 382 511 q 730 602 640 511 q 822 822 822 693 q 730 1042 822 950 q 511 1133 640 1133 m 119 294 q 136 312 136 294 q 119 329 136 329 l 102 329 l 102 294 l 119 294 m 68 226 l 68 363 l 119 363 q 171 312 171 363 q 119 260 171 260 l 102 260 l 102 226 l 68 226 m 263 363 l 263 329 l 212 329 l 212 312 l 263 312 l 263 277 l 212 277 l 212 260 l 263 260 l 263 226 l 177 226 l 177 363 l 263 363 m 313 294 l 330 294 q 347 312 347 294 q 330 329 347 329 l 313 329 l 313 294 m 382 312 q 357 267 382 280 l 382 226 l 339 226 l 319 260 l 313 260 l 313 226 l 279 226 l 279 363 l 330 363 q 382 312 382 363 m 439 283 q 388 321 388 283 q 441 368 388 368 q 500 347 477 368 l 482 321 q 443 335 467 335 q 422 321 422 335 q 461 309 422 309 q 500 270 500 309 q 446 226 500 226 q 388 244 406 226 l 406 270 q 444 256 420 256 q 465 270 465 256 q 439 283 465 283 m 541 294 q 576 260 541 260 q 610 294 610 260 q 576 329 610 329 q 541 294 541 329 m 644 294 q 576 226 644 226 q 507 294 507 226 q 576 363 507 363 q 644 294 644 363 m 772 363 l 772 226 l 738 226 l 686 303 l 686 226 l 652 226 l 652 363 l 686 363 l 738 286 l 738 363 l 772 363 m 835 260 l 863 260 l 849 303 l 835 260 m 867 363 l 918 226 l 875 226 l 872 235 l 827 235 l 823 226 l 781 226 l 832 363 l 867 363 m 959 363 l 959 260 l 1002 260 l 1002 226 l 924 226 l 924 363 l 959 363 m 180 189 l 180 -51 q 227 -94 180 -94 q 274 -51 274 -94 l 274 189 l 369 189 l 369 -51 q 227 -188 369 -188 q 85 -51 85 -188 l 85 189 l 180 189 m 574 -39 q 395 73 395 -39 q 541 201 395 201 q 701 144 638 201 l 654 73 q 541 115 624 115 q 489 73 489 115 q 573 39 489 39 q 701 -68 701 39 q 555 -188 701 -188 q 395 -139 444 -188 l 442 -68 q 540 -111 486 -111 q 607 -68 607 -111 q 574 -39 607 -39 m 971 189 l 971 95 l 830 95 l 830 48 l 971 48 l 971 -47 l 830 -47 l 830 -94 l 971 -94 l 971 -188 l 736 -188 l 736 189 l 971 189 z "},"?":{"ha":1069,"x_min":68,"x_max":1002,"o":"m 324 1175 q 452 1186 404 1175 l 460 1193 l 469 1200 q 503 1219 489 1217 q 558 1200 530 1219 l 572 1190 l 585 1181 q 653 1168 600 1171 q 700 1172 689 1172 q 724 1154 714 1168 q 741 1124 732 1145 l 743 1116 l 747 1107 q 754 1092 751 1099 q 805 1057 767 1073 q 833 1043 827 1046 q 863 973 863 1020 l 862 959 l 860 945 q 882 876 860 899 l 889 867 l 897 857 q 906 798 906 846 q 868 743 906 763 q 856 713 856 734 q 862 641 856 677 q 839 606 862 619 q 821 597 831 602 l 810 593 l 801 589 q 766 566 776 579 q 749 538 758 557 l 743 522 q 734 507 738 513 q 684 471 715 471 q 642 475 661 471 q 600 472 610 475 q 579 460 591 468 l 568 452 l 558 444 q 513 424 532 425 q 471 441 488 424 l 460 449 l 450 457 q 430 469 439 466 q 401 474 418 474 l 385 474 l 370 473 q 313 479 323 473 q 282 519 296 490 l 271 544 q 257 567 264 558 q 235 581 250 574 l 222 587 l 209 593 q 161 678 161 627 q 150 755 161 727 q 115 831 115 793 q 120 845 116 838 q 143 882 124 859 q 165 920 161 905 q 161 974 165 951 q 239 1067 162 1061 q 261 1084 253 1074 q 274 1105 269 1091 l 279 1116 q 324 1175 295 1165 m 373 686 q 387 702 374 689 l 391 701 l 373 686 m 422 699 q 469 677 433 696 q 528 656 505 658 q 591 685 566 656 q 537 650 569 650 q 422 699 503 652 m 347 677 q 358 696 347 688 q 382 703 368 703 q 366 688 378 697 q 347 677 353 677 m 411 728 q 570 916 565 912 q 495 821 570 914 q 416 728 420 728 l 411 728 m 551 961 q 534 967 551 961 q 509 975 516 974 q 565 960 517 975 q 639 945 614 945 q 667 956 648 945 q 675 959 672 958 q 656 946 670 952 q 631 939 643 939 q 598 945 616 939 q 551 961 586 948 m 628 928 q 637 936 632 934 q 701 985 701 960 q 695 996 701 992 q 633 972 680 996 q 626 969 627 969 l 624 969 q 575 985 618 969 q 496 1000 532 1000 q 444 975 471 1000 q 416 928 416 951 q 423 913 416 920 q 439 906 430 906 l 444 906 q 467 917 458 906 q 475 941 475 927 q 469 955 475 949 q 455 962 463 962 q 467 971 456 967 q 484 975 476 975 q 540 962 508 975 l 553 957 l 566 951 q 591 943 581 945 q 568 919 587 937 l 561 911 l 553 905 q 542 892 546 897 l 536 886 l 530 880 l 518 866 q 408 729 505 850 l 401 729 q 349 713 374 729 q 321 671 321 696 q 351 656 321 656 q 425 688 378 656 q 536 644 509 644 q 576 661 557 644 q 596 698 596 678 q 570 725 596 725 q 547 717 558 725 q 536 695 536 707 q 541 679 536 684 q 554 668 543 676 l 552 668 l 550 667 q 546 667 548 667 l 545 667 q 495 688 530 667 q 455 713 461 709 l 628 928 m 511 1101 q 708 1019 627 1101 q 790 822 790 937 q 708 625 790 706 q 511 543 627 543 q 314 625 395 543 q 232 822 232 706 q 314 1019 232 937 q 511 1101 395 1101 m 511 1133 q 292 1042 382 1133 q 200 822 200 950 q 292 602 200 693 q 511 511 382 511 q 730 602 640 511 q 822 822 822 693 q 730 1042 822 950 q 511 1133 640 1133 m 119 294 q 136 312 136 294 q 119 329 136 329 l 102 329 l 102 294 l 119 294 m 68 226 l 68 363 l 119 363 q 171 312 171 363 q 119 260 171 260 l 102 260 l 102 226 l 68 226 m 263 363 l 263 329 l 212 329 l 212 312 l 263 312 l 263 277 l 212 277 l 212 260 l 263 260 l 263 226 l 177 226 l 177 363 l 263 363 m 313 294 l 330 294 q 347 312 347 294 q 330 329 347 329 l 313 329 l 313 294 m 382 312 q 357 267 382 280 l 382 226 l 339 226 l 319 260 l 313 260 l 313 226 l 279 226 l 279 363 l 330 363 q 382 312 382 363 m 439 283 q 388 321 388 283 q 441 368 388 368 q 500 347 477 368 l 482 321 q 443 335 467 335 q 422 321 422 335 q 461 309 422 309 q 500 270 500 309 q 446 226 500 226 q 388 244 406 226 l 406 270 q 444 256 420 256 q 465 270 465 256 q 439 283 465 283 m 541 294 q 576 260 541 260 q 610 294 610 260 q 576 329 610 329 q 541 294 541 329 m 644 294 q 576 226 644 226 q 507 294 507 226 q 576 363 507 363 q 644 294 644 363 m 772 363 l 772 226 l 738 226 l 686 303 l 686 226 l 652 226 l 652 363 l 686 363 l 738 286 l 738 363 l 772 363 m 835 260 l 863 260 l 849 303 l 835 260 m 867 363 l 918 226 l 875 226 l 872 235 l 827 235 l 823 226 l 781 226 l 832 363 l 867 363 m 959 363 l 959 260 l 1002 260 l 1002 226 l 924 226 l 924 363 l 959 363 m 180 189 l 180 -51 q 227 -94 180 -94 q 274 -51 274 -94 l 274 189 l 369 189 l 369 -51 q 227 -188 369 -188 q 85 -51 85 -188 l 85 189 l 180 189 m 574 -39 q 395 73 395 -39 q 541 201 395 201 q 701 144 638 201 l 654 73 q 541 115 624 115 q 489 73 489 115 q 573 39 489 39 q 701 -68 701 39 q 555 -188 701 -188 q 395 -139 444 -188 l 442 -68 q 540 -111 486 -111 q 607 -68 607 -111 q 574 -39 607 -39 m 971 189 l 971 95 l 830 95 l 830 48 l 971 48 l 971 -47 l 830 -47 l 830 -94 l 971 -94 l 971 -188 l 736 -188 l 736 189 l 971 189 z "},"@":{"ha":1069,"x_min":68,"x_max":1002,"o":"m 324 1175 q 452 1186 404 1175 l 460 1193 l 469 1200 q 503 1219 489 1217 q 558 1200 530 1219 l 572 1190 l 585 1181 q 653 1168 600 1171 q 700 1172 689 1172 q 724 1154 714 1168 q 741 1124 732 1145 l 743 1116 l 747 1107 q 754 1092 751 1099 q 805 1057 767 1073 q 833 1043 827 1046 q 863 973 863 1020 l 862 959 l 860 945 q 882 876 860 899 l 889 867 l 897 857 q 906 798 906 846 q 868 743 906 763 q 856 713 856 734 q 862 641 856 677 q 839 606 862 619 q 821 597 831 602 l 810 593 l 801 589 q 766 566 776 579 q 749 538 758 557 l 743 522 q 734 507 738 513 q 684 471 715 471 q 642 475 661 471 q 600 472 610 475 q 579 460 591 468 l 568 452 l 558 444 q 513 424 532 425 q 471 441 488 424 l 460 449 l 450 457 q 430 469 439 466 q 401 474 418 474 l 385 474 l 370 473 q 313 479 323 473 q 282 519 296 490 l 271 544 q 257 567 264 558 q 235 581 250 574 l 222 587 l 209 593 q 161 678 161 627 q 150 755 161 727 q 115 831 115 793 q 120 845 116 838 q 143 882 124 859 q 165 920 161 905 q 161 974 165 951 q 239 1067 162 1061 q 261 1084 253 1074 q 274 1105 269 1091 l 279 1116 q 324 1175 295 1165 m 373 686 q 387 702 374 689 l 391 701 l 373 686 m 422 699 q 469 677 433 696 q 528 656 505 658 q 591 685 566 656 q 537 650 569 650 q 422 699 503 652 m 347 677 q 358 696 347 688 q 382 703 368 703 q 366 688 378 697 q 347 677 353 677 m 411 728 q 570 916 565 912 q 495 821 570 914 q 416 728 420 728 l 411 728 m 551 961 q 534 967 551 961 q 509 975 516 974 q 565 960 517 975 q 639 945 614 945 q 667 956 648 945 q 675 959 672 958 q 656 946 670 952 q 631 939 643 939 q 598 945 616 939 q 551 961 586 948 m 628 928 q 637 936 632 934 q 701 985 701 960 q 695 996 701 992 q 633 972 680 996 q 626 969 627 969 l 624 969 q 575 985 618 969 q 496 1000 532 1000 q 444 975 471 1000 q 416 928 416 951 q 423 913 416 920 q 439 906 430 906 l 444 906 q 467 917 458 906 q 475 941 475 927 q 469 955 475 949 q 455 962 463 962 q 467 971 456 967 q 484 975 476 975 q 540 962 508 975 l 553 957 l 566 951 q 591 943 581 945 q 568 919 587 937 l 561 911 l 553 905 q 542 892 546 897 l 536 886 l 530 880 l 518 866 q 408 729 505 850 l 401 729 q 349 713 374 729 q 321 671 321 696 q 351 656 321 656 q 425 688 378 656 q 536 644 509 644 q 576 661 557 644 q 596 698 596 678 q 570 725 596 725 q 547 717 558 725 q 536 695 536 707 q 541 679 536 684 q 554 668 543 676 l 552 668 l 550 667 q 546 667 548 667 l 545 667 q 495 688 530 667 q 455 713 461 709 l 628 928 m 511 1101 q 708 1019 627 1101 q 790 822 790 937 q 708 625 790 706 q 511 543 627 543 q 314 625 395 543 q 232 822 232 706 q 314 1019 232 937 q 511 1101 395 1101 m 511 1133 q 292 1042 382 1133 q 200 822 200 950 q 292 602 200 693 q 511 511 382 511 q 730 602 640 511 q 822 822 822 693 q 730 1042 822 950 q 511 1133 640 1133 m 119 294 q 136 312 136 294 q 119 329 136 329 l 102 329 l 102 294 l 119 294 m 68 226 l 68 363 l 119 363 q 171 312 171 363 q 119 260 171 260 l 102 260 l 102 226 l 68 226 m 263 363 l 263 329 l 212 329 l 212 312 l 263 312 l 263 277 l 212 277 l 212 260 l 263 260 l 263 226 l 177 226 l 177 363 l 263 363 m 313 294 l 330 294 q 347 312 347 294 q 330 329 347 329 l 313 329 l 313 294 m 382 312 q 357 267 382 280 l 382 226 l 339 226 l 319 260 l 313 260 l 313 226 l 279 226 l 279 363 l 330 363 q 382 312 382 363 m 439 283 q 388 321 388 283 q 441 368 388 368 q 500 347 477 368 l 482 321 q 443 335 467 335 q 422 321 422 335 q 461 309 422 309 q 500 270 500 309 q 446 226 500 226 q 388 244 406 226 l 406 270 q 444 256 420 256 q 465 270 465 256 q 439 283 465 283 m 541 294 q 576 260 541 260 q 610 294 610 260 q 576 329 610 329 q 541 294 541 329 m 644 294 q 576 226 644 226 q 507 294 507 226 q 576 363 507 363 q 644 294 644 363 m 772 363 l 772 226 l 738 226 l 686 303 l 686 226 l 652 226 l 652 363 l 686 363 l 738 286 l 738 363 l 772 363 m 835 260 l 863 260 l 849 303 l 835 260 m 867 363 l 918 226 l 875 226 l 872 235 l 827 235 l 823 226 l 781 226 l 832 363 l 867 363 m 959 363 l 959 260 l 1002 260 l 1002 226 l 924 226 l 924 363 l 959 363 m 180 189 l 180 -51 q 227 -94 180 -94 q 274 -51 274 -94 l 274 189 l 369 189 l 369 -51 q 227 -188 369 -188 q 85 -51 85 -188 l 85 189 l 180 189 m 574 -39 q 395 73 395 -39 q 541 201 395 201 q 701 144 638 201 l 654 73 q 541 115 624 115 q 489 73 489 115 q 573 39 489 39 q 701 -68 701 39 q 555 -188 701 -188 q 395 -139 444 -188 l 442 -68 q 540 -111 486 -111 q 607 -68 607 -111 q 574 -39 607 -39 m 971 189 l 971 95 l 830 95 l 830 48 l 971 48 l 971 -47 l 830 -47 l 830 -94 l 971 -94 l 971 -188 l 736 -188 l 736 189 l 971 189 z "}}}
